<svg width="864" height="296" viewBox="0 0 864 296" fill="none" xmlns="http://www.w3.org/2000/svg">
<rect width="864" height="296" fill="white"/>
<path d="M397.581 50.992L406.541 50.8C406.882 50.8 407.053 51.1627 407.053 51.888C407.053 52.6133 406.882 52.976 406.541 52.976H403.789C402.722 52.976 402.018 53.1893 401.677 53.616C401.336 54 401.165 54.768 401.165 55.92V86.256C401.165 90.0107 401.613 91.888 402.509 91.888H406.221C406.562 91.888 406.733 92.2507 406.733 92.976C406.733 93.6587 406.562 94 406.221 94L398.157 93.936L389.197 94.128C388.856 94.128 388.685 93.7653 388.685 93.04C388.685 92.3147 388.856 91.952 389.197 91.952H391.949C393.016 91.952 393.72 91.76 394.061 91.376C394.402 90.9493 394.573 90.16 394.573 89.008V73.904H371.725V86.256C371.725 90.0107 372.173 91.888 373.069 91.888H376.781C377.122 91.888 377.293 92.2507 377.293 92.976C377.293 93.6587 377.122 94 376.781 94L368.717 93.936L359.757 94.128C359.416 94.128 359.245 93.7653 359.245 93.04C359.245 92.3147 359.416 91.952 359.757 91.952H362.509C363.576 91.952 364.28 91.76 364.621 91.376C364.962 90.9493 365.133 90.16 365.133 89.008V58.672C365.133 54.9173 364.685 53.04 363.789 53.04H360.077C359.736 53.04 359.565 52.6987 359.565 52.016C359.565 51.2907 359.736 50.928 360.077 50.928L368.141 50.992L377.101 50.8C377.442 50.8 377.613 51.1627 377.613 51.888C377.613 52.6133 377.442 52.976 377.101 52.976H374.349C373.282 52.976 372.578 53.1893 372.237 53.616C371.896 54 371.725 54.768 371.725 55.92V71.28H394.573V58.672C394.573 54.9173 394.125 53.04 393.229 53.04H389.517C389.176 53.04 389.005 52.6987 389.005 52.016C389.005 51.2907 389.176 50.928 389.517 50.928L397.581 50.992ZM387.341 154.928C387.341 158.469 385.826 161.349 382.797 163.568C379.768 165.744 376.418 166.832 372.749 166.832C369.08 166.832 365.837 166.192 363.021 164.912L363.533 166.192C363.661 166.448 363.554 166.683 363.213 166.896C362.914 167.152 362.573 167.28 362.189 167.28C361.805 167.28 361.549 167.173 361.421 166.96C360.056 163.504 359.224 159.493 358.925 154.928C358.925 154.501 359.266 154.288 359.949 154.288C360.632 154.288 360.994 154.437 361.037 154.736C361.976 157.979 363.874 160.581 366.733 162.544C368.482 163.781 370.509 164.4 372.813 164.4C375.16 164.4 377.037 163.739 378.445 162.416C379.896 161.051 380.621 159.429 380.621 157.552C380.621 155.632 380.13 153.925 379.149 152.432C378.168 150.896 376.952 149.659 375.501 148.72C374.05 147.781 372.472 146.8 370.765 145.776C369.058 144.709 367.48 143.707 366.029 142.768C364.578 141.787 363.362 140.485 362.381 138.864C361.4 137.243 360.909 135.408 360.909 133.36C360.909 130.245 362.296 127.621 365.069 125.488C367.885 123.312 371.405 122.224 375.629 122.224C377.549 122.224 379.341 122.48 381.005 122.992L381.773 123.184C381.602 122.501 381.496 122.032 381.453 121.776C381.453 121.52 381.538 121.349 381.709 121.264C381.922 121.136 382.221 121.072 382.605 121.072C383.032 121.072 383.309 121.243 383.437 121.584C384.418 125.04 384.994 128.432 385.165 131.76C385.037 132.016 384.674 132.144 384.077 132.144C383.522 132.144 383.181 132.08 383.053 131.952C382.584 130.203 381.922 128.773 381.069 127.664C380.216 126.512 379.277 125.723 378.253 125.296C377.229 124.869 376.034 124.656 374.669 124.656C372.024 124.656 370.125 125.339 368.973 126.704C367.864 128.027 367.309 129.499 367.309 131.12C367.309 132.699 367.672 134.064 368.397 135.216C369.165 136.325 370.125 137.307 371.277 138.16C372.472 138.971 373.773 139.781 375.181 140.592C376.589 141.36 377.997 142.192 379.405 143.088C380.856 143.984 382.178 144.965 383.373 146.032C386.018 148.379 387.341 151.344 387.341 154.928ZM390.093 237.936L381.965 238.128C381.581 238.128 381.389 237.765 381.389 237.04C381.389 236.315 381.581 235.952 381.965 235.952H385.613C386.509 235.952 386.957 235.589 386.957 234.864C386.957 234.565 386.146 232.027 384.525 227.248C382.904 222.427 381.901 219.419 381.517 218.224H369.933C366.904 227.867 365.389 233.435 365.389 234.928C365.389 235.568 365.517 235.888 365.773 235.888H370.381C370.85 235.888 371.085 236.251 371.085 236.976C371.085 237.659 370.808 238 370.253 238L361.997 237.936L354.893 238.128C354.509 238.128 354.317 237.765 354.317 237.04C354.317 236.315 354.509 235.952 354.893 235.952H358.093C359.032 235.952 359.736 235.483 360.205 234.544C361.997 230.661 364.258 224.88 366.989 217.2C369.762 209.52 371.64 204.443 372.621 201.968C373.645 199.451 374.157 198.064 374.157 197.808C374.157 197.509 374.072 197.189 373.901 196.848C373.73 196.507 373.645 196.293 373.645 196.208C373.645 195.867 373.944 195.696 374.541 195.696C375.181 195.696 375.757 195.547 376.269 195.248C376.824 194.949 377.186 194.608 377.357 194.224C377.826 193.285 378.253 192.816 378.637 192.816C378.808 192.816 379.106 193.456 379.533 194.736L392.397 229.488C394.018 233.755 395.149 235.888 395.789 235.888H398.093C398.52 235.888 398.733 236.251 398.733 236.976C398.733 237.659 398.562 238 398.221 238L390.093 237.936ZM375.757 201.584C374.434 204.997 372.77 209.691 370.765 215.664H380.621C377.762 207.003 376.226 202.309 376.013 201.584H375.757ZM730.151 200.752C734.716 196.4 740.199 194.224 746.599 194.224C752.999 194.224 758.482 196.4 763.047 200.752C767.612 205.104 769.895 210.373 769.895 216.56C769.895 222.704 767.612 227.952 763.047 232.304C758.482 236.656 752.999 238.832 746.599 238.832C740.199 238.832 734.716 236.656 730.151 232.304C725.586 227.952 723.303 222.704 723.303 216.56C723.303 210.373 725.586 205.104 730.151 200.752ZM757.543 202.736C754.727 199.024 751.079 197.168 746.599 197.168C742.119 197.168 738.45 199.024 735.591 202.736C732.775 206.448 731.367 211.056 731.367 216.56C731.367 222.021 732.775 226.608 735.591 230.32C738.45 234.032 742.119 235.888 746.599 235.888C751.079 235.888 754.727 234.032 757.543 230.32C760.402 226.608 761.831 222.021 761.831 216.56C761.831 211.056 760.402 206.448 757.543 202.736ZM813.365 194.992L820.277 194.8C820.618 194.8 820.789 195.163 820.789 195.888C820.789 196.613 820.618 196.976 820.277 196.976H818.357C817.29 196.976 816.586 197.189 816.245 197.616C815.946 198 815.754 198.768 815.669 199.92C815.285 205.68 815.093 212.933 815.093 221.68C815.093 227.056 813.429 231.259 810.101 234.288C806.773 237.317 802.805 238.832 798.197 238.832C793.632 238.832 789.685 237.424 786.357 234.608C783.072 231.749 781.429 227.739 781.429 222.576V202.672C781.429 198.917 780.981 197.04 780.085 197.04H776.373C776.032 197.04 775.861 196.699 775.861 196.016C775.861 195.291 776.032 194.928 776.373 194.928L784.437 194.992L793.397 194.8C793.738 194.8 793.909 195.163 793.909 195.888C793.909 196.613 793.738 196.976 793.397 196.976H790.645C789.578 196.976 788.874 197.189 788.533 197.616C788.192 198 788.021 198.768 788.021 199.92V220.784C788.021 225.307 789.13 228.72 791.349 231.024C793.61 233.285 796.49 234.416 799.989 234.416C803.488 234.416 806.261 233.157 808.309 230.64C810.4 228.08 811.445 224.347 811.445 219.44C811.445 212.656 811.36 207.237 811.189 203.184C811.018 199.088 810.528 197.04 809.717 197.04H806.133C805.792 197.04 805.621 196.699 805.621 196.016C805.621 195.291 805.792 194.928 806.133 194.928L813.365 194.992Z" fill="#DB131F"/>
<path d="M413.243 94L408.187 94.128C407.889 94.128 407.739 93.8507 407.739 93.296C407.739 92.7413 407.889 92.464 408.187 92.464H410.235C410.705 92.464 411.046 92.272 411.259 91.888C412.241 90.2667 414.203 85.9573 417.147 78.96C420.091 71.92 422.203 66.5867 423.483 62.96C423.654 62.576 424.059 62.384 424.699 62.384C425.382 62.384 425.809 62.5973 425.979 63.024C426.491 65.1573 427.985 69.1893 430.459 75.12C432.977 81.0507 435.174 86 437.051 89.968C437.563 90.992 438.033 91.6533 438.459 91.952C438.886 92.2507 439.547 92.4 440.443 92.4C440.699 92.4 440.827 92.6987 440.827 93.296C440.827 93.8507 440.721 94.128 440.507 94.128L434.363 94L427.451 94.128C427.195 94.128 427.067 93.8507 427.067 93.296C427.067 92.7413 427.195 92.464 427.451 92.464H430.523C430.993 92.464 431.227 92.272 431.227 91.888C431.227 91.8453 430.033 88.56 427.643 82.032H418.747C416.657 87.1947 415.611 90.224 415.611 91.12C415.611 91.9733 415.867 92.4 416.379 92.4H419.003C419.345 92.4 419.515 92.6987 419.515 93.296C419.515 93.8507 419.387 94.128 419.131 94.128L413.243 94ZM426.811 79.856C426.683 79.472 425.574 76.2293 423.483 70.128H423.291C422.267 73.072 421.051 76.3147 419.643 79.856H426.811ZM450.712 94L443.864 94.128C443.565 94.128 443.416 93.808 443.416 93.168C443.416 92.528 443.523 92.208 443.736 92.208H446.872C447.384 92.208 447.64 91.8453 447.64 91.12V70.128C447.64 66.7573 447.171 65.072 446.232 65.072H443.992C443.523 65.072 443.288 64.752 443.288 64.112C443.288 63.4293 443.48 63.088 443.864 63.088C447.661 63.1733 451.544 63.216 455.512 63.216C459.48 63.216 462.552 64.0693 464.728 65.776C466.947 67.44 468.056 69.5093 468.056 71.984C468.056 74.416 467.181 76.3787 465.432 77.872C463.683 79.3653 461.571 80.2187 459.096 80.432C460.333 81.2853 461.933 82.992 463.896 85.552C464.621 86.5333 465.752 87.664 467.288 88.944C468.824 90.1813 470.552 91.2907 472.472 92.272C471.619 93.9787 470.317 94.832 468.568 94.832C466.819 94.832 465.283 94.192 463.96 92.912C462.637 91.632 461.613 90.224 460.888 88.688C460.163 87.1093 459.352 85.488 458.456 83.824C457.603 82.16 456.792 81.072 456.024 80.56L453.08 80.368V87.792C453.08 90.608 453.507 92.016 454.36 92.016H457.048C457.389 92.016 457.56 92.3573 457.56 93.04C457.56 93.68 457.453 94 457.24 94H450.712ZM454.36 65.136C453.507 65.136 453.08 65.84 453.08 67.248V77.872C453.677 78 454.275 78.064 454.872 78.064C456.792 78.064 458.456 77.5307 459.864 76.464C461.272 75.3973 461.976 73.9467 461.976 72.112C461.976 70.2773 461.336 68.656 460.056 67.248C458.819 65.84 456.92 65.136 454.36 65.136ZM504.664 69.936C504.664 70.192 504.365 70.32 503.768 70.32C503.213 70.32 502.936 70.1707 502.936 69.872C502.509 67.7813 501.869 66.6293 501.016 66.416C499.48 66.0747 497.155 65.8613 494.04 65.776H492.824C492.397 65.8187 492.184 66.16 492.184 66.8V87.152C492.184 90.3947 492.611 92.016 493.464 92.016H496.664C497.005 92.016 497.176 92.3573 497.176 93.04C497.176 93.68 497.048 94 496.792 94L489.368 93.936L482.968 94.128C482.669 94.128 482.52 93.808 482.52 93.168C482.52 92.528 482.648 92.208 482.904 92.208H485.784C486.253 92.208 486.531 92.1227 486.616 91.952C486.701 91.7387 486.744 91.2053 486.744 90.352V70.896C486.744 67.696 486.36 65.9893 485.592 65.776C482.136 65.776 479.555 65.9893 477.848 66.416C476.995 66.6293 476.355 67.7813 475.928 69.872C475.928 70.1707 475.629 70.32 475.032 70.32C474.477 70.32 474.2 70.192 474.2 69.936L474.52 62.256C474.52 62 474.797 61.872 475.352 61.872C475.949 61.872 476.248 62 476.248 62.256V63.088C476.248 63.088 479.043 63.1307 484.632 63.216H489.368C495.853 63.216 500.205 63.1733 502.424 63.088H502.616V62.256C502.616 62 502.893 61.872 503.448 61.872C504.045 61.872 504.344 62 504.344 62.256L504.664 69.936ZM531.197 69.488C531.197 69.7013 530.898 69.808 530.301 69.808C529.704 69.808 529.405 69.68 529.405 69.424C528.808 67.4613 528.232 66.352 527.677 66.096C525.885 65.456 523.24 65.136 519.741 65.136C519.144 65.1787 518.738 65.3493 518.525 65.648C518.312 65.9467 518.205 66.48 518.205 67.248V77.744C523.453 77.5733 526.333 77.3387 526.845 77.04L527.293 74.352C527.378 74.1387 527.677 74.032 528.189 74.032C528.744 74.032 529.021 74.1813 529.021 74.48C528.85 75.7173 528.765 77.104 528.765 78.64C528.765 80.1333 528.85 81.4987 529.021 82.736C529.021 82.992 528.722 83.12 528.125 83.12C527.57 83.12 527.293 83.0347 527.293 82.864L526.781 80.112C526.269 79.8133 523.41 79.5787 518.205 79.408V87.152C518.205 90.3947 518.632 92.016 519.485 92.016H522.685C523.026 92.016 523.197 92.3573 523.197 93.04C523.197 93.68 523.069 94 522.813 94L515.389 93.936L508.989 94.128C508.69 94.128 508.541 93.808 508.541 93.168C508.541 92.528 508.669 92.208 508.925 92.208H511.805C512.274 92.208 512.552 92.1227 512.637 91.952C512.722 91.7387 512.765 91.2053 512.765 90.352V70.192C512.765 66.7787 512.338 65.072 511.485 65.072H509.181C508.669 65.072 508.413 64.752 508.413 64.112C508.413 63.4293 508.648 63.088 509.117 63.088L515.645 63.216H529.021V62.192C529.021 61.936 529.298 61.808 529.853 61.808C530.45 61.808 530.749 61.936 530.749 62.192L531.197 69.488ZM540.595 67.184C544.051 63.984 548.062 62.384 552.627 62.384C557.193 62.384 561.182 63.984 564.595 67.184C568.051 70.384 569.779 74.1813 569.779 78.576C569.779 82.928 568.051 86.7253 564.595 89.968C561.182 93.2107 557.193 94.832 552.627 94.832C548.062 94.832 544.051 93.2107 540.595 89.968C537.182 86.7253 535.475 82.928 535.475 78.576C535.475 74.1813 537.182 70.384 540.595 67.184ZM560.371 68.72C558.366 66.032 555.785 64.688 552.627 64.688C549.47 64.688 546.889 66.032 544.883 68.72C542.878 71.3653 541.875 74.6507 541.875 78.576C541.875 82.4587 542.878 85.7653 544.883 88.496C546.889 91.184 549.47 92.528 552.627 92.528C555.785 92.528 558.366 91.184 560.371 88.496C562.377 85.7653 563.379 82.4587 563.379 78.576C563.379 74.6507 562.377 71.3653 560.371 68.72ZM582.087 94L575.239 94.128C574.94 94.128 574.791 93.808 574.791 93.168C574.791 92.528 574.898 92.208 575.111 92.208H578.247C578.759 92.208 579.015 91.8453 579.015 91.12V70.128C579.015 66.7573 578.546 65.072 577.607 65.072H575.367C574.898 65.072 574.663 64.752 574.663 64.112C574.663 63.4293 574.855 63.088 575.239 63.088C579.036 63.1733 582.919 63.216 586.887 63.216C590.855 63.216 593.927 64.0693 596.103 65.776C598.322 67.44 599.431 69.5093 599.431 71.984C599.431 74.416 598.556 76.3787 596.807 77.872C595.058 79.3653 592.946 80.2187 590.471 80.432C591.708 81.2853 593.308 82.992 595.271 85.552C595.996 86.5333 597.127 87.664 598.663 88.944C600.199 90.1813 601.927 91.2907 603.847 92.272C602.994 93.9787 601.692 94.832 599.943 94.832C598.194 94.832 596.658 94.192 595.335 92.912C594.012 91.632 592.988 90.224 592.263 88.688C591.538 87.1093 590.727 85.488 589.831 83.824C588.978 82.16 588.167 81.072 587.399 80.56L584.455 80.368V87.792C584.455 90.608 584.882 92.016 585.735 92.016H588.423C588.764 92.016 588.935 92.3573 588.935 93.04C588.935 93.68 588.828 94 588.615 94H582.087ZM585.735 65.136C584.882 65.136 584.455 65.84 584.455 67.248V77.872C585.052 78 585.65 78.064 586.247 78.064C588.167 78.064 589.831 77.5307 591.239 76.464C592.647 75.3973 593.351 73.9467 593.351 72.112C593.351 70.2773 592.711 68.656 591.431 67.248C590.194 65.84 588.295 65.136 585.735 65.136ZM613.149 94L606.301 94.128C606.003 94.128 605.853 93.808 605.853 93.168C605.853 92.528 605.96 92.208 606.173 92.208H609.309C609.821 92.208 610.077 91.8453 610.077 91.12V70.128C610.077 66.7573 609.608 65.072 608.669 65.072H606.429C605.96 65.072 605.725 64.752 605.725 64.112C605.725 63.4293 605.917 63.088 606.301 63.088C608.52 63.1733 610.76 63.216 613.021 63.216H619.229C624.776 63.216 629.256 64.7307 632.669 67.76C636.125 70.7467 637.853 74.48 637.853 78.96C637.853 83.44 636.168 87.0667 632.797 89.84C629.469 92.6133 625.245 94 620.125 94H613.149ZM617.053 65.136C616.029 65.136 615.517 65.7547 615.517 66.992V86.96C615.517 90.288 615.965 91.952 616.861 91.952H619.165C623.091 91.952 626.099 90.8427 628.189 88.624C630.323 86.4053 631.389 83.312 631.389 79.344C631.389 75.3333 630.237 72.0053 627.933 69.36C625.629 66.7147 622.067 65.3067 617.245 65.136C617.16 65.136 617.096 65.136 617.053 65.136ZM414.482 135.088L419.538 135.216C420.008 135.216 420.413 135.216 420.754 135.216L427.41 135.088C427.709 135.088 427.858 135.408 427.858 136.048C427.858 136.645 427.688 136.944 427.346 136.944H424.402C423.848 136.944 423.57 137.285 423.57 137.968V159.152C423.57 162.395 423.997 164.016 424.85 164.016H428.05C428.392 164.016 428.562 164.357 428.562 165.04C428.562 165.68 428.434 166 428.178 166L420.754 165.936L414.354 166.128C414.056 166.128 413.906 165.808 413.906 165.168C413.906 164.528 414.034 164.208 414.29 164.208H417.17C417.64 164.208 417.917 164.123 418.002 163.952C418.088 163.739 418.13 163.205 418.13 162.352V151.92H402.642V159.152C402.642 162.395 403.069 164.016 403.922 164.016H407.122C407.464 164.016 407.634 164.357 407.634 165.04C407.634 165.68 407.506 166 407.25 166L399.826 165.936L393.426 166.128C393.128 166.128 392.978 165.808 392.978 165.168C392.978 164.528 393.106 164.208 393.362 164.208H396.242C396.712 164.208 396.989 164.123 397.074 163.952C397.16 163.739 397.202 163.205 397.202 162.352V142.192C397.202 138.779 396.776 137.072 395.922 137.072H393.618C393.106 137.072 392.85 136.752 392.85 136.112C392.85 135.429 393.085 135.088 393.554 135.088L398.61 135.216C399.08 135.216 399.485 135.216 399.826 135.216L406.482 135.088C406.781 135.088 406.93 135.408 406.93 136.048C406.93 136.645 406.76 136.944 406.418 136.944H403.474C402.92 136.944 402.642 137.285 402.642 137.968V149.488H418.13V142.192C418.13 138.779 417.704 137.072 416.85 137.072H414.546C414.034 137.072 413.778 136.752 413.778 136.112C413.778 135.429 414.013 135.088 414.482 135.088ZM434.117 135.088L439.173 135.216C439.642 135.216 440.048 135.216 440.389 135.216L447.045 135.088C447.344 135.088 447.493 135.408 447.493 136.048C447.493 136.645 447.322 136.944 446.981 136.944H444.037C443.482 136.944 443.205 137.285 443.205 137.968V159.152C443.205 162.395 443.632 164.016 444.485 164.016H447.685C448.026 164.016 448.197 164.357 448.197 165.04C448.197 165.68 448.069 166 447.813 166L440.389 165.936L433.989 166.128C433.69 166.128 433.541 165.808 433.541 165.168C433.541 164.528 433.669 164.208 433.925 164.208H436.805C437.274 164.208 437.552 164.123 437.637 163.952C437.722 163.739 437.765 163.205 437.765 162.352V142.192C437.765 138.779 437.338 137.072 436.485 137.072H434.181C433.669 137.072 433.413 136.752 433.413 136.112C433.413 135.429 433.648 135.088 434.117 135.088ZM460.462 166L453.614 166.128C453.315 166.128 453.166 165.808 453.166 165.168C453.166 164.528 453.273 164.208 453.486 164.208H456.622C457.134 164.208 457.39 163.845 457.39 163.12V142.128C457.39 138.757 456.921 137.072 455.982 137.072H453.742C453.273 137.072 453.038 136.752 453.038 136.112C453.038 135.429 453.23 135.088 453.614 135.088C457.411 135.173 461.294 135.216 465.262 135.216C469.23 135.216 472.302 136.027 474.478 137.648C476.654 139.269 477.742 141.36 477.742 143.92C477.742 145.883 476.846 147.76 475.054 149.552C473.262 151.301 470.894 152.176 467.95 152.176C466.03 152.176 464.323 151.92 462.83 151.408V159.792C462.83 162.608 463.257 164.016 464.11 164.016H467.31C467.651 164.016 467.822 164.357 467.822 165.04C467.822 165.68 467.715 166 467.502 166H460.462ZM464.11 137.136C463.257 137.136 462.83 137.84 462.83 139.248V149.232C463.299 149.317 464.003 149.36 464.942 149.36C466.99 149.36 468.611 148.805 469.806 147.696C471.043 146.544 471.662 145.157 471.662 143.536C471.662 141.915 471.043 140.443 469.806 139.12C468.569 137.797 466.67 137.136 464.11 137.136ZM488.962 166L482.114 166.128C481.815 166.128 481.666 165.808 481.666 165.168C481.666 164.528 481.773 164.208 481.986 164.208H485.122C485.634 164.208 485.89 163.845 485.89 163.12V142.128C485.89 138.757 485.421 137.072 484.482 137.072H482.242C481.773 137.072 481.538 136.752 481.538 136.112C481.538 135.429 481.73 135.088 482.114 135.088C485.911 135.173 489.773 135.216 493.698 135.216C497.623 135.216 500.653 135.984 502.786 137.52C504.962 139.056 506.05 140.912 506.05 143.088C506.05 144.667 505.325 146.096 503.874 147.376C502.466 148.656 500.781 149.488 498.818 149.872V150C501.634 150.512 503.938 151.515 505.73 153.008C507.565 154.459 508.482 156.208 508.482 158.256C508.482 160.261 507.202 162.053 504.642 163.632C502.082 165.211 498.754 166 494.658 166H488.962ZM501.634 157.936C501.634 153.755 498.199 151.472 491.33 151.088V159.792C491.33 162.565 491.757 163.952 492.61 163.952H494.338C496.685 163.952 498.477 163.397 499.714 162.288C500.994 161.179 501.634 159.728 501.634 157.936ZM492.61 137.136C491.757 137.136 491.33 137.84 491.33 139.248V148.784C491.799 148.869 492.503 148.912 493.442 148.912C495.533 148.912 497.154 148.379 498.306 147.312C499.458 146.245 500.034 144.923 500.034 143.344C500.034 141.723 499.437 140.293 498.242 139.056C497.047 137.776 495.17 137.136 492.61 137.136ZM521.837 166L514.989 166.128C514.69 166.128 514.541 165.808 514.541 165.168C514.541 164.528 514.648 164.208 514.861 164.208H517.997C518.509 164.208 518.765 163.845 518.765 163.12V142.128C518.765 138.757 518.296 137.072 517.357 137.072H515.117C514.648 137.072 514.413 136.752 514.413 136.112C514.413 135.429 514.605 135.088 514.989 135.088C518.786 135.173 522.669 135.216 526.637 135.216C530.605 135.216 533.677 136.069 535.853 137.776C538.072 139.44 539.181 141.509 539.181 143.984C539.181 146.416 538.306 148.379 536.557 149.872C534.808 151.365 532.696 152.219 530.221 152.432C531.458 153.285 533.058 154.992 535.021 157.552C535.746 158.533 536.877 159.664 538.413 160.944C539.949 162.181 541.677 163.291 543.597 164.272C542.744 165.979 541.442 166.832 539.693 166.832C537.944 166.832 536.408 166.192 535.085 164.912C533.762 163.632 532.738 162.224 532.013 160.688C531.288 159.109 530.477 157.488 529.581 155.824C528.728 154.16 527.917 153.072 527.149 152.56L524.205 152.368V159.792C524.205 162.608 524.632 164.016 525.485 164.016H528.173C528.514 164.016 528.685 164.357 528.685 165.04C528.685 165.68 528.578 166 528.365 166H521.837ZM525.485 137.136C524.632 137.136 524.205 137.84 524.205 139.248V149.872C524.802 150 525.4 150.064 525.997 150.064C527.917 150.064 529.581 149.531 530.989 148.464C532.397 147.397 533.101 145.947 533.101 144.112C533.101 142.277 532.461 140.656 531.181 139.248C529.944 137.84 528.045 137.136 525.485 137.136ZM551.533 139.184C554.989 135.984 559 134.384 563.565 134.384C568.13 134.384 572.12 135.984 575.533 139.184C578.989 142.384 580.717 146.181 580.717 150.576C580.717 154.928 578.989 158.725 575.533 161.968C572.12 165.211 568.13 166.832 563.565 166.832C559 166.832 554.989 165.211 551.533 161.968C548.12 158.725 546.413 154.928 546.413 150.576C546.413 146.181 548.12 142.384 551.533 139.184ZM571.309 140.72C569.304 138.032 566.722 136.688 563.565 136.688C560.408 136.688 557.826 138.032 555.821 140.72C553.816 143.365 552.813 146.651 552.813 150.576C552.813 154.459 553.816 157.765 555.821 160.496C557.826 163.184 560.408 164.528 563.565 164.528C566.722 164.528 569.304 163.184 571.309 160.496C573.314 157.765 574.317 154.459 574.317 150.576C574.317 146.651 573.314 143.365 571.309 140.72ZM586.304 135.088L591.36 135.216C591.83 135.216 592.235 135.216 592.576 135.216L599.232 135.088C599.531 135.088 599.68 135.408 599.68 136.048C599.68 136.645 599.51 136.944 599.168 136.944H596.224C595.67 136.944 595.392 137.285 595.392 137.968V159.152C595.392 162.395 595.819 164.016 596.672 164.016H599.872C600.214 164.016 600.384 164.357 600.384 165.04C600.384 165.68 600.256 166 600 166L592.576 165.936L586.176 166.128C585.878 166.128 585.728 165.808 585.728 165.168C585.728 164.528 585.856 164.208 586.112 164.208H588.992C589.462 164.208 589.739 164.123 589.824 163.952C589.91 163.739 589.952 163.205 589.952 162.352V142.192C589.952 138.779 589.526 137.072 588.672 137.072H586.368C585.856 137.072 585.6 136.752 585.6 136.112C585.6 135.429 585.835 135.088 586.304 135.088ZM614.336 165.936L606.4 166.064C606.144 166.064 606.016 165.808 606.016 165.296C606.016 164.741 606.144 164.464 606.4 164.464H607.168C607.894 164.464 608.256 164.251 608.256 163.824C608.256 163.568 608.043 163.205 607.616 162.736C605.91 160.731 602.368 156.869 596.992 151.152H595.264V149.232H596.672C603.712 142.491 607.232 138.523 607.232 137.328C607.232 136.859 606.976 136.624 606.464 136.624H605.184C604.971 136.624 604.864 136.368 604.864 135.856C604.864 135.344 604.971 135.088 605.184 135.088L610.752 135.152L615.68 135.088C615.936 135.088 616.064 135.344 616.064 135.856C616.064 136.368 615.936 136.624 615.68 136.624H614.08C613.654 136.624 612.395 137.669 610.304 139.76C605.526 144.325 602.39 147.205 600.896 148.4V148.72L610.816 159.024C614.23 162.437 616.235 164.144 616.832 164.144H618.496C618.923 164.229 619.136 164.571 619.136 165.168C619.136 165.723 618.966 166 618.624 166L614.336 165.936ZM622.617 135.088L627.673 135.216C628.142 135.216 628.548 135.216 628.889 135.216L635.545 135.088C635.844 135.088 635.993 135.408 635.993 136.048C635.993 136.645 635.822 136.944 635.481 136.944H632.537C631.982 136.944 631.705 137.285 631.705 137.968V159.152C631.705 162.395 632.132 164.016 632.985 164.016H636.185C636.526 164.016 636.697 164.357 636.697 165.04C636.697 165.68 636.569 166 636.313 166L628.889 165.936L622.489 166.128C622.19 166.128 622.041 165.808 622.041 165.168C622.041 164.528 622.169 164.208 622.425 164.208H625.305C625.774 164.208 626.052 164.123 626.137 163.952C626.222 163.739 626.265 163.205 626.265 162.352V142.192C626.265 138.779 625.838 137.072 624.985 137.072H622.681C622.169 137.072 621.913 136.752 621.913 136.112C621.913 135.429 622.148 135.088 622.617 135.088ZM671.042 135.216L676.93 135.088C677.186 135.088 677.314 135.408 677.314 136.048C677.314 136.645 677.186 136.944 676.93 136.944H674.69C674.093 136.944 673.709 137.093 673.538 137.392C672.77 138.715 672.386 148.315 672.386 166.192C672.386 166.619 672.023 166.832 671.298 166.832C670.615 166.832 670.125 166.683 669.826 166.384C661.293 156.229 654.423 147.995 649.218 141.68H649.026C649.154 149.232 649.282 155.547 649.41 160.624C649.41 162.843 649.73 163.952 650.37 163.952H652.93C653.186 163.952 653.314 164.293 653.314 164.976C653.314 165.616 653.186 165.936 652.93 165.936H647.618L641.794 166.064C641.581 166.064 641.474 165.765 641.474 165.168C641.474 164.528 641.581 164.208 641.794 164.208H643.33C644.653 164.208 645.335 163.781 645.378 162.928C646.018 156.016 646.338 147.931 646.338 138.672C645.655 137.861 645.079 137.392 644.61 137.264C644.141 137.136 643.266 137.072 641.986 137.072C641.73 137.072 641.602 136.752 641.602 136.112C641.602 135.429 641.73 135.088 641.986 135.088L651.01 135.216C661.378 148.357 667.479 156.144 669.314 158.576H669.442C669.271 147.397 669.122 141.019 668.994 139.44C668.866 137.861 668.525 137.072 667.97 137.072H665.73C665.431 137.072 665.282 136.752 665.282 136.112C665.282 135.429 665.431 135.088 665.73 135.088L671.042 135.216ZM708.605 152.624L715.197 152.496C715.496 152.496 715.645 152.816 715.645 153.456C715.645 154.096 715.496 154.416 715.197 154.416H713.789C713.021 154.416 712.488 154.565 712.189 154.864C711.933 155.163 711.805 155.717 711.805 156.528C711.805 161.221 711.912 164.229 712.125 165.552C712.381 166.875 712.509 167.621 712.509 167.792C712.509 168.176 712.296 168.368 711.869 168.368C711.528 168.368 711.123 167.771 710.653 166.576C710.227 165.424 709.821 164.848 709.437 164.848C709.352 164.848 708.861 165.019 707.965 165.36C705.405 166.341 702.931 166.832 700.541 166.832C695.123 166.832 690.643 165.509 687.101 162.864C683.603 160.219 681.853 156.357 681.853 151.28C681.853 146.203 683.731 142.128 687.485 139.056C691.283 135.941 695.805 134.384 701.053 134.384C703.357 134.384 705.875 134.96 708.605 136.112V135.088C708.605 134.747 708.883 134.576 709.437 134.576C709.992 134.576 710.269 134.747 710.269 135.088C710.269 137.733 710.419 140.08 710.717 142.128C710.76 142.256 710.675 142.384 710.461 142.512C710.291 142.597 710.013 142.64 709.629 142.64C709.245 142.64 709.011 142.491 708.925 142.192L708.605 140.144C706.088 137.883 703.208 136.752 699.965 136.752C696.765 136.752 694.013 137.989 691.709 140.464C689.448 142.939 688.317 146.267 688.317 150.448C688.317 154.629 689.469 158.021 691.773 160.624C694.077 163.227 696.979 164.528 700.477 164.528C701.587 164.528 702.632 164.4 703.613 164.144C704.595 163.845 705.299 163.547 705.725 163.248L706.365 162.8V158.512C706.365 155.781 706.045 154.416 705.405 154.416H700.477C700.179 154.416 700.029 154.117 700.029 153.52C700.029 152.88 700.179 152.56 700.477 152.56L708.605 152.624ZM419.166 206.96L420.51 214C420.51 214.341 420.254 214.512 419.742 214.512C419.23 214.512 418.91 214.341 418.782 214C418.228 212.421 417.353 211.12 416.158 210.096C414.964 209.072 413.662 208.56 412.254 208.56C410.889 208.517 409.673 208.901 408.606 209.712C407.582 210.523 407.07 211.525 407.07 212.72C407.07 213.872 407.412 214.939 408.094 215.92C408.82 216.859 409.694 217.669 410.718 218.352C411.742 219.035 412.873 219.824 414.11 220.72C415.348 221.573 416.478 222.427 417.502 223.28C418.526 224.133 419.38 225.243 420.062 226.608C420.788 227.973 421.15 229.445 421.15 231.024C421.15 233.499 420.062 235.419 417.886 236.784C415.71 238.149 413.342 238.832 410.782 238.832C408.265 238.832 405.94 238.341 403.806 237.36C403.806 237.872 403.764 238.192 403.678 238.32C403.636 238.448 403.422 238.533 403.038 238.576H402.782C402.441 238.576 402.249 238.405 402.206 238.064C402.121 237.04 401.95 235.632 401.694 233.84C401.438 232.048 401.246 230.597 401.118 229.488C401.118 229.061 401.374 228.848 401.886 228.848C402.441 228.848 402.74 228.955 402.782 229.168C403.38 231.259 404.425 233.072 405.918 234.608C407.412 236.101 408.969 236.848 410.59 236.848C412.212 236.848 413.556 236.464 414.622 235.696C415.689 234.885 416.222 233.776 416.222 232.368C416.222 230.96 415.732 229.68 414.75 228.528C413.812 227.333 412.66 226.267 411.294 225.328C409.929 224.389 408.564 223.451 407.198 222.512C405.833 221.531 404.66 220.336 403.678 218.928C402.74 217.52 402.27 215.984 402.27 214.32C402.27 211.931 403.273 210.032 405.278 208.624C407.326 207.216 409.737 206.512 412.51 206.512C414.089 206.512 415.774 206.811 417.566 207.408C417.481 207.152 417.438 206.853 417.438 206.512C417.438 206.128 417.63 205.936 418.014 205.936C418.441 205.936 418.718 206 418.846 206.128C418.974 206.213 419.081 206.491 419.166 206.96ZM444.791 206.96L446.135 214C446.135 214.341 445.879 214.512 445.367 214.512C444.855 214.512 444.535 214.341 444.407 214C443.853 212.421 442.978 211.12 441.783 210.096C440.589 209.072 439.287 208.56 437.879 208.56C436.514 208.517 435.298 208.901 434.231 209.712C433.207 210.523 432.695 211.525 432.695 212.72C432.695 213.872 433.037 214.939 433.719 215.92C434.445 216.859 435.319 217.669 436.343 218.352C437.367 219.035 438.498 219.824 439.735 220.72C440.973 221.573 442.103 222.427 443.127 223.28C444.151 224.133 445.005 225.243 445.687 226.608C446.413 227.973 446.775 229.445 446.775 231.024C446.775 233.499 445.687 235.419 443.511 236.784C441.335 238.149 438.967 238.832 436.407 238.832C433.89 238.832 431.565 238.341 429.431 237.36C429.431 237.872 429.389 238.192 429.303 238.32C429.261 238.448 429.047 238.533 428.663 238.576H428.407C428.066 238.576 427.874 238.405 427.831 238.064C427.746 237.04 427.575 235.632 427.319 233.84C427.063 232.048 426.871 230.597 426.743 229.488C426.743 229.061 426.999 228.848 427.511 228.848C428.066 228.848 428.365 228.955 428.407 229.168C429.005 231.259 430.05 233.072 431.543 234.608C433.037 236.101 434.594 236.848 436.215 236.848C437.837 236.848 439.181 236.464 440.247 235.696C441.314 234.885 441.847 233.776 441.847 232.368C441.847 230.96 441.357 229.68 440.375 228.528C439.437 227.333 438.285 226.267 436.919 225.328C435.554 224.389 434.189 223.451 432.823 222.512C431.458 221.531 430.285 220.336 429.303 218.928C428.365 217.52 427.895 215.984 427.895 214.32C427.895 211.931 428.898 210.032 430.903 208.624C432.951 207.216 435.362 206.512 438.135 206.512C439.714 206.512 441.399 206.811 443.191 207.408C443.106 207.152 443.063 206.853 443.063 206.512C443.063 206.128 443.255 205.936 443.639 205.936C444.066 205.936 444.343 206 444.471 206.128C444.599 206.213 444.706 206.491 444.791 206.96ZM456.72 211.184C460.176 207.984 464.187 206.384 468.752 206.384C473.318 206.384 477.307 207.984 480.72 211.184C484.176 214.384 485.904 218.181 485.904 222.576C485.904 226.928 484.176 230.725 480.72 233.968C477.307 237.211 473.318 238.832 468.752 238.832C464.187 238.832 460.176 237.211 456.72 233.968C453.307 230.725 451.6 226.928 451.6 222.576C451.6 218.181 453.307 214.384 456.72 211.184ZM476.496 212.72C474.491 210.032 471.91 208.688 468.752 208.688C465.595 208.688 463.014 210.032 461.008 212.72C459.003 215.365 458 218.651 458 222.576C458 226.459 459.003 229.765 461.008 232.496C463.014 235.184 465.595 236.528 468.752 236.528C471.91 236.528 474.491 235.184 476.496 232.496C478.502 229.765 479.504 226.459 479.504 222.576C479.504 218.651 478.502 215.365 476.496 212.72ZM508.964 238.832C503.759 238.832 499.449 237.445 496.036 234.672C492.623 231.899 490.916 228.101 490.916 223.28C490.916 218.416 492.751 214.384 496.42 211.184C500.089 207.984 504.463 206.384 509.54 206.384C512.015 206.384 514.447 207.003 516.836 208.24V207.152C516.836 206.853 517.092 206.704 517.604 206.704C518.159 206.704 518.436 206.853 518.436 207.152C518.436 209.84 518.649 212.635 519.076 215.536C519.119 215.664 519.033 215.792 518.82 215.92C518.649 216.005 518.372 216.048 517.988 216.048C517.604 216.048 517.369 215.877 517.284 215.536L516.772 212.144C514.383 209.883 511.631 208.752 508.516 208.752C505.444 208.752 502.799 210.075 500.58 212.72C498.404 215.365 497.316 218.672 497.316 222.64C497.316 226.608 498.468 229.915 500.772 232.56C503.076 235.163 505.785 236.464 508.9 236.464C512.015 236.464 514.959 235.547 517.732 233.712L518.052 230.064C518.052 229.723 518.351 229.552 518.948 229.552C519.545 229.552 519.844 229.701 519.844 230L519.46 238.128C519.46 238.384 519.161 238.512 518.564 238.512C518.009 238.512 517.732 238.384 517.732 238.128V237.04C514.788 238.235 511.865 238.832 508.964 238.832ZM525.117 207.088L530.173 207.216C530.642 207.216 531.048 207.216 531.389 207.216L538.045 207.088C538.344 207.088 538.493 207.408 538.493 208.048C538.493 208.645 538.322 208.944 537.981 208.944H535.037C534.482 208.944 534.205 209.285 534.205 209.968V231.152C534.205 234.395 534.632 236.016 535.485 236.016H538.685C539.026 236.016 539.197 236.357 539.197 237.04C539.197 237.68 539.069 238 538.813 238L531.389 237.936L524.989 238.128C524.69 238.128 524.541 237.808 524.541 237.168C524.541 236.528 524.669 236.208 524.925 236.208H527.805C528.274 236.208 528.552 236.123 528.637 235.952C528.722 235.739 528.765 235.205 528.765 234.352V214.192C528.765 210.779 528.338 209.072 527.485 209.072H525.181C524.669 209.072 524.413 208.752 524.413 208.112C524.413 207.429 524.648 207.088 525.117 207.088ZM544.806 238L539.75 238.128C539.451 238.128 539.302 237.851 539.302 237.296C539.302 236.741 539.451 236.464 539.75 236.464H541.798C542.267 236.464 542.609 236.272 542.822 235.888C543.803 234.267 545.766 229.957 548.71 222.96C551.654 215.92 553.766 210.587 555.046 206.96C555.217 206.576 555.622 206.384 556.262 206.384C556.945 206.384 557.371 206.597 557.542 207.024C558.054 209.157 559.547 213.189 562.022 219.12C564.539 225.051 566.737 230 568.614 233.968C569.126 234.992 569.595 235.653 570.022 235.952C570.449 236.251 571.11 236.4 572.006 236.4C572.262 236.4 572.39 236.699 572.39 237.296C572.39 237.851 572.283 238.128 572.07 238.128L565.926 238L559.014 238.128C558.758 238.128 558.63 237.851 558.63 237.296C558.63 236.741 558.758 236.464 559.014 236.464H562.086C562.555 236.464 562.79 236.272 562.79 235.888C562.79 235.845 561.595 232.56 559.206 226.032H550.31C548.219 231.195 547.174 234.224 547.174 235.12C547.174 235.973 547.43 236.4 547.942 236.4H550.566C550.907 236.4 551.078 236.699 551.078 237.296C551.078 237.851 550.95 238.128 550.694 238.128L544.806 238ZM558.374 223.856C558.246 223.472 557.137 220.229 555.046 214.128H554.854C553.83 217.072 552.614 220.315 551.206 223.856H558.374ZM603.289 213.936C603.289 214.192 602.99 214.32 602.393 214.32C601.838 214.32 601.561 214.171 601.561 213.872C601.134 211.781 600.494 210.629 599.641 210.416C598.105 210.075 595.78 209.861 592.665 209.776H591.449C591.022 209.819 590.809 210.16 590.809 210.8V231.152C590.809 234.395 591.236 236.016 592.089 236.016H595.289C595.63 236.016 595.801 236.357 595.801 237.04C595.801 237.68 595.673 238 595.417 238L587.993 237.936L581.593 238.128C581.294 238.128 581.145 237.808 581.145 237.168C581.145 236.528 581.273 236.208 581.529 236.208H584.409C584.878 236.208 585.156 236.123 585.241 235.952C585.326 235.739 585.369 235.205 585.369 234.352V214.896C585.369 211.696 584.985 209.989 584.217 209.776C580.761 209.776 578.18 209.989 576.473 210.416C575.62 210.629 574.98 211.781 574.553 213.872C574.553 214.171 574.254 214.32 573.657 214.32C573.102 214.32 572.825 214.192 572.825 213.936L573.145 206.256C573.145 206 573.422 205.872 573.977 205.872C574.574 205.872 574.873 206 574.873 206.256V207.088C574.873 207.088 577.668 207.131 583.257 207.216H587.993C594.478 207.216 598.83 207.173 601.049 207.088H601.241V206.256C601.241 206 601.518 205.872 602.073 205.872C602.67 205.872 602.969 206 602.969 206.256L603.289 213.936ZM607.742 207.088L612.798 207.216C613.267 207.216 613.673 207.216 614.014 207.216L620.67 207.088C620.969 207.088 621.118 207.408 621.118 208.048C621.118 208.645 620.947 208.944 620.606 208.944H617.662C617.107 208.944 616.83 209.285 616.83 209.968V231.152C616.83 234.395 617.257 236.016 618.11 236.016H621.31C621.651 236.016 621.822 236.357 621.822 237.04C621.822 237.68 621.694 238 621.438 238L614.014 237.936L607.614 238.128C607.315 238.128 607.166 237.808 607.166 237.168C607.166 236.528 607.294 236.208 607.55 236.208H610.43C610.899 236.208 611.177 236.123 611.262 235.952C611.347 235.739 611.39 235.205 611.39 234.352V214.192C611.39 210.779 610.963 209.072 610.11 209.072H607.806C607.294 209.072 607.038 208.752 607.038 208.112C607.038 207.429 607.273 207.088 607.742 207.088ZM631.783 211.184C635.239 207.984 639.25 206.384 643.815 206.384C648.38 206.384 652.37 207.984 655.783 211.184C659.239 214.384 660.967 218.181 660.967 222.576C660.967 226.928 659.239 230.725 655.783 233.968C652.37 237.211 648.38 238.832 643.815 238.832C639.25 238.832 635.239 237.211 631.783 233.968C628.37 230.725 626.663 226.928 626.663 222.576C626.663 218.181 628.37 214.384 631.783 211.184ZM651.559 212.72C649.554 210.032 646.972 208.688 643.815 208.688C640.658 208.688 638.076 210.032 636.071 212.72C634.066 215.365 633.063 218.651 633.063 222.576C633.063 226.459 634.066 229.765 636.071 232.496C638.076 235.184 640.658 236.528 643.815 236.528C646.972 236.528 649.554 235.184 651.559 232.496C653.564 229.765 654.567 226.459 654.567 222.576C654.567 218.651 653.564 215.365 651.559 212.72ZM695.354 207.216L701.242 207.088C701.498 207.088 701.626 207.408 701.626 208.048C701.626 208.645 701.498 208.944 701.242 208.944H699.002C698.405 208.944 698.021 209.093 697.85 209.392C697.082 210.715 696.698 220.315 696.698 238.192C696.698 238.619 696.336 238.832 695.61 238.832C694.928 238.832 694.437 238.683 694.138 238.384C685.605 228.229 678.736 219.995 673.53 213.68H673.338C673.466 221.232 673.594 227.547 673.722 232.624C673.722 234.843 674.042 235.952 674.682 235.952H677.242C677.498 235.952 677.626 236.293 677.626 236.976C677.626 237.616 677.498 237.936 677.242 237.936H671.93L666.106 238.064C665.893 238.064 665.786 237.765 665.786 237.168C665.786 236.528 665.893 236.208 666.106 236.208H667.642C668.965 236.208 669.648 235.781 669.69 234.928C670.33 228.016 670.65 219.931 670.65 210.672C669.968 209.861 669.392 209.392 668.922 209.264C668.453 209.136 667.578 209.072 666.298 209.072C666.042 209.072 665.914 208.752 665.914 208.112C665.914 207.429 666.042 207.088 666.298 207.088L675.322 207.216C685.69 220.357 691.792 228.144 693.626 230.576H693.754C693.584 219.397 693.434 213.019 693.306 211.44C693.178 209.861 692.837 209.072 692.282 209.072H690.042C689.744 209.072 689.594 208.752 689.594 208.112C689.594 207.429 689.744 207.088 690.042 207.088L695.354 207.216Z" fill="url(#paint0_linear)"/>
<g filter="url(#filter0_d)">
<path fill-rule="evenodd" clip-rule="evenodd" d="M79.2394 92.9986C84.7331 87.5051 91.3697 83.3781 98.7256 80.7669L99.5547 79.9379L75.4574 55.8416L75.4533 55.8457C75.3311 55.7178 75.2071 55.5909 75.0813 55.4651C66.7635 47.1476 53.6147 46.8104 45.7128 54.7121C37.8108 62.6137 38.148 75.7619 46.4658 84.0794C46.5916 84.2052 46.7185 84.3292 46.8465 84.4513L46.8419 84.456L69.3285 106.942C71.8391 101.78 75.163 97.0748 79.2394 92.9986ZM249.412 98.7645C262.195 111.546 269.356 128.902 269.32 147.013C269.285 165.125 262.056 182.508 249.224 195.34C236.392 208.172 219.008 215.4 200.895 215.435C184.57 215.467 168.858 209.653 156.557 199.145L156.409 199.292L152.774 195.657L152.645 195.528L152.645 195.528L121.016 163.901L121.021 163.896C120.893 163.774 120.766 163.65 120.64 163.524C112.322 155.206 111.985 142.058 119.887 134.157C127.789 126.255 140.938 126.592 149.256 134.91C149.382 135.036 149.506 135.163 149.628 135.291L149.632 135.286L181.26 166.914L181.264 166.91C186.485 172.132 193.575 175.057 200.974 175.042C208.373 175.028 215.474 172.075 220.716 166.833C225.958 161.592 228.911 154.49 228.926 147.092C228.94 139.693 226.015 132.604 220.793 127.382L220.796 127.38L177.482 84.0677C199.943 73.4144 228.8 78.3254 248.82 98.1731L249.251 98.6042C249.279 98.6319 249.306 98.6597 249.333 98.6874C249.359 98.7136 249.385 98.7398 249.411 98.766L249.412 98.7645ZM214.195 132.077C214.262 132.142 214.328 132.208 214.395 132.274C214.461 132.341 214.527 132.408 214.593 132.475L215.9 133.781L215.83 133.851C222.723 142.179 222.567 154.223 215.148 161.642C207.729 169.061 195.684 169.217 187.356 162.324L187.284 162.396L152.644 127.757L152.639 127.761C147.419 122.541 140.329 119.616 132.931 119.63C125.534 119.645 118.433 122.597 113.192 127.838C107.95 133.079 104.998 140.18 104.983 147.577C104.969 154.975 107.894 162.064 113.115 167.285L84.4933 195.905C71.7111 183.123 64.5499 165.767 64.5852 147.656C64.6205 129.545 71.8494 112.161 84.6816 99.3294C97.5138 86.4978 114.898 79.2692 133.01 79.2339C150.767 79.1993 167.796 86.0809 180.502 98.3944L180.507 98.39L180.875 98.7584C181.004 98.8854 181.133 99.013 181.261 99.1412L181.259 99.1427L214.195 132.077ZM84.4991 195.9L113.11 167.29L156.034 210.212C133.7 220.958 105.176 216.364 85.5076 196.918L84.9594 196.37C84.805 196.214 84.6516 196.057 84.4991 195.9ZM266.595 184.461C264.001 190.471 260.343 195.92 255.709 200.553C250.483 205.779 244.22 209.764 237.285 212.381L260.522 235.616L260.526 235.612C260.648 235.74 260.772 235.867 260.897 235.993C269.215 244.31 282.364 244.647 290.266 236.746C298.168 228.844 297.831 215.696 289.513 207.378C289.387 207.253 289.261 207.129 289.133 207.007L289.137 207.002L266.595 184.461Z" fill="url(#paint1_linear)"/>
</g>
<line x1="326.479" y1="49" x2="326.479" y2="243" stroke="url(#paint2_linear)"/>
<defs>
<filter id="filter0_d" x="36" y="48.9995" width="263.979" height="201.459" filterUnits="userSpaceOnUse" color-interpolation-filters="sRGB">
<feFlood flood-opacity="0" result="BackgroundImageFix"/>
<feColorMatrix in="SourceAlpha" type="matrix" values="0 0 0 0 0 0 0 0 0 0 0 0 0 0 0 0 0 0 127 0"/>
<feOffset dy="4"/>
<feGaussianBlur stdDeviation="2"/>
<feColorMatrix type="matrix" values="0 0 0 0 0 0 0 0 0 0 0 0 0 0 0 0 0 0 0.25 0"/>
<feBlend mode="normal" in2="BackgroundImageFix" result="effect1_dropShadow"/>
<feBlend mode="normal" in="SourceGraphic" in2="effect1_dropShadow" result="shape"/>
</filter>
<linearGradient id="paint0_linear" x1="355.981" y1="148.532" x2="824" y2="148.532" gradientUnits="userSpaceOnUse">
<stop stop-color="#314755"/>
<stop offset="1" stop-color="#26A0DA"/>
</linearGradient>
<linearGradient id="paint1_linear" x1="40" y1="146.206" x2="295.979" y2="146.206" gradientUnits="userSpaceOnUse">
<stop stop-color="#314755"/>
<stop offset="1" stop-color="#26A0DA"/>
</linearGradient>
<linearGradient id="paint2_linear" x1="325.477" y1="49" x2="325.477" y2="243" gradientUnits="userSpaceOnUse">
<stop stop-color="#314755"/>
<stop offset="1" stop-color="#26A0DA"/>
</linearGradient>
</defs>
</svg>
