<svg width="489" height="371" viewBox="0 0 489 371" fill="none" xmlns="http://www.w3.org/2000/svg">
<g clip-path="url(#clip0)" filter="url(#filter0_d)">
<path fill-rule="evenodd" clip-rule="evenodd" d="M77.6904 82.5479C88.0087 72.2402 100.474 64.497 114.29 59.5982L115.845 58.0449L70.5901 12.8368L70.5819 12.845C70.3524 12.6047 70.1194 12.3665 69.8829 12.1303C54.262 -3.47453 29.5685 -4.10704 14.7286 10.7175C-0.111295 25.5421 0.521869 50.21 16.1428 65.8148C16.3793 66.051 16.6178 66.2838 16.8583 66.5131L16.85 66.5214L59.0784 108.706C63.7931 99.0226 70.0353 90.195 77.6904 82.5479ZM397.273 93.3635C421.278 117.343 434.726 149.904 434.66 183.883C434.594 217.862 421.018 250.475 396.92 274.549C372.821 298.622 340.174 312.184 306.16 312.25C275.502 312.31 245.997 301.401 222.895 281.689L222.618 281.966L215.547 274.902L156.15 215.567L156.158 215.558C155.918 215.329 155.679 215.096 155.443 214.86C139.822 199.255 139.189 174.587 154.028 159.763C168.868 144.938 193.562 145.571 209.183 161.176C209.419 161.412 209.652 161.65 209.882 161.89L209.89 161.882L269.287 221.218L269.292 221.212C279.098 231.008 292.413 236.496 306.308 236.469C320.203 236.442 333.539 230.902 343.383 221.068C353.227 211.234 358.773 197.911 358.8 184.031C358.827 170.15 353.333 156.849 343.528 147.054L343.533 147.048L262.191 65.7899C304.524 45.732 358.954 55.0847 396.566 92.6573C396.802 92.893 397.036 93.1294 397.27 93.3664L397.273 93.3635ZM331.476 156.195L269.287 94.0698L269.14 93.9235L267.872 92.6572L267.862 92.6682C244 69.5671 212.019 56.6568 178.674 56.7217C144.66 56.7879 112.012 70.3495 87.9139 94.423C63.8155 118.496 50.2399 151.11 50.1736 185.089C50.1073 219.068 63.5557 251.628 87.5603 275.608L87.5709 275.598C87.9936 276.033 88.4201 276.466 88.8504 276.897L89.049 277.095C125.998 313.926 179.81 322.685 221.911 302.451L141.3 221.924L141.31 221.914C131.506 212.119 126.013 198.82 126.04 184.941C126.067 171.062 131.612 157.741 141.455 147.909C151.298 138.076 164.633 132.536 178.526 132.509C192.419 132.482 205.732 137.97 215.537 147.764L215.547 147.754L280.6 212.741L280.733 212.608C296.374 225.54 318.993 225.247 332.926 211.328C346.859 197.41 347.153 174.814 334.208 159.189L334.341 159.057L331.548 156.267L331.512 156.231L331.476 156.195ZM429.542 254.14C424.671 265.414 417.8 275.636 409.099 284.329C399.284 294.133 387.521 301.611 374.496 306.52L418.133 350.112L418.141 350.104C418.252 350.22 418.363 350.335 418.476 350.45C418.596 350.573 418.718 350.696 418.84 350.818C434.461 366.423 459.154 367.056 473.994 352.231C488.834 337.406 488.201 312.738 472.58 297.134C472.344 296.898 472.105 296.665 471.865 296.436L471.873 296.427L429.542 254.14Z" fill="url(#paint0_linear)"/>
</g>
<defs>
<filter id="filter0_d" x="0" y="0" width="488.723" height="370.948" filterUnits="userSpaceOnUse" color-interpolation-filters="sRGB">
<feFlood flood-opacity="0" result="BackgroundImageFix"/>
<feColorMatrix in="SourceAlpha" type="matrix" values="0 0 0 0 0 0 0 0 0 0 0 0 0 0 0 0 0 0 127 0"/>
<feOffset dy="4"/>
<feGaussianBlur stdDeviation="2"/>
<feColorMatrix type="matrix" values="0 0 0 0 0 0 0 0 0 0 0 0 0 0 0 0 0 0 0.25 0"/>
<feBlend mode="normal" in2="BackgroundImageFix" result="effect1_dropShadow"/>
<feBlend mode="normal" in="SourceGraphic" in2="effect1_dropShadow" result="shape"/>
</filter>
<linearGradient id="paint0_linear" x1="4" y1="182.369" x2="484.723" y2="182.369" gradientUnits="userSpaceOnUse">
<stop stop-color="#314755"/>
<stop offset="1" stop-color="#26A0DA"/>
</linearGradient>
<clipPath id="clip0">
<rect width="480.723" height="362.948" fill="white" transform="translate(4)"/>
</clipPath>
</defs>
</svg>
