<svg width="1080" height="552" viewBox="0 0 1080 552" fill="none" xmlns="http://www.w3.org/2000/svg">
<rect width="1080" height="552" fill="white"/>
<path d="M89.4 438.449L97.24 438.281C97.5387 438.281 97.688 438.598 97.688 439.233C97.688 439.867 97.5387 440.185 97.24 440.185H94.832C93.8987 440.185 93.2827 440.371 92.984 440.745C92.6853 441.081 92.536 441.753 92.536 442.761V469.305C92.536 472.59 92.928 474.233 93.712 474.233H96.96C97.2587 474.233 97.408 474.55 97.408 475.185C97.408 475.782 97.2587 476.081 96.96 476.081L89.904 476.025L82.064 476.193C81.7653 476.193 81.616 475.875 81.616 475.241C81.616 474.606 81.7653 474.289 82.064 474.289H84.472C85.4053 474.289 86.0213 474.121 86.32 473.785C86.6187 473.411 86.768 472.721 86.768 471.713V458.497H66.776V469.305C66.776 472.59 67.168 474.233 67.952 474.233H71.2C71.4987 474.233 71.648 474.55 71.648 475.185C71.648 475.782 71.4987 476.081 71.2 476.081L64.144 476.025L56.304 476.193C56.0053 476.193 55.856 475.875 55.856 475.241C55.856 474.606 56.0053 474.289 56.304 474.289H58.712C59.6453 474.289 60.2613 474.121 60.56 473.785C60.8587 473.411 61.008 472.721 61.008 471.713V445.169C61.008 441.883 60.616 440.241 59.832 440.241H56.584C56.2853 440.241 56.136 439.942 56.136 439.345C56.136 438.71 56.2853 438.393 56.584 438.393L63.64 438.449L71.48 438.281C71.7787 438.281 71.928 438.598 71.928 439.233C71.928 439.867 71.7787 440.185 71.48 440.185H69.072C68.1387 440.185 67.5227 440.371 67.224 440.745C66.9253 441.081 66.776 441.753 66.776 442.761V456.201H86.768V445.169C86.768 441.883 86.376 440.241 85.592 440.241H82.344C82.0453 440.241 81.896 439.942 81.896 439.345C81.896 438.71 82.0453 438.393 82.344 438.393L89.4 438.449ZM329.323 466.393C329.323 469.491 327.997 472.011 325.347 473.953C322.696 475.857 319.765 476.809 316.555 476.809C313.344 476.809 310.507 476.249 308.043 475.129L308.491 476.249C308.603 476.473 308.509 476.678 308.211 476.865C307.949 477.089 307.651 477.201 307.315 477.201C306.979 477.201 306.755 477.107 306.643 476.921C305.448 473.897 304.72 470.387 304.459 466.393C304.459 466.019 304.757 465.833 305.355 465.833C305.952 465.833 306.269 465.963 306.307 466.225C307.128 469.062 308.789 471.339 311.291 473.057C312.821 474.139 314.595 474.681 316.611 474.681C318.664 474.681 320.307 474.102 321.539 472.945C322.808 471.75 323.443 470.331 323.443 468.689C323.443 467.009 323.013 465.515 322.155 464.209C321.296 462.865 320.232 461.782 318.963 460.961C317.693 460.139 316.312 459.281 314.819 458.385C313.325 457.451 311.944 456.574 310.675 455.753C309.405 454.894 308.341 453.755 307.483 452.337C306.624 450.918 306.195 449.313 306.195 447.521C306.195 444.795 307.408 442.499 309.835 440.633C312.299 438.729 315.379 437.777 319.075 437.777C320.755 437.777 322.323 438.001 323.779 438.449L324.451 438.617C324.301 438.019 324.208 437.609 324.171 437.385C324.171 437.161 324.245 437.011 324.395 436.937C324.581 436.825 324.843 436.769 325.179 436.769C325.552 436.769 325.795 436.918 325.907 437.217C326.765 440.241 327.269 443.209 327.419 446.121C327.307 446.345 326.989 446.457 326.467 446.457C325.981 446.457 325.683 446.401 325.571 446.289C325.16 444.758 324.581 443.507 323.835 442.537C323.088 441.529 322.267 440.838 321.371 440.465C320.475 440.091 319.429 439.905 318.235 439.905C315.92 439.905 314.259 440.502 313.251 441.697C312.28 442.854 311.795 444.142 311.795 445.561C311.795 446.942 312.112 448.137 312.747 449.145C313.419 450.115 314.259 450.974 315.267 451.721C316.312 452.43 317.451 453.139 318.683 453.849C319.915 454.521 321.147 455.249 322.379 456.033C323.648 456.817 324.805 457.675 325.851 458.609C328.165 460.662 329.323 463.257 329.323 466.393ZM647.442 476.025L640.33 476.193C639.994 476.193 639.826 475.875 639.826 475.241C639.826 474.606 639.994 474.289 640.33 474.289H643.522C644.306 474.289 644.698 473.971 644.698 473.337C644.698 473.075 643.988 470.854 642.57 466.673C641.151 462.454 640.274 459.822 639.938 458.777H629.802C627.151 467.214 625.826 472.086 625.826 473.393C625.826 473.953 625.938 474.233 626.162 474.233H630.194C630.604 474.233 630.81 474.55 630.81 475.185C630.81 475.782 630.567 476.081 630.082 476.081L622.858 476.025L616.642 476.193C616.306 476.193 616.138 475.875 616.138 475.241C616.138 474.606 616.306 474.289 616.642 474.289H619.442C620.263 474.289 620.879 473.878 621.29 473.057C622.858 469.659 624.836 464.601 627.226 457.881C629.652 451.161 631.295 446.718 632.154 444.553C633.05 442.35 633.498 441.137 633.498 440.913C633.498 440.651 633.423 440.371 633.274 440.073C633.124 439.774 633.05 439.587 633.05 439.513C633.05 439.214 633.311 439.065 633.834 439.065C634.394 439.065 634.898 438.934 635.346 438.673C635.831 438.411 636.148 438.113 636.298 437.777C636.708 436.955 637.082 436.545 637.418 436.545C637.567 436.545 637.828 437.105 638.202 438.225L649.458 468.633C650.876 472.366 651.866 474.233 652.426 474.233H654.442C654.815 474.233 655.002 474.55 655.002 475.185C655.002 475.782 654.852 476.081 654.554 476.081L647.442 476.025ZM634.898 444.217C633.74 447.203 632.284 451.31 630.53 456.537H639.154C636.652 448.958 635.308 444.851 635.122 444.217H634.898ZM944.993 443.489C948.987 439.681 953.785 437.777 959.385 437.777C964.985 437.777 969.782 439.681 973.777 443.489C977.771 447.297 979.769 451.907 979.769 457.321C979.769 462.697 977.771 467.289 973.777 471.097C969.782 474.905 964.985 476.809 959.385 476.809C953.785 476.809 948.987 474.905 944.993 471.097C940.998 467.289 939.001 462.697 939.001 457.321C939.001 451.907 940.998 447.297 944.993 443.489ZM968.961 445.225C966.497 441.977 963.305 440.353 959.385 440.353C955.465 440.353 952.254 441.977 949.753 445.225C947.289 448.473 946.057 452.505 946.057 457.321C946.057 462.099 947.289 466.113 949.753 469.361C952.254 472.609 955.465 474.233 959.385 474.233C963.305 474.233 966.497 472.609 968.961 469.361C971.462 466.113 972.713 462.099 972.713 457.321C972.713 452.505 971.462 448.473 968.961 445.225ZM1017.8 438.449L1023.85 438.281C1024.15 438.281 1024.3 438.598 1024.3 439.233C1024.3 439.867 1024.15 440.185 1023.85 440.185H1022.17C1021.24 440.185 1020.62 440.371 1020.32 440.745C1020.06 441.081 1019.9 441.753 1019.82 442.761C1019.48 447.801 1019.32 454.147 1019.32 461.801C1019.32 466.505 1017.86 470.182 1014.95 472.833C1012.04 475.483 1008.56 476.809 1004.53 476.809C1000.54 476.809 997.085 475.577 994.173 473.113C991.298 470.611 989.861 467.102 989.861 462.585V445.169C989.861 441.883 989.469 440.241 988.685 440.241H985.437C985.138 440.241 984.989 439.942 984.989 439.345C984.989 438.71 985.138 438.393 985.437 438.393L992.493 438.449L1000.33 438.281C1000.63 438.281 1000.78 438.598 1000.78 439.233C1000.78 439.867 1000.63 440.185 1000.33 440.185H997.925C996.991 440.185 996.375 440.371 996.077 440.745C995.778 441.081 995.629 441.753 995.629 442.761V461.017C995.629 464.974 996.599 467.961 998.541 469.977C1000.52 471.955 1003.04 472.945 1006.1 472.945C1009.16 472.945 1011.59 471.843 1013.38 469.641C1015.21 467.401 1016.12 464.134 1016.12 459.841C1016.12 453.905 1016.05 449.163 1015.9 445.617C1015.75 442.033 1015.32 440.241 1014.61 440.241H1011.48C1011.18 440.241 1011.03 439.942 1011.03 439.345C1011.03 438.71 1011.18 438.393 1011.48 438.393L1017.8 438.449Z" fill="#DB131F"/>
<path d="M103.105 476.081L98.6807 476.193C98.4194 476.193 98.2887 475.95 98.2887 475.465C98.2887 474.979 98.4194 474.737 98.6807 474.737H100.473C100.883 474.737 101.182 474.569 101.369 474.233C102.227 472.814 103.945 469.043 106.521 462.921C109.097 456.761 110.945 452.094 112.065 448.921C112.214 448.585 112.569 448.417 113.129 448.417C113.726 448.417 114.099 448.603 114.249 448.977C114.697 450.843 116.003 454.371 118.169 459.561C120.371 464.75 122.294 469.081 123.937 472.553C124.385 473.449 124.795 474.027 125.169 474.289C125.542 474.55 126.121 474.681 126.905 474.681C127.129 474.681 127.241 474.942 127.241 475.465C127.241 475.95 127.147 476.193 126.961 476.193L121.585 476.081L115.537 476.193C115.313 476.193 115.201 475.95 115.201 475.465C115.201 474.979 115.313 474.737 115.537 474.737H118.225C118.635 474.737 118.841 474.569 118.841 474.233C118.841 474.195 117.795 471.321 115.705 465.609H107.921C106.091 470.126 105.177 472.777 105.177 473.561C105.177 474.307 105.401 474.681 105.849 474.681H108.145C108.443 474.681 108.593 474.942 108.593 475.465C108.593 475.95 108.481 476.193 108.257 476.193L103.105 476.081ZM114.977 463.705C114.865 463.369 113.894 460.531 112.065 455.193H111.897C111.001 457.769 109.937 460.606 108.705 463.705H114.977ZM135.89 476.081L129.898 476.193C129.636 476.193 129.506 475.913 129.506 475.353C129.506 474.793 129.599 474.513 129.786 474.513H132.53C132.978 474.513 133.202 474.195 133.202 473.561V455.193C133.202 452.243 132.791 450.769 131.97 450.769H130.01C129.599 450.769 129.394 450.489 129.394 449.929C129.394 449.331 129.562 449.033 129.898 449.033C133.22 449.107 136.618 449.145 140.09 449.145C143.562 449.145 146.25 449.891 148.154 451.385C150.095 452.841 151.066 454.651 151.066 456.817C151.066 458.945 150.3 460.662 148.77 461.969C147.239 463.275 145.391 464.022 143.226 464.209C144.308 464.955 145.708 466.449 147.426 468.689C148.06 469.547 149.05 470.537 150.394 471.657C151.738 472.739 153.25 473.71 154.93 474.569C154.183 476.062 153.044 476.809 151.514 476.809C149.983 476.809 148.639 476.249 147.482 475.129C146.324 474.009 145.428 472.777 144.794 471.433C144.159 470.051 143.45 468.633 142.666 467.177C141.919 465.721 141.21 464.769 140.538 464.321L137.962 464.153V470.649C137.962 473.113 138.335 474.345 139.082 474.345H141.434C141.732 474.345 141.882 474.643 141.882 475.241C141.882 475.801 141.788 476.081 141.602 476.081H135.89ZM139.082 450.825C138.335 450.825 137.962 451.441 137.962 452.673V461.969C138.484 462.081 139.007 462.137 139.53 462.137C141.21 462.137 142.666 461.67 143.898 460.737C145.13 459.803 145.746 458.534 145.746 456.929C145.746 455.323 145.186 453.905 144.066 452.673C142.983 451.441 141.322 450.825 139.082 450.825ZM183.098 455.025C183.098 455.249 182.836 455.361 182.314 455.361C181.828 455.361 181.586 455.23 181.586 454.969C181.212 453.139 180.652 452.131 179.906 451.945C178.562 451.646 176.527 451.459 173.802 451.385H172.738C172.364 451.422 172.178 451.721 172.178 452.281V470.089C172.178 472.926 172.551 474.345 173.298 474.345H176.098C176.396 474.345 176.546 474.643 176.546 475.241C176.546 475.801 176.434 476.081 176.21 476.081L169.714 476.025L164.114 476.193C163.852 476.193 163.722 475.913 163.722 475.353C163.722 474.793 163.834 474.513 164.058 474.513H166.578C166.988 474.513 167.231 474.438 167.306 474.289C167.38 474.102 167.418 473.635 167.418 472.889V455.865C167.418 453.065 167.082 451.571 166.41 451.385C163.386 451.385 161.127 451.571 159.634 451.945C158.887 452.131 158.327 453.139 157.954 454.969C157.954 455.23 157.692 455.361 157.17 455.361C156.684 455.361 156.442 455.249 156.442 455.025L156.722 448.305C156.722 448.081 156.964 447.969 157.45 447.969C157.972 447.969 158.234 448.081 158.234 448.305V449.033C158.234 449.033 160.679 449.07 165.57 449.145H169.714C175.388 449.145 179.196 449.107 181.138 449.033H181.306V448.305C181.306 448.081 181.548 447.969 182.034 447.969C182.556 447.969 182.818 448.081 182.818 448.305L183.098 455.025ZM206.314 454.633C206.314 454.819 206.053 454.913 205.53 454.913C205.007 454.913 204.746 454.801 204.746 454.577C204.223 452.859 203.719 451.889 203.234 451.665C201.666 451.105 199.351 450.825 196.29 450.825C195.767 450.862 195.413 451.011 195.226 451.273C195.039 451.534 194.946 452.001 194.946 452.673V461.857C199.538 461.707 202.058 461.502 202.506 461.241L202.898 458.889C202.973 458.702 203.234 458.609 203.682 458.609C204.167 458.609 204.41 458.739 204.41 459.001C204.261 460.083 204.186 461.297 204.186 462.641C204.186 463.947 204.261 465.142 204.41 466.225C204.41 466.449 204.149 466.561 203.626 466.561C203.141 466.561 202.898 466.486 202.898 466.337L202.45 463.929C202.002 463.667 199.501 463.462 194.946 463.313V470.089C194.946 472.926 195.319 474.345 196.066 474.345H198.866C199.165 474.345 199.314 474.643 199.314 475.241C199.314 475.801 199.202 476.081 198.978 476.081L192.482 476.025L186.882 476.193C186.621 476.193 186.49 475.913 186.49 475.353C186.49 474.793 186.602 474.513 186.826 474.513H189.346C189.757 474.513 189.999 474.438 190.074 474.289C190.149 474.102 190.186 473.635 190.186 472.889V455.249C190.186 452.262 189.813 450.769 189.066 450.769H187.05C186.602 450.769 186.378 450.489 186.378 449.929C186.378 449.331 186.583 449.033 186.994 449.033L192.706 449.145H204.41V448.249C204.41 448.025 204.653 447.913 205.138 447.913C205.661 447.913 205.922 448.025 205.922 448.249L206.314 454.633ZM214.538 452.617C217.562 449.817 221.071 448.417 225.066 448.417C229.06 448.417 232.551 449.817 235.538 452.617C238.562 455.417 240.074 458.739 240.074 462.585C240.074 466.393 238.562 469.715 235.538 472.553C232.551 475.39 229.06 476.809 225.066 476.809C221.071 476.809 217.562 475.39 214.538 472.553C211.551 469.715 210.058 466.393 210.058 462.585C210.058 458.739 211.551 455.417 214.538 452.617ZM231.842 453.961C230.087 451.609 227.828 450.433 225.066 450.433C222.303 450.433 220.044 451.609 218.29 453.961C216.535 456.275 215.658 459.15 215.658 462.585C215.658 465.982 216.535 468.875 218.29 471.265C220.044 473.617 222.303 474.793 225.066 474.793C227.828 474.793 230.087 473.617 231.842 471.265C233.596 468.875 234.474 465.982 234.474 462.585C234.474 459.15 233.596 456.275 231.842 453.961ZM250.843 476.081L244.851 476.193C244.589 476.193 244.459 475.913 244.459 475.353C244.459 474.793 244.552 474.513 244.739 474.513H247.483C247.931 474.513 248.155 474.195 248.155 473.561V455.193C248.155 452.243 247.744 450.769 246.923 450.769H244.963C244.552 450.769 244.347 450.489 244.347 449.929C244.347 449.331 244.515 449.033 244.851 449.033C248.173 449.107 251.571 449.145 255.043 449.145C258.515 449.145 261.203 449.891 263.107 451.385C265.048 452.841 266.019 454.651 266.019 456.817C266.019 458.945 265.253 460.662 263.723 461.969C262.192 463.275 260.344 464.022 258.179 464.209C259.261 464.955 260.661 466.449 262.379 468.689C263.013 469.547 264.003 470.537 265.347 471.657C266.691 472.739 268.203 473.71 269.883 474.569C269.136 476.062 267.997 476.809 266.467 476.809C264.936 476.809 263.592 476.249 262.435 475.129C261.277 474.009 260.381 472.777 259.747 471.433C259.112 470.051 258.403 468.633 257.619 467.177C256.872 465.721 256.163 464.769 255.491 464.321L252.915 464.153V470.649C252.915 473.113 253.288 474.345 254.035 474.345H256.387C256.685 474.345 256.835 474.643 256.835 475.241C256.835 475.801 256.741 476.081 256.555 476.081H250.843ZM254.035 450.825C253.288 450.825 252.915 451.441 252.915 452.673V461.969C253.437 462.081 253.96 462.137 254.483 462.137C256.163 462.137 257.619 461.67 258.851 460.737C260.083 459.803 260.699 458.534 260.699 456.929C260.699 455.323 260.139 453.905 259.019 452.673C257.936 451.441 256.275 450.825 254.035 450.825ZM278.022 476.081L272.03 476.193C271.769 476.193 271.638 475.913 271.638 475.353C271.638 474.793 271.732 474.513 271.918 474.513H274.662C275.11 474.513 275.334 474.195 275.334 473.561V455.193C275.334 452.243 274.924 450.769 274.102 450.769H272.142C271.732 450.769 271.526 450.489 271.526 449.929C271.526 449.331 271.694 449.033 272.03 449.033C273.972 449.107 275.932 449.145 277.91 449.145H283.342C288.196 449.145 292.116 450.47 295.102 453.121C298.126 455.734 299.638 459.001 299.638 462.921C299.638 466.841 298.164 470.014 295.214 472.441C292.302 474.867 288.606 476.081 284.126 476.081H278.022ZM281.438 450.825C280.542 450.825 280.094 451.366 280.094 452.449V469.921C280.094 472.833 280.486 474.289 281.27 474.289H283.286C286.721 474.289 289.353 473.318 291.182 471.377C293.049 469.435 293.982 466.729 293.982 463.257C293.982 459.747 292.974 456.835 290.958 454.521C288.942 452.206 285.825 450.974 281.606 450.825C281.532 450.825 281.476 450.825 281.438 450.825ZM353.072 449.033L357.496 449.145C357.906 449.145 358.261 449.145 358.56 449.145L364.384 449.033C364.645 449.033 364.776 449.313 364.776 449.873C364.776 450.395 364.626 450.657 364.328 450.657H361.752C361.266 450.657 361.024 450.955 361.024 451.553V470.089C361.024 472.926 361.397 474.345 362.144 474.345H364.944C365.242 474.345 365.392 474.643 365.392 475.241C365.392 475.801 365.28 476.081 365.056 476.081L358.56 476.025L352.96 476.193C352.698 476.193 352.568 475.913 352.568 475.353C352.568 474.793 352.68 474.513 352.904 474.513H355.424C355.834 474.513 356.077 474.438 356.152 474.289C356.226 474.102 356.264 473.635 356.264 472.889V463.761H342.712V470.089C342.712 472.926 343.085 474.345 343.832 474.345H346.632C346.93 474.345 347.08 474.643 347.08 475.241C347.08 475.801 346.968 476.081 346.744 476.081L340.248 476.025L334.648 476.193C334.386 476.193 334.256 475.913 334.256 475.353C334.256 474.793 334.368 474.513 334.592 474.513H337.112C337.522 474.513 337.765 474.438 337.84 474.289C337.914 474.102 337.952 473.635 337.952 472.889V455.249C337.952 452.262 337.578 450.769 336.832 450.769H334.816C334.368 450.769 334.144 450.489 334.144 449.929C334.144 449.331 334.349 449.033 334.76 449.033L339.184 449.145C339.594 449.145 339.949 449.145 340.248 449.145L346.072 449.033C346.333 449.033 346.464 449.313 346.464 449.873C346.464 450.395 346.314 450.657 346.016 450.657H343.44C342.954 450.657 342.712 450.955 342.712 451.553V461.633H356.264V455.249C356.264 452.262 355.89 450.769 355.144 450.769H353.128C352.68 450.769 352.456 450.489 352.456 449.929C352.456 449.331 352.661 449.033 353.072 449.033ZM370.252 449.033L374.676 449.145C375.086 449.145 375.441 449.145 375.74 449.145L381.564 449.033C381.825 449.033 381.956 449.313 381.956 449.873C381.956 450.395 381.806 450.657 381.508 450.657H378.932C378.446 450.657 378.204 450.955 378.204 451.553V470.089C378.204 472.926 378.577 474.345 379.324 474.345H382.124C382.422 474.345 382.572 474.643 382.572 475.241C382.572 475.801 382.46 476.081 382.236 476.081L375.74 476.025L370.14 476.193C369.878 476.193 369.748 475.913 369.748 475.353C369.748 474.793 369.86 474.513 370.084 474.513H372.604C373.014 474.513 373.257 474.438 373.332 474.289C373.406 474.102 373.444 473.635 373.444 472.889V455.249C373.444 452.262 373.07 450.769 372.324 450.769H370.308C369.86 450.769 369.636 450.489 369.636 449.929C369.636 449.331 369.841 449.033 370.252 449.033ZM393.304 476.081L387.312 476.193C387.05 476.193 386.92 475.913 386.92 475.353C386.92 474.793 387.013 474.513 387.2 474.513H389.944C390.392 474.513 390.616 474.195 390.616 473.561V455.193C390.616 452.243 390.205 450.769 389.384 450.769H387.424C387.013 450.769 386.808 450.489 386.808 449.929C386.808 449.331 386.976 449.033 387.312 449.033C390.634 449.107 394.032 449.145 397.504 449.145C400.976 449.145 403.664 449.854 405.568 451.273C407.472 452.691 408.424 454.521 408.424 456.761C408.424 458.478 407.64 460.121 406.072 461.689C404.504 463.219 402.432 463.985 399.856 463.985C398.176 463.985 396.682 463.761 395.376 463.313V470.649C395.376 473.113 395.749 474.345 396.496 474.345H399.296C399.594 474.345 399.744 474.643 399.744 475.241C399.744 475.801 399.65 476.081 399.464 476.081H393.304ZM396.496 450.825C395.749 450.825 395.376 451.441 395.376 452.673V461.409C395.786 461.483 396.402 461.521 397.224 461.521C399.016 461.521 400.434 461.035 401.48 460.065C402.562 459.057 403.104 457.843 403.104 456.425C403.104 455.006 402.562 453.718 401.48 452.561C400.397 451.403 398.736 450.825 396.496 450.825ZM418.241 476.081L412.249 476.193C411.988 476.193 411.857 475.913 411.857 475.353C411.857 474.793 411.951 474.513 412.137 474.513H414.881C415.329 474.513 415.553 474.195 415.553 473.561V455.193C415.553 452.243 415.143 450.769 414.321 450.769H412.361C411.951 450.769 411.745 450.489 411.745 449.929C411.745 449.331 411.913 449.033 412.249 449.033C415.572 449.107 418.951 449.145 422.385 449.145C425.82 449.145 428.471 449.817 430.337 451.161C432.241 452.505 433.193 454.129 433.193 456.033C433.193 457.414 432.559 458.665 431.289 459.785C430.057 460.905 428.583 461.633 426.865 461.969V462.081C429.329 462.529 431.345 463.406 432.913 464.713C434.519 465.982 435.321 467.513 435.321 469.305C435.321 471.059 434.201 472.627 431.961 474.009C429.721 475.39 426.809 476.081 423.225 476.081H418.241ZM429.329 469.025C429.329 465.366 426.324 463.369 420.313 463.033V470.649C420.313 473.075 420.687 474.289 421.433 474.289H422.945C424.999 474.289 426.567 473.803 427.649 472.833C428.769 471.862 429.329 470.593 429.329 469.025ZM421.433 450.825C420.687 450.825 420.313 451.441 420.313 452.673V461.017C420.724 461.091 421.34 461.129 422.161 461.129C423.991 461.129 425.409 460.662 426.417 459.729C427.425 458.795 427.929 457.638 427.929 456.257C427.929 454.838 427.407 453.587 426.361 452.505C425.316 451.385 423.673 450.825 421.433 450.825ZM447.007 476.081L441.015 476.193C440.753 476.193 440.623 475.913 440.623 475.353C440.623 474.793 440.716 474.513 440.903 474.513H443.647C444.095 474.513 444.319 474.195 444.319 473.561V455.193C444.319 452.243 443.908 450.769 443.087 450.769H441.127C440.716 450.769 440.511 450.489 440.511 449.929C440.511 449.331 440.679 449.033 441.015 449.033C444.337 449.107 447.735 449.145 451.207 449.145C454.679 449.145 457.367 449.891 459.271 451.385C461.212 452.841 462.183 454.651 462.183 456.817C462.183 458.945 461.417 460.662 459.887 461.969C458.356 463.275 456.508 464.022 454.343 464.209C455.425 464.955 456.825 466.449 458.543 468.689C459.177 469.547 460.167 470.537 461.511 471.657C462.855 472.739 464.367 473.71 466.047 474.569C465.3 476.062 464.161 476.809 462.631 476.809C461.1 476.809 459.756 476.249 458.599 475.129C457.441 474.009 456.545 472.777 455.911 471.433C455.276 470.051 454.567 468.633 453.783 467.177C453.036 465.721 452.327 464.769 451.655 464.321L449.079 464.153V470.649C449.079 473.113 449.452 474.345 450.199 474.345H452.551C452.849 474.345 452.999 474.643 452.999 475.241C452.999 475.801 452.905 476.081 452.719 476.081H447.007ZM450.199 450.825C449.452 450.825 449.079 451.441 449.079 452.673V461.969C449.601 462.081 450.124 462.137 450.647 462.137C452.327 462.137 453.783 461.67 455.015 460.737C456.247 459.803 456.863 458.534 456.863 456.929C456.863 455.323 456.303 453.905 455.183 452.673C454.1 451.441 452.439 450.825 450.199 450.825ZM472.991 452.617C476.015 449.817 479.524 448.417 483.519 448.417C487.513 448.417 491.004 449.817 493.991 452.617C497.015 455.417 498.527 458.739 498.527 462.585C498.527 466.393 497.015 469.715 493.991 472.553C491.004 475.39 487.513 476.809 483.519 476.809C479.524 476.809 476.015 475.39 472.991 472.553C470.004 469.715 468.511 466.393 468.511 462.585C468.511 458.739 470.004 455.417 472.991 452.617ZM490.295 453.961C488.54 451.609 486.281 450.433 483.519 450.433C480.756 450.433 478.497 451.609 476.743 453.961C474.988 456.275 474.111 459.15 474.111 462.585C474.111 465.982 474.988 468.875 476.743 471.265C478.497 473.617 480.756 474.793 483.519 474.793C486.281 474.793 488.54 473.617 490.295 471.265C492.049 468.875 492.927 465.982 492.927 462.585C492.927 459.15 492.049 456.275 490.295 453.961ZM503.416 449.033L507.84 449.145C508.251 449.145 508.605 449.145 508.904 449.145L514.728 449.033C514.989 449.033 515.12 449.313 515.12 449.873C515.12 450.395 514.971 450.657 514.672 450.657H512.096C511.611 450.657 511.368 450.955 511.368 451.553V470.089C511.368 472.926 511.741 474.345 512.488 474.345H515.288C515.587 474.345 515.736 474.643 515.736 475.241C515.736 475.801 515.624 476.081 515.4 476.081L508.904 476.025L503.304 476.193C503.043 476.193 502.912 475.913 502.912 475.353C502.912 474.793 503.024 474.513 503.248 474.513H505.768C506.179 474.513 506.421 474.438 506.496 474.289C506.571 474.102 506.608 473.635 506.608 472.889V455.249C506.608 452.262 506.235 450.769 505.488 450.769H503.472C503.024 450.769 502.8 450.489 502.8 449.929C502.8 449.331 503.005 449.033 503.416 449.033ZM527.944 476.025L521 476.137C520.776 476.137 520.664 475.913 520.664 475.465C520.664 474.979 520.776 474.737 521 474.737H521.672C522.307 474.737 522.624 474.55 522.624 474.177C522.624 473.953 522.437 473.635 522.064 473.225C520.571 471.47 517.472 468.091 512.768 463.089H511.256V461.409H512.488C518.648 455.51 521.728 452.038 521.728 450.993C521.728 450.582 521.504 450.377 521.056 450.377H519.936C519.749 450.377 519.656 450.153 519.656 449.705C519.656 449.257 519.749 449.033 519.936 449.033L524.808 449.089L529.12 449.033C529.344 449.033 529.456 449.257 529.456 449.705C529.456 450.153 529.344 450.377 529.12 450.377H527.72C527.347 450.377 526.245 451.291 524.416 453.121C520.235 457.115 517.491 459.635 516.184 460.681V460.961L524.864 469.977C527.851 472.963 529.605 474.457 530.128 474.457H531.584C531.957 474.531 532.144 474.83 532.144 475.353C532.144 475.838 531.995 476.081 531.696 476.081L527.944 476.025ZM535.189 449.033L539.613 449.145C540.024 449.145 540.379 449.145 540.677 449.145L546.501 449.033C546.763 449.033 546.893 449.313 546.893 449.873C546.893 450.395 546.744 450.657 546.445 450.657H543.869C543.384 450.657 543.141 450.955 543.141 451.553V470.089C543.141 472.926 543.515 474.345 544.261 474.345H547.061C547.36 474.345 547.509 474.643 547.509 475.241C547.509 475.801 547.397 476.081 547.173 476.081L540.677 476.025L535.077 476.193C534.816 476.193 534.685 475.913 534.685 475.353C534.685 474.793 534.797 474.513 535.021 474.513H537.541C537.952 474.513 538.195 474.438 538.269 474.289C538.344 474.102 538.381 473.635 538.381 472.889V455.249C538.381 452.262 538.008 450.769 537.261 450.769H535.245C534.797 450.769 534.573 450.489 534.573 449.929C534.573 449.331 534.779 449.033 535.189 449.033ZM577.561 449.145L582.713 449.033C582.937 449.033 583.049 449.313 583.049 449.873C583.049 450.395 582.937 450.657 582.713 450.657H580.753C580.231 450.657 579.895 450.787 579.745 451.049C579.073 452.206 578.737 460.606 578.737 476.249C578.737 476.622 578.42 476.809 577.785 476.809C577.188 476.809 576.759 476.678 576.497 476.417C569.031 467.531 563.02 460.326 558.465 454.801H558.297C558.409 461.409 558.521 466.934 558.633 471.377C558.633 473.318 558.913 474.289 559.473 474.289H561.713C561.937 474.289 562.049 474.587 562.049 475.185C562.049 475.745 561.937 476.025 561.713 476.025H557.065L551.969 476.137C551.783 476.137 551.689 475.875 551.689 475.353C551.689 474.793 551.783 474.513 551.969 474.513H553.313C554.471 474.513 555.068 474.139 555.105 473.393C555.665 467.345 555.945 460.27 555.945 452.169C555.348 451.459 554.844 451.049 554.433 450.937C554.023 450.825 553.257 450.769 552.137 450.769C551.913 450.769 551.801 450.489 551.801 449.929C551.801 449.331 551.913 449.033 552.137 449.033L560.033 449.145C569.105 460.643 574.444 467.457 576.049 469.585H576.161C576.012 459.803 575.881 454.222 575.769 452.841C575.657 451.459 575.359 450.769 574.873 450.769H572.913C572.652 450.769 572.521 450.489 572.521 449.929C572.521 449.331 572.652 449.033 572.913 449.033L577.561 449.145ZM610.429 464.377L616.197 464.265C616.459 464.265 616.589 464.545 616.589 465.105C616.589 465.665 616.459 465.945 616.197 465.945H614.965C614.293 465.945 613.827 466.075 613.565 466.337C613.341 466.598 613.229 467.083 613.229 467.793C613.229 471.899 613.323 474.531 613.509 475.689C613.733 476.846 613.845 477.499 613.845 477.649C613.845 477.985 613.659 478.153 613.285 478.153C612.987 478.153 612.632 477.63 612.221 476.585C611.848 475.577 611.493 475.073 611.157 475.073C611.083 475.073 610.653 475.222 609.869 475.521C607.629 476.379 605.464 476.809 603.373 476.809C598.632 476.809 594.712 475.651 591.613 473.337C588.552 471.022 587.021 467.643 587.021 463.201C587.021 458.758 588.664 455.193 591.949 452.505C595.272 449.779 599.229 448.417 603.821 448.417C605.837 448.417 608.04 448.921 610.429 449.929V449.033C610.429 448.734 610.672 448.585 611.157 448.585C611.643 448.585 611.885 448.734 611.885 449.033C611.885 451.347 612.016 453.401 612.277 455.193C612.315 455.305 612.24 455.417 612.053 455.529C611.904 455.603 611.661 455.641 611.325 455.641C610.989 455.641 610.784 455.51 610.709 455.249L610.429 453.457C608.227 451.478 605.707 450.489 602.869 450.489C600.069 450.489 597.661 451.571 595.645 453.737C593.667 455.902 592.677 458.814 592.677 462.473C592.677 466.131 593.685 469.099 595.701 471.377C597.717 473.654 600.256 474.793 603.317 474.793C604.288 474.793 605.203 474.681 606.061 474.457C606.92 474.195 607.536 473.934 607.909 473.673L608.469 473.281V469.529C608.469 467.139 608.189 465.945 607.629 465.945H603.317C603.056 465.945 602.925 465.683 602.925 465.161C602.925 464.601 603.056 464.321 603.317 464.321L610.429 464.377ZM672.881 448.921L674.057 455.081C674.057 455.379 673.833 455.529 673.385 455.529C672.937 455.529 672.657 455.379 672.545 455.081C672.06 453.699 671.294 452.561 670.249 451.665C669.204 450.769 668.065 450.321 666.833 450.321C665.638 450.283 664.574 450.619 663.641 451.329C662.745 452.038 662.297 452.915 662.297 453.961C662.297 454.969 662.596 455.902 663.193 456.761C663.828 457.582 664.593 458.291 665.489 458.889C666.385 459.486 667.374 460.177 668.457 460.961C669.54 461.707 670.529 462.454 671.425 463.201C672.321 463.947 673.068 464.918 673.665 466.113C674.3 467.307 674.617 468.595 674.617 469.977C674.617 472.142 673.665 473.822 671.761 475.017C669.857 476.211 667.785 476.809 665.545 476.809C663.342 476.809 661.308 476.379 659.441 475.521C659.441 475.969 659.404 476.249 659.329 476.361C659.292 476.473 659.105 476.547 658.769 476.585H658.545C658.246 476.585 658.078 476.435 658.041 476.137C657.966 475.241 657.817 474.009 657.593 472.441C657.369 470.873 657.201 469.603 657.089 468.633C657.089 468.259 657.313 468.073 657.761 468.073C658.246 468.073 658.508 468.166 658.545 468.353C659.068 470.182 659.982 471.769 661.289 473.113C662.596 474.419 663.958 475.073 665.377 475.073C666.796 475.073 667.972 474.737 668.905 474.065C669.838 473.355 670.305 472.385 670.305 471.153C670.305 469.921 669.876 468.801 669.017 467.793C668.196 466.747 667.188 465.814 665.993 464.993C664.798 464.171 663.604 463.35 662.409 462.529C661.214 461.67 660.188 460.625 659.329 459.393C658.508 458.161 658.097 456.817 658.097 455.361C658.097 453.27 658.974 451.609 660.729 450.377C662.521 449.145 664.63 448.529 667.057 448.529C668.438 448.529 669.913 448.79 671.481 449.313C671.406 449.089 671.369 448.827 671.369 448.529C671.369 448.193 671.537 448.025 671.873 448.025C672.246 448.025 672.489 448.081 672.601 448.193C672.713 448.267 672.806 448.51 672.881 448.921ZM695.303 448.921L696.479 455.081C696.479 455.379 696.255 455.529 695.807 455.529C695.359 455.529 695.079 455.379 694.967 455.081C694.482 453.699 693.716 452.561 692.671 451.665C691.626 450.769 690.487 450.321 689.255 450.321C688.06 450.283 686.996 450.619 686.063 451.329C685.167 452.038 684.719 452.915 684.719 453.961C684.719 454.969 685.018 455.902 685.615 456.761C686.25 457.582 687.015 458.291 687.911 458.889C688.807 459.486 689.796 460.177 690.879 460.961C691.962 461.707 692.951 462.454 693.847 463.201C694.743 463.947 695.49 464.918 696.087 466.113C696.722 467.307 697.039 468.595 697.039 469.977C697.039 472.142 696.087 473.822 694.183 475.017C692.279 476.211 690.207 476.809 687.967 476.809C685.764 476.809 683.73 476.379 681.863 475.521C681.863 475.969 681.826 476.249 681.751 476.361C681.714 476.473 681.527 476.547 681.191 476.585H680.967C680.668 476.585 680.5 476.435 680.463 476.137C680.388 475.241 680.239 474.009 680.015 472.441C679.791 470.873 679.623 469.603 679.511 468.633C679.511 468.259 679.735 468.073 680.183 468.073C680.668 468.073 680.93 468.166 680.967 468.353C681.49 470.182 682.404 471.769 683.711 473.113C685.018 474.419 686.38 475.073 687.799 475.073C689.218 475.073 690.394 474.737 691.327 474.065C692.26 473.355 692.727 472.385 692.727 471.153C692.727 469.921 692.298 468.801 691.439 467.793C690.618 466.747 689.61 465.814 688.415 464.993C687.22 464.171 686.026 463.35 684.831 462.529C683.636 461.67 682.61 460.625 681.751 459.393C680.93 458.161 680.519 456.817 680.519 455.361C680.519 453.27 681.396 451.609 683.151 450.377C684.943 449.145 687.052 448.529 689.479 448.529C690.86 448.529 692.335 448.79 693.903 449.313C693.828 449.089 693.791 448.827 693.791 448.529C693.791 448.193 693.959 448.025 694.295 448.025C694.668 448.025 694.911 448.081 695.023 448.193C695.135 448.267 695.228 448.51 695.303 448.921ZM705.741 452.617C708.765 449.817 712.274 448.417 716.269 448.417C720.263 448.417 723.754 449.817 726.741 452.617C729.765 455.417 731.277 458.739 731.277 462.585C731.277 466.393 729.765 469.715 726.741 472.553C723.754 475.39 720.263 476.809 716.269 476.809C712.274 476.809 708.765 475.39 705.741 472.553C702.754 469.715 701.261 466.393 701.261 462.585C701.261 458.739 702.754 455.417 705.741 452.617ZM723.045 453.961C721.29 451.609 719.031 450.433 716.269 450.433C713.506 450.433 711.247 451.609 709.493 453.961C707.738 456.275 706.861 459.15 706.861 462.585C706.861 465.982 707.738 468.875 709.493 471.265C711.247 473.617 713.506 474.793 716.269 474.793C719.031 474.793 721.29 473.617 723.045 471.265C724.799 468.875 725.677 465.982 725.677 462.585C725.677 459.15 724.799 456.275 723.045 453.961ZM751.454 476.809C746.899 476.809 743.129 475.595 740.142 473.169C737.155 470.742 735.662 467.419 735.662 463.201C735.662 458.945 737.267 455.417 740.478 452.617C743.689 449.817 747.515 448.417 751.958 448.417C754.123 448.417 756.251 448.958 758.342 450.041V449.089C758.342 448.827 758.566 448.697 759.014 448.697C759.499 448.697 759.742 448.827 759.742 449.089C759.742 451.441 759.929 453.886 760.302 456.425C760.339 456.537 760.265 456.649 760.078 456.761C759.929 456.835 759.686 456.873 759.35 456.873C759.014 456.873 758.809 456.723 758.734 456.425L758.286 453.457C756.195 451.478 753.787 450.489 751.062 450.489C748.374 450.489 746.059 451.646 744.118 453.961C742.214 456.275 741.262 459.169 741.262 462.641C741.262 466.113 742.27 469.006 744.286 471.321C746.302 473.598 748.673 474.737 751.398 474.737C754.123 474.737 756.699 473.934 759.126 472.329L759.406 469.137C759.406 468.838 759.667 468.689 760.19 468.689C760.713 468.689 760.974 468.819 760.974 469.081L760.638 476.193C760.638 476.417 760.377 476.529 759.854 476.529C759.369 476.529 759.126 476.417 759.126 476.193V475.241C756.55 476.286 753.993 476.809 751.454 476.809ZM765.588 449.033L770.012 449.145C770.422 449.145 770.777 449.145 771.076 449.145L776.9 449.033C777.161 449.033 777.292 449.313 777.292 449.873C777.292 450.395 777.142 450.657 776.844 450.657H774.268C773.782 450.657 773.54 450.955 773.54 451.553V470.089C773.54 472.926 773.913 474.345 774.66 474.345H777.46C777.758 474.345 777.908 474.643 777.908 475.241C777.908 475.801 777.796 476.081 777.572 476.081L771.076 476.025L765.476 476.193C765.214 476.193 765.084 475.913 765.084 475.353C765.084 474.793 765.196 474.513 765.42 474.513H767.94C768.35 474.513 768.593 474.438 768.668 474.289C768.742 474.102 768.78 473.635 768.78 472.889V455.249C768.78 452.262 768.406 450.769 767.66 450.769H765.644C765.196 450.769 764.972 450.489 764.972 449.929C764.972 449.331 765.177 449.033 765.588 449.033ZM782.816 476.081L778.392 476.193C778.13 476.193 778 475.95 778 475.465C778 474.979 778.13 474.737 778.392 474.737H780.184C780.594 474.737 780.893 474.569 781.08 474.233C781.938 472.814 783.656 469.043 786.232 462.921C788.808 456.761 790.656 452.094 791.776 448.921C791.925 448.585 792.28 448.417 792.84 448.417C793.437 448.417 793.81 448.603 793.96 448.977C794.408 450.843 795.714 454.371 797.88 459.561C800.082 464.75 802.005 469.081 803.648 472.553C804.096 473.449 804.506 474.027 804.88 474.289C805.253 474.55 805.832 474.681 806.616 474.681C806.84 474.681 806.952 474.942 806.952 475.465C806.952 475.95 806.858 476.193 806.672 476.193L801.296 476.081L795.248 476.193C795.024 476.193 794.912 475.95 794.912 475.465C794.912 474.979 795.024 474.737 795.248 474.737H797.936C798.346 474.737 798.552 474.569 798.552 474.233C798.552 474.195 797.506 471.321 795.416 465.609H787.632C785.802 470.126 784.888 472.777 784.888 473.561C784.888 474.307 785.112 474.681 785.56 474.681H787.856C788.154 474.681 788.304 474.942 788.304 475.465C788.304 475.95 788.192 476.193 787.968 476.193L782.816 476.081ZM794.688 463.705C794.576 463.369 793.605 460.531 791.776 455.193H791.608C790.712 457.769 789.648 460.606 788.416 463.705H794.688ZM833.988 455.025C833.988 455.249 833.727 455.361 833.204 455.361C832.719 455.361 832.476 455.23 832.476 454.969C832.103 453.139 831.543 452.131 830.796 451.945C829.452 451.646 827.418 451.459 824.692 451.385H823.628C823.255 451.422 823.068 451.721 823.068 452.281V470.089C823.068 472.926 823.442 474.345 824.188 474.345H826.988C827.287 474.345 827.436 474.643 827.436 475.241C827.436 475.801 827.324 476.081 827.1 476.081L820.604 476.025L815.004 476.193C814.743 476.193 814.612 475.913 814.612 475.353C814.612 474.793 814.724 474.513 814.948 474.513H817.468C817.879 474.513 818.122 474.438 818.196 474.289C818.271 474.102 818.308 473.635 818.308 472.889V455.865C818.308 453.065 817.972 451.571 817.3 451.385C814.276 451.385 812.018 451.571 810.524 451.945C809.778 452.131 809.218 453.139 808.844 454.969C808.844 455.23 808.583 455.361 808.06 455.361C807.575 455.361 807.332 455.249 807.332 455.025L807.612 448.305C807.612 448.081 807.855 447.969 808.34 447.969C808.863 447.969 809.124 448.081 809.124 448.305V449.033C809.124 449.033 811.57 449.07 816.46 449.145H820.604C826.279 449.145 830.087 449.107 832.028 449.033H832.196V448.305C832.196 448.081 832.439 447.969 832.924 447.969C833.447 447.969 833.708 448.081 833.708 448.305L833.988 455.025ZM837.885 449.033L842.309 449.145C842.719 449.145 843.074 449.145 843.373 449.145L849.197 449.033C849.458 449.033 849.589 449.313 849.589 449.873C849.589 450.395 849.439 450.657 849.141 450.657H846.565C846.079 450.657 845.837 450.955 845.837 451.553V470.089C845.837 472.926 846.21 474.345 846.957 474.345H849.757C850.055 474.345 850.205 474.643 850.205 475.241C850.205 475.801 850.093 476.081 849.869 476.081L843.373 476.025L837.773 476.193C837.511 476.193 837.381 475.913 837.381 475.353C837.381 474.793 837.493 474.513 837.717 474.513H840.237C840.647 474.513 840.89 474.438 840.965 474.289C841.039 474.102 841.077 473.635 841.077 472.889V455.249C841.077 452.262 840.703 450.769 839.957 450.769H837.941C837.493 450.769 837.269 450.489 837.269 449.929C837.269 449.331 837.474 449.033 837.885 449.033ZM858.921 452.617C861.945 449.817 865.454 448.417 869.449 448.417C873.443 448.417 876.934 449.817 879.921 452.617C882.945 455.417 884.457 458.739 884.457 462.585C884.457 466.393 882.945 469.715 879.921 472.553C876.934 475.39 873.443 476.809 869.449 476.809C865.454 476.809 861.945 475.39 858.921 472.553C855.934 469.715 854.441 466.393 854.441 462.585C854.441 458.739 855.934 455.417 858.921 452.617ZM876.225 453.961C874.47 451.609 872.211 450.433 869.449 450.433C866.686 450.433 864.427 451.609 862.673 453.961C860.918 456.275 860.041 459.15 860.041 462.585C860.041 465.982 860.918 468.875 862.673 471.265C864.427 473.617 866.686 474.793 869.449 474.793C872.211 474.793 874.47 473.617 876.225 471.265C877.979 468.875 878.857 465.982 878.857 462.585C878.857 459.15 877.979 456.275 876.225 453.961ZM914.546 449.145L919.698 449.033C919.922 449.033 920.034 449.313 920.034 449.873C920.034 450.395 919.922 450.657 919.698 450.657H917.738C917.215 450.657 916.879 450.787 916.73 451.049C916.058 452.206 915.722 460.606 915.722 476.249C915.722 476.622 915.404 476.809 914.77 476.809C914.172 476.809 913.743 476.678 913.482 476.417C906.015 467.531 900.004 460.326 895.45 454.801H895.282C895.394 461.409 895.506 466.934 895.618 471.377C895.618 473.318 895.898 474.289 896.458 474.289H898.698C898.922 474.289 899.034 474.587 899.034 475.185C899.034 475.745 898.922 476.025 898.698 476.025H894.05L888.954 476.137C888.767 476.137 888.674 475.875 888.674 475.353C888.674 474.793 888.767 474.513 888.954 474.513H890.298C891.455 474.513 892.052 474.139 892.09 473.393C892.65 467.345 892.93 460.27 892.93 452.169C892.332 451.459 891.828 451.049 891.418 450.937C891.007 450.825 890.242 450.769 889.122 450.769C888.898 450.769 888.786 450.489 888.786 449.929C888.786 449.331 888.898 449.033 889.122 449.033L897.018 449.145C906.09 460.643 911.428 467.457 913.034 469.585H913.146C912.996 459.803 912.866 454.222 912.754 452.841C912.642 451.459 912.343 450.769 911.858 450.769H909.898C909.636 450.769 909.506 450.489 909.506 449.929C909.506 449.331 909.636 449.033 909.898 449.033L914.546 449.145Z" fill="url(#paint0_linear)"/>
<g filter="url(#filter0_d)">
<path fill-rule="evenodd" clip-rule="evenodd" d="M376.562 135.548C386.88 125.24 399.345 117.497 413.162 112.598L414.717 111.045L369.462 65.8371L369.454 65.8453C369.224 65.605 368.991 65.3667 368.755 65.1305C353.134 49.5257 328.44 48.8932 313.6 63.7178C298.76 78.5424 299.393 103.21 315.014 118.815C315.251 119.051 315.489 119.284 315.73 119.513L315.722 119.522L357.95 161.706C362.665 152.023 368.907 143.195 376.562 135.548ZM696.145 146.364C720.149 170.344 733.598 202.904 733.531 236.883C733.465 270.862 719.89 303.476 695.791 327.549C671.693 351.623 639.046 365.184 605.031 365.25C574.373 365.31 544.868 354.402 521.767 334.689L521.489 334.966L514.418 327.902L455.021 268.567L455.03 268.559C454.789 268.329 454.551 268.097 454.314 267.86C438.693 252.256 438.06 227.588 452.9 212.763C467.74 197.939 492.433 198.571 508.054 214.176C508.291 214.412 508.524 214.65 508.753 214.891L508.762 214.882L568.158 274.218L568.164 274.212C577.97 284.008 591.285 289.496 605.179 289.469C619.074 289.442 632.41 283.902 642.255 274.068C652.099 264.234 657.645 250.911 657.672 237.031C657.699 223.151 652.205 209.85 642.399 200.054L642.404 200.048L561.062 118.79C603.396 98.7323 657.826 108.085 695.437 145.658C695.673 145.893 695.908 146.13 696.142 146.367L696.145 146.364ZM630.347 209.195L568.158 147.07L568.012 146.924L566.744 145.657L566.733 145.668C542.872 122.567 510.891 109.657 477.545 109.722C443.531 109.788 410.884 123.35 386.786 147.423C362.687 171.497 349.111 204.11 349.045 238.089C348.979 272.068 362.427 304.629 386.432 328.609L386.443 328.598C386.865 329.033 387.292 329.466 387.722 329.897L387.921 330.096C424.87 366.926 478.681 375.686 520.782 355.451L440.172 274.924L440.182 274.914C430.377 265.12 424.884 251.82 424.911 237.941C424.938 224.063 430.483 210.742 440.326 200.909C450.169 191.076 463.504 185.537 477.397 185.51C491.29 185.483 504.604 190.97 514.408 200.765L514.418 200.755L579.472 265.741L579.605 265.609C595.246 278.54 617.865 278.247 631.798 264.328C645.731 250.41 646.024 227.814 633.079 212.189L633.212 212.057L630.42 209.268L630.384 209.231L630.347 209.195ZM728.414 307.14C723.542 318.414 716.672 328.637 707.971 337.329C698.156 347.134 686.392 354.611 673.368 359.52L717.005 403.112L717.013 403.104C717.242 403.344 717.475 403.582 717.712 403.818C733.332 419.423 758.026 420.056 772.866 405.231C787.706 390.407 787.073 365.739 771.452 350.134C771.34 350.023 771.229 349.913 771.117 349.803C770.991 349.68 770.864 349.557 770.736 349.436L770.745 349.428L728.414 307.14Z" fill="url(#paint1_linear)"/>
</g>
<defs>
<filter id="filter0_d" x="298.872" y="53.0002" width="488.723" height="370.948" filterUnits="userSpaceOnUse" color-interpolation-filters="sRGB">
<feFlood flood-opacity="0" result="BackgroundImageFix"/>
<feColorMatrix in="SourceAlpha" type="matrix" values="0 0 0 0 0 0 0 0 0 0 0 0 0 0 0 0 0 0 127 0"/>
<feOffset dy="4"/>
<feGaussianBlur stdDeviation="2"/>
<feColorMatrix type="matrix" values="0 0 0 0 0 0 0 0 0 0 0 0 0 0 0 0 0 0 0.25 0"/>
<feBlend mode="normal" in2="BackgroundImageFix" result="effect1_dropShadow"/>
<feBlend mode="normal" in="SourceGraphic" in2="effect1_dropShadow" result="shape"/>
</filter>
<linearGradient id="paint0_linear" x1="53" y1="460.233" x2="1027" y2="460.233" gradientUnits="userSpaceOnUse">
<stop stop-color="#314755"/>
<stop offset="1" stop-color="#26A0DA"/>
</linearGradient>
<linearGradient id="paint1_linear" x1="302.872" y1="235.369" x2="783.594" y2="235.369" gradientUnits="userSpaceOnUse">
<stop stop-color="#314755"/>
<stop offset="1" stop-color="#26A0DA"/>
</linearGradient>
</defs>
</svg>
