<?xml version="1.0" standalone="no"?>
<!DOCTYPE svg PUBLIC "-//W3C//DTD SVG 20010904//EN"
 "http://www.w3.org/TR/2001/REC-SVG-20010904/DTD/svg10.dtd">
<svg version="1.0" xmlns="http://www.w3.org/2000/svg"
 width="1467.000000pt" height="1467.000000pt" viewBox="0 0 1467.000000 1467.000000"
 preserveAspectRatio="xMidYMid meet">
<metadata>
Created by potrace 1.14, written by Peter Selinger 2001-2017
</metadata>
<g transform="translate(0.000000,1467.000000) scale(0.100000,-0.100000)"
fill="#000000" stroke="none">
<path d="M1040 12884 c-36 -7 -77 -16 -92 -19 -56 -11 -176 -59 -256 -102
-130 -70 -281 -200 -352 -303 -13 -19 -28 -38 -32 -41 -4 -3 -32 -53 -62 -111
-67 -133 -110 -272 -120 -393 -2 -27 -5 -50 -6 -50 -1 0 -2 -39 -3 -88 -1 -48
2 -87 7 -87 5 0 2 -8 -5 -17 -10 -11 -10 -14 -1 -9 8 5 12 -2 12 -23 0 -38 -1
-34 10 -71 6 -23 6 -29 -3 -23 -8 4 -8 2 1 -9 7 -9 14 -30 15 -47 1 -17 5 -31
8 -31 10 0 30 -80 23 -92 -4 -6 -3 -8 3 -5 6 4 17 -11 26 -33 10 -26 11 -38 4
-34 -7 4 -2 -3 10 -15 24 -22 32 -58 11 -45 -7 4 -8 3 -4 -5 4 -6 11 -9 16 -6
12 8 32 -33 24 -48 -4 -6 -4 -9 1 -5 11 11 58 -60 49 -74 -4 -6 -3 -8 4 -4 13
8 51 -44 44 -63 -2 -8 0 -11 5 -8 13 8 94 -83 86 -96 -3 -6 -1 -7 6 -3 12 8
41 -16 41 -34 0 -6 5 -8 10 -5 6 3 10 2 10 -2 0 -5 15 -24 34 -43 19 -19 32
-38 30 -42 -3 -4 3 -5 12 -1 12 4 15 3 10 -5 -4 -7 -1 -12 9 -12 9 0 13 -4 10
-10 -3 -5 1 -10 10 -10 9 0 13 -4 10 -10 -3 -5 1 -10 9 -10 8 0 18 -9 21 -20
4 -11 11 -18 16 -15 5 4 9 -1 9 -9 0 -9 5 -16 11 -16 12 0 65 -61 62 -72 -2
-4 4 -5 12 -2 9 4 15 0 15 -9 0 -8 7 -18 16 -21 8 -3 12 -10 9 -16 -4 -6 1 -7
11 -3 12 4 15 3 10 -5 -4 -7 -1 -12 9 -12 9 0 13 -4 10 -10 -3 -5 1 -10 10
-10 9 0 13 -4 10 -10 -3 -5 1 -10 9 -10 8 0 18 -9 21 -20 4 -11 11 -18 16 -15
5 4 9 -1 9 -10 0 -9 4 -14 8 -11 5 3 15 -6 22 -19 7 -14 20 -25 27 -25 8 0 11
-4 8 -10 -3 -5 1 -10 10 -10 12 0 15 -5 11 -17 -4 -10 -4 -15 -1 -11 9 8 45
-23 39 -34 -3 -4 3 -5 12 -1 12 4 15 3 10 -5 -4 -7 -1 -12 9 -12 12 0 15 -5
11 -17 -4 -10 -4 -14 0 -10 10 10 45 -23 37 -36 -3 -6 -1 -7 5 -3 14 8 124
-103 115 -117 -3 -6 -1 -7 5 -3 14 8 55 -31 47 -45 -4 -5 -2 -8 3 -7 16 4 113
-93 105 -105 -3 -5 -2 -7 4 -4 5 4 83 -66 171 -154 137 -136 164 -158 176
-147 8 7 14 15 13 18 -3 15 16 49 24 44 5 -3 9 -2 8 3 -4 22 2 43 11 38 6 -3
7 1 4 9 -3 9 -1 16 5 16 6 0 10 3 9 8 -4 14 23 53 33 47 5 -4 7 -10 4 -15 -3
-5 -1 -11 4 -14 11 -7 9 13 -2 31 -8 12 9 52 28 65 6 4 6 8 2 8 -4 0 -2 6 5
14 7 8 17 11 22 8 5 -3 6 0 2 7 -12 18 31 70 55 66 11 -2 17 0 14 6 -4 5 -11
7 -16 4 -29 -19 16 55 68 110 7 7 9 15 6 19 -4 3 1 6 10 6 10 0 16 6 15 13 -2
6 3 11 10 9 8 -1 11 2 8 7 -4 5 2 14 11 20 10 6 14 11 9 11 -5 0 -1 9 9 20 10
11 22 17 28 13 5 -3 7 -1 3 5 -8 14 127 166 138 155 3 -4 6 2 6 11 0 12 5 16
14 13 10 -4 13 -1 9 9 -7 20 14 18 26 -3 6 -10 11 -13 11 -7 0 5 -5 15 -12 22
-18 18 -1 27 19 11 17 -13 17 -13 3 5 -12 16 -13 20 -1 24 7 2 20 13 29 23 9
10 20 15 25 12 6 -3 7 -1 3 5 -4 7 6 20 26 32 18 11 29 20 23 20 -5 0 3 9 19
19 17 11 34 17 39 14 6 -3 7 -1 3 5 -3 6 10 23 31 39 21 15 41 32 44 37 4 4 9
2 12 -5 4 -10 6 -9 6 4 1 9 12 23 26 29 14 6 25 15 25 20 0 4 7 8 15 8 8 0 15
5 15 12 0 6 3 8 6 5 4 -4 14 1 23 11 16 17 73 52 86 52 3 0 3 -6 -1 -12 -4 -8
-3 -10 2 -5 5 5 9 13 9 18 0 5 4 9 9 8 5 0 13 6 18 15 5 9 13 14 19 11 5 -4 9
-2 9 2 0 14 139 85 151 77 7 -4 9 -3 6 3 -6 9 11 23 33 27 3 1 40 19 82 40 42
21 81 35 86 32 6 -3 12 1 16 9 3 8 14 15 24 15 10 0 22 4 28 9 5 5 27 14 49
21 36 12 75 43 75 59 0 14 -1440 1441 -1500 1487 -74 56 -72 55 -177 111 -116
61 -213 95 -368 128 -60 13 -319 12 -385 -1z"/>
<path d="M9127 11234 c-1 -1 -54 -5 -117 -9 -63 -4 -117 -9 -120 -10 -3 -2
-30 -6 -60 -9 -51 -6 -249 -39 -295 -50 -155 -36 -239 -61 -375 -109 -134 -48
-244 -93 -273 -112 -16 -11 -12 -18 43 -75 33 -34 57 -67 53 -73 -3 -5 -1 -7
4 -4 14 9 57 -29 48 -43 -3 -6 -3 -10 2 -9 22 4 35 -2 30 -15 -4 -10 -1 -13 9
-9 14 5 20 -12 7 -20 -5 -2 -2 -2 4 -1 17 4 65 -44 57 -57 -3 -5 -2 -9 3 -8
20 3 34 -2 28 -11 -3 -5 -2 -10 3 -10 13 0 112 -97 112 -110 0 -6 5 -8 10 -5
6 3 10 -1 10 -10 0 -9 4 -14 8 -11 10 6 43 -30 35 -38 -4 -3 0 -6 7 -6 15 0
150 -134 150 -149 0 -6 3 -10 8 -8 9 3 58 -46 55 -55 -2 -5 4 -8 12 -8 8 0 23
-13 33 -29 9 -15 22 -29 27 -31 18 -5 194 -187 188 -194 -4 -3 -1 -6 5 -6 20
0 113 -94 107 -108 -3 -7 0 -10 6 -6 11 6 52 -30 43 -39 -3 -3 3 -8 13 -11 10
-3 38 -26 62 -51 39 -40 42 -46 30 -62 -13 -17 -13 -17 5 -3 17 13 20 13 30
-3 16 -27 39 -56 30 -37 -4 8 11 -3 34 -25 23 -22 40 -45 38 -52 -3 -6 1 -10
7 -7 14 5 107 -89 107 -108 0 -6 3 -8 7 -5 7 8 253 -237 253 -252 0 -6 6 -10
13 -9 6 2 11 -5 11 -14 -1 -10 3 -15 8 -12 11 7 89 -67 81 -78 -2 -5 0 -7 5
-6 12 4 122 -104 122 -120 0 -6 4 -11 8 -10 12 4 82 -64 76 -74 -3 -4 1 -8 8
-8 15 0 114 -100 110 -112 -1 -4 4 -8 10 -8 19 0 91 -77 84 -88 -3 -5 0 -9 7
-8 6 0 13 -3 14 -9 1 -5 11 -13 23 -17 13 -5 18 -13 14 -19 -4 -7 -3 -9 2 -6
11 6 144 -126 144 -143 0 -6 5 -8 10 -5 6 3 10 2 10 -4 0 -5 14 -23 31 -40 17
-18 27 -36 23 -42 -4 -8 -3 -9 4 -5 7 4 22 -11 38 -36 15 -24 31 -44 35 -46 5
-2 9 -8 9 -13 0 -6 -6 -7 -12 -3 -7 3 0 -5 16 -18 20 -17 27 -30 23 -41 -4
-10 -2 -16 6 -14 7 1 11 -4 9 -10 -1 -7 2 -13 7 -13 14 0 63 -101 57 -117 -3
-8 -1 -11 4 -8 9 5 12 -1 9 -21 0 -4 5 -10 11 -14 7 -4 13 -19 13 -33 1 -14 5
-23 10 -20 6 4 11 -15 10 -44 -1 -7 3 -10 8 -7 9 5 14 -29 11 -76 -1 -18 1
-21 7 -11 8 13 21 -30 36 -125 3 -16 8 -40 11 -54 3 -14 8 -59 10 -100 2 -41
4 -75 5 -75 5 0 4 -64 -3 -82 -4 -13 -3 -25 3 -28 5 -4 7 -10 5 -14 -3 -3 -7
-40 -11 -81 -4 -41 -8 -77 -10 -80 -2 -3 -6 -30 -10 -60 -4 -30 -10 -57 -13
-60 -4 -3 -8 -18 -10 -34 -2 -16 -10 -48 -18 -70 -8 -23 -17 -51 -20 -64 -2
-12 -16 -47 -29 -77 -14 -29 -25 -57 -25 -61 0 -19 -120 -217 -178 -293 -262
-343 -657 -568 -1084 -616 -114 -13 -326 -8 -418 10 -14 3 -41 8 -60 11 -238
42 -542 192 -726 358 -34 31 -485 478 -1002 995 -522 521 -973 963 -1014 994
-40 30 -107 73 -149 96 -70 38 -216 97 -262 107 -10 2 -27 6 -38 9 -11 4 -32
8 -47 11 -15 2 -54 8 -87 13 -78 11 -261 7 -350 -8 -333 -57 -636 -283 -789
-590 -36 -70 -86 -212 -86 -240 0 -10 -3 -21 -7 -25 -7 -7 -7 -6 -18 -126 -9
-101 -10 -178 -2 -186 3 -3 2 -17 -4 -31 -5 -13 -5 -22 -1 -19 8 5 11 -14 16
-91 0 -13 5 -23 10 -23 5 0 7 -3 4 -6 -4 -3 2 -35 13 -71 10 -36 16 -70 12
-76 -3 -6 -1 -7 4 -4 13 8 27 -39 17 -56 -4 -7 -4 -9 1 -5 4 4 28 -32 52 -80
51 -101 60 -117 91 -156 15 -18 21 -36 17 -50 -4 -14 -3 -17 3 -8 7 10 18 3
45 -29 20 -23 34 -46 30 -52 -3 -6 -1 -7 5 -3 7 4 12 2 12 -4 0 -6 4 -8 10 -5
6 3 10 2 10 -4 0 -14 47 -60 54 -53 6 5 10 -14 7 -31 -1 -5 3 -6 7 -3 12 7 44
-28 35 -39 -5 -4 -3 -5 3 -2 14 8 57 -36 47 -48 -5 -4 -3 -5 3 -2 13 8 66 -41
59 -54 -3 -4 -13 -6 -23 -3 -14 5 -15 4 -2 -5 9 -6 18 -7 24 -1 13 13 26 13
26 0 0 -11 101 -110 113 -110 4 0 7 -4 7 -10 0 -12 60 -70 73 -70 5 0 7 -7 3
-15 -3 -8 -2 -14 2 -13 12 2 42 -14 42 -23 0 -4 11 -19 25 -33 14 -14 25 -24
25 -22 0 2 25 -22 55 -52 30 -30 52 -59 48 -65 -3 -5 -1 -7 4 -4 14 9 65 -42
56 -56 -3 -5 -2 -7 4 -4 13 8 56 -37 46 -47 -5 -4 -3 -6 2 -4 17 5 58 -29 50
-43 -5 -7 -4 -10 2 -6 11 7 63 -39 63 -55 0 -5 5 -6 10 -3 6 3 10 1 10 -4 0
-12 101 -111 113 -111 4 0 7 -4 7 -10 0 -12 60 -70 73 -70 5 0 7 -7 3 -15 -3
-8 -2 -14 2 -13 12 2 42 -14 42 -23 0 -12 48 -58 54 -51 6 5 10 -14 7 -30 0
-5 5 -7 12 -5 6 1 11 -4 10 -10 -2 -7 3 -12 10 -10 6 1 11 -6 11 -15 -1 -10 2
-16 6 -13 11 7 40 -5 40 -17 0 -5 -6 -6 -12 -2 -10 6 -10 5 -1 -8 7 -8 9 -19
5 -23 -4 -5 -1 -5 6 -1 7 4 9 12 6 18 -5 7 -2 8 7 3 28 -18 49 -40 49 -52 0
-7 7 -13 16 -13 10 0 14 -6 11 -14 -4 -10 -1 -13 8 -10 7 3 16 -3 20 -15 3
-12 10 -21 15 -21 15 0 61 -51 55 -61 -3 -5 1 -6 9 -3 11 4 16 0 16 -10 0 -9
5 -16 11 -16 5 0 7 -5 3 -12 -4 -7 -3 -8 5 -4 6 4 18 0 27 -9 14 -13 14 -18 2
-33 -11 -15 -11 -16 3 -5 13 11 20 9 37 -10 12 -13 19 -27 15 -31 -5 -4 -1 -6
7 -4 8 2 14 -3 12 -10 -1 -8 2 -11 7 -7 6 3 18 -4 28 -16 30 -35 42 -47 55
-51 10 -4 10 -9 -2 -24 -11 -15 -11 -16 0 -6 14 12 39 18 27 6 -3 -4 5 -16 19
-26 21 -17 23 -23 12 -37 -11 -14 -11 -14 4 -3 14 11 20 10 37 -5 12 -9 21
-23 21 -30 0 -7 7 -13 16 -13 10 0 14 -6 11 -14 -4 -10 -1 -13 8 -10 7 3 16
-3 20 -15 3 -12 11 -21 16 -21 11 0 39 -25 39 -35 0 -3 -5 -3 -12 1 -7 4 -8 3
-4 -4 4 -6 13 -9 20 -6 8 3 17 -3 20 -14 4 -10 18 -25 31 -32 14 -7 25 -19 25
-27 0 -7 5 -14 10 -14 6 -1 16 -2 23 -3 6 -1 11 -8 9 -15 -1 -7 2 -10 7 -7 13
8 62 -34 55 -46 -5 -7 -2 -8 5 -4 17 11 51 -22 44 -42 -4 -14 -3 -15 5 -2 9
12 14 11 30 -8 11 -12 24 -22 30 -22 5 0 23 -12 40 -27 16 -16 47 -38 68 -50
22 -13 38 -26 37 -31 -1 -5 4 -9 10 -9 21 0 67 -35 60 -46 -3 -6 -1 -7 5 -3
14 8 55 -18 45 -28 -4 -4 0 -4 10 0 11 4 19 0 23 -10 3 -9 14 -16 23 -16 9 0
26 -7 36 -15 11 -9 49 -31 85 -50 36 -19 64 -38 63 -43 -1 -5 8 -8 20 -8 16 1
22 -4 20 -18 -1 -12 2 -15 9 -8 13 13 50 3 41 -11 -4 -6 0 -8 10 -4 10 4 20 0
25 -9 5 -9 12 -15 16 -13 12 4 76 -24 76 -33 0 -4 3 -7 8 -7 20 3 32 -2 26
-13 -4 -6 -3 -8 3 -5 16 10 85 -22 77 -34 -4 -7 1 -7 15 0 11 7 21 8 21 3 0
-5 20 -15 45 -22 25 -7 45 -16 45 -20 0 -4 7 -7 15 -7 27 0 94 -26 89 -34 -3
-5 1 -7 8 -4 7 3 27 1 43 -3 22 -7 29 -14 27 -28 -2 -17 -1 -17 8 -2 9 15 50
15 50 -1 0 -4 12 -8 27 -9 15 -1 29 -5 32 -10 3 -4 15 -7 26 -8 22 -1 151 -31
175 -41 8 -3 23 -5 34 -4 10 2 15 -2 12 -7 -4 -6 2 -8 14 -5 22 6 28 -12 8
-20 -10 -4 -10 -6 0 -6 7 -1 15 5 18 13 7 17 44 9 62 -13 10 -14 11 -14 5 3
-5 15 -3 17 8 11 14 -9 19 -10 72 -13 19 -1 26 -6 21 -15 -5 -9 -4 -9 6 0 8 7
22 8 41 3 42 -12 44 -14 41 -25 -2 -5 0 -7 4 -3 4 4 14 2 23 -5 14 -11 14 -10
2 6 -13 17 -11 18 27 16 23 -2 42 -5 42 -8 0 -4 41 -7 92 -9 85 -3 124 -14
113 -31 -2 -4 2 -8 10 -8 13 0 13 3 -1 18 -14 16 -13 17 10 15 14 0 26 -5 26
-9 0 -5 5 -5 12 -1 15 10 61 10 76 0 7 -4 12 -3 12 2 0 6 9 8 20 5 11 -3 17
-10 13 -17 -3 -6 3 -2 15 8 20 18 27 15 23 -8 -1 -5 5 -4 13 3 8 7 20 10 25 7
5 -4 13 -2 16 4 5 8 11 8 19 1 7 -6 16 -8 19 -4 4 3 39 7 79 8 40 2 106 6 147
10 60 6 72 5 65 -7 -7 -11 -5 -11 9 0 9 8 22 10 28 6 8 -4 9 -3 5 4 -5 8 4 12
26 13 18 0 42 2 53 3 52 7 98 17 106 22 5 3 9 -2 9 -10 0 -8 4 -17 9 -20 5 -4
7 4 3 16 l-5 23 24 -20 c14 -12 19 -14 11 -4 -10 14 -10 18 3 23 14 5 20 -5
16 -27 -1 -5 3 -6 8 -2 6 3 7 13 4 22 -5 13 -2 15 15 11 12 -4 22 -3 22 1 0 4
6 8 13 8 6 0 38 6 69 12 32 7 63 9 69 5 7 -4 9 -3 6 4 -7 9 59 28 91 25 6 0
12 4 12 10 0 6 3 7 6 4 4 -3 15 -2 25 3 10 6 29 11 43 12 15 1 26 6 26 10 0 4
7 5 15 2 8 -4 15 -1 15 6 0 7 8 10 20 7 11 -3 20 0 20 6 0 8 4 7 12 -1 7 -7
17 -12 23 -12 5 0 3 5 -5 10 -14 9 -7 12 16 9 4 0 10 4 14 11 4 6 23 12 43 13
19 1 35 4 34 7 -1 3 3 5 8 5 6 0 9 -4 7 -8 -1 -5 2 -6 8 -2 6 3 8 10 5 15 -7
11 24 22 37 13 7 -4 8 -1 3 7 -6 10 -4 12 8 7 10 -3 17 -2 17 3 0 7 53 30 80
35 3 1 27 11 53 24 27 12 55 20 63 17 8 -3 12 -2 9 4 -7 12 33 33 51 26 7 -3
13 0 11 7 -1 6 8 13 21 15 12 2 22 8 22 14 0 6 9 8 20 5 10 -3 18 -2 17 2 -1
3 2 7 7 8 5 1 12 5 15 10 7 11 97 55 107 53 4 -1 11 5 16 14 5 9 14 16 20 16
6 0 26 11 44 25 18 14 37 25 43 25 5 0 17 8 26 17 13 13 21 14 34 6 9 -6 15
-17 13 -25 -2 -7 0 -9 4 -5 11 11 14 38 4 32 -20 -12 -18 15 1 29 23 15 44 12
34 -5 -10 -15 2 -10 16 8 10 11 10 14 2 9 -7 -4 -13 -3 -13 2 0 12 20 29 39
34 7 2 24 13 37 26 13 12 30 22 39 22 8 0 15 4 15 9 0 5 25 26 55 46 30 21 55
43 55 48 0 6 10 2 22 -9 16 -13 19 -14 10 -3 -10 14 -10 20 4 33 13 14 19 14
33 4 14 -11 14 -11 4 3 -11 13 -10 19 6 33 19 17 19 17 17 -8 -2 -14 1 -23 6
-20 5 3 7 13 4 21 -4 10 13 32 46 64 52 48 83 65 57 32 -11 -15 -10 -14 9 1
23 20 30 32 12 21 -5 -3 -10 -3 -10 2 0 11 73 69 83 65 5 -1 6 2 3 6 -7 12 28
44 39 35 4 -5 5 -3 2 3 -7 13 43 60 58 56 5 -2 7 0 2 4 -10 10 43 65 56 57 6
-3 7 -1 4 4 -4 6 15 34 42 63 27 29 51 48 53 44 3 -5 3 -3 2 4 -2 7 6 22 19
35 12 12 21 25 20 29 -2 5 4 8 13 8 9 0 12 5 8 12 -5 7 -2 9 9 5 12 -4 14 -2
10 10 -5 12 -3 14 7 8 9 -5 11 -4 6 3 -4 7 6 26 23 44 17 18 31 36 31 39 0 3
11 19 25 35 14 16 25 32 25 37 0 4 7 7 15 7 9 0 12 6 9 15 -4 8 -2 15 2 15 5
0 22 23 39 50 16 28 33 50 37 50 4 0 8 6 8 13 0 7 9 23 20 35 12 12 17 22 13
22 -4 0 -1 5 7 10 8 5 15 13 15 19 0 5 19 39 43 76 23 36 42 71 42 76 0 6 5 7
12 3 7 -5 8 -3 4 5 -5 7 0 21 11 33 10 11 17 21 15 22 -2 0 0 9 3 18 4 10 11
16 15 13 5 -3 12 0 16 6 4 8 3 9 -4 5 -17 -10 -16 -6 18 60 16 32 30 65 30 72
0 6 4 12 8 12 5 0 14 18 21 40 7 25 16 38 23 34 6 -4 8 -3 5 3 -7 12 61 196
75 201 4 2 5 9 2 14 -4 6 1 17 11 25 11 7 14 13 7 13 -9 0 -9 6 0 25 6 14 14
25 18 25 4 0 6 11 5 25 -2 14 0 25 4 25 4 0 8 6 9 13 3 38 25 106 32 102 4 -3
6 4 3 15 -3 11 -1 20 4 20 5 0 9 10 10 23 1 12 4 31 7 42 3 11 13 54 23 95 9
41 20 76 24 78 4 2 5 10 3 17 -3 8 -2 19 2 26 4 7 8 28 10 48 1 20 5 45 7 57
3 12 8 45 12 75 4 30 10 58 13 64 3 5 5 28 5 52 -1 24 2 43 5 43 4 0 8 35 10
78 4 126 8 167 16 180 4 6 3 12 -1 12 -5 0 -8 15 -6 33 10 93 -3 437 -22 577
-11 84 -13 95 -19 130 -3 19 -8 50 -11 68 -3 17 -8 47 -12 65 -3 17 -7 48 -7
69 -1 20 -4 34 -7 32 -4 -2 -10 15 -14 39 -4 23 -9 47 -11 52 -1 6 -10 37 -19
70 -9 33 -20 74 -24 90 -18 66 -111 331 -124 353 -5 6 -5 17 -2 22 3 6 1 10
-4 10 -6 0 -11 4 -11 10 0 29 -175 379 -255 510 -84 138 -247 375 -275 400 -3
3 -15 17 -26 32 -77 100 -383 418 -494 513 -357 305 -752 542 -1165 697 -236
89 -550 170 -745 194 -14 1 -59 7 -100 13 -124 16 -247 24 -408 25 -84 1 -154
1 -155 0z"/>
<path d="M233 11185 c0 -8 4 -12 9 -9 5 3 6 10 3 15 -9 13 -12 11 -12 -6z"/>
<path d="M5178 11195 c-1 -1 -50 -6 -109 -9 -58 -4 -114 -8 -125 -10 -10 -2
-46 -7 -79 -11 -93 -11 -129 -17 -220 -35 -27 -6 -61 -12 -75 -15 -156 -29
-439 -115 -640 -195 -96 -38 -382 -175 -455 -217 -17 -10 -53 -31 -80 -47
-634 -371 -1196 -984 -1506 -1644 -86 -182 -119 -260 -121 -282 0 -3 -4 -13
-9 -23 -31 -56 -133 -393 -164 -537 -2 -8 -8 -35 -13 -60 -6 -25 -13 -63 -16
-85 -4 -22 -9 -55 -13 -74 -3 -19 -7 -44 -8 -55 -1 -12 -3 -21 -4 -21 -1 0 -4
-20 -6 -45 -3 -25 -7 -63 -10 -85 -9 -68 -18 -244 -19 -365 -1 -64 -5 -118
-11 -122 -7 -5 -6 -8 0 -8 6 0 12 -26 13 -57 3 -74 11 -218 12 -218 4 0 24
-186 24 -222 1 -18 5 -33 10 -33 5 0 7 -2 4 -5 -3 -3 3 -42 13 -88 12 -59 14
-86 6 -95 -8 -10 -7 -12 3 -10 7 2 14 -6 15 -17 2 -11 13 -58 24 -103 12 -46
18 -89 15 -94 -5 -7 -2 -8 6 -3 10 6 12 1 8 -18 -3 -15 -2 -25 2 -22 6 4 63
-168 63 -192 0 -7 4 -13 9 -13 4 0 8 -8 8 -18 0 -10 5 -23 11 -29 5 -5 11 -24
11 -41 1 -17 4 -29 8 -27 4 2 13 -15 21 -38 8 -23 22 -57 31 -76 10 -19 15
-38 12 -42 -3 -5 -1 -9 4 -9 7 0 65 -113 67 -130 0 -3 6 -15 13 -28 7 -12 10
-28 6 -34 -4 -6 -3 -8 3 -5 5 3 17 -7 27 -24 9 -16 14 -29 9 -29 -4 0 -3 -4 2
-8 11 -7 25 -32 59 -97 12 -22 24 -44 29 -50 36 -47 86 -138 81 -147 -4 -7 -2
-8 5 -4 6 4 14 0 18 -11 4 -10 9 -20 13 -23 4 -3 32 -42 63 -86 31 -45 64 -87
72 -94 11 -9 12 -16 5 -25 -8 -10 -8 -15 1 -21 8 -4 9 -3 5 4 -11 17 9 15 24
-3 7 -8 10 -15 6 -15 -3 0 9 -14 26 -31 27 -25 30 -32 18 -41 -13 -8 -12 -9 2
-5 18 6 52 -25 41 -38 -5 -4 -2 -5 5 -1 7 4 15 0 19 -11 4 -10 17 -26 30 -36
13 -10 20 -23 17 -29 -4 -6 -3 -8 3 -5 12 8 43 -28 44 -51 0 -9 3 -12 5 -5 6
13 44 -20 44 -38 0 -5 5 -7 10 -4 6 3 10 -1 10 -10 0 -10 -5 -13 -12 -9 -8 4
-9 3 -5 -2 5 -5 16 -9 25 -9 9 0 16 -6 14 -13 -1 -6 4 -11 10 -10 7 2 12 -3
10 -10 -1 -8 1 -11 6 -8 4 2 14 0 22 -5 12 -8 12 -12 3 -16 -7 -2 -13 -10 -13
-16 0 -8 4 -7 12 1 19 19 30 14 23 -10 -4 -14 -3 -18 2 -11 6 9 15 7 33 -7 23
-17 24 -21 11 -42 -13 -22 -13 -23 6 -5 19 16 21 16 44 -10 14 -16 42 -41 62
-57 20 -16 34 -34 30 -39 -3 -6 -2 -7 4 -4 6 4 24 -6 41 -21 17 -15 43 -36 58
-47 16 -11 36 -28 46 -38 10 -9 20 -17 23 -17 3 0 11 -5 18 -10 7 -6 24 -20
40 -31 15 -11 25 -25 22 -30 -4 -5 0 -6 7 -4 16 6 81 -39 71 -49 -4 -4 0 -4
10 0 10 3 17 1 17 -5 0 -6 5 -11 10 -11 6 0 38 -18 71 -40 33 -22 64 -40 69
-40 5 0 10 -3 12 -7 2 -5 24 -19 51 -33 26 -13 47 -28 47 -33 0 -4 5 -5 10 -2
6 3 10 1 10 -4 0 -6 3 -10 8 -10 19 3 33 -2 27 -11 -3 -6 1 -7 9 -4 9 3 16 1
16 -5 0 -6 6 -10 13 -9 6 2 11 -2 10 -9 -2 -6 5 -11 15 -10 22 1 102 -34 102
-46 0 -4 4 -6 8 -3 5 3 23 -4 40 -15 18 -10 38 -19 44 -19 6 0 32 -9 57 -21
72 -33 82 -37 154 -60 37 -13 67 -27 67 -31 0 -5 4 -6 10 -3 5 3 19 1 31 -5
11 -7 33 -14 47 -16 48 -8 62 -15 62 -30 0 -16 12 -18 25 -5 6 6 40 1 92 -13
45 -13 85 -21 89 -17 4 3 4 1 1 -5 -4 -6 4 -11 21 -11 29 0 157 -22 182 -31 8
-3 21 -4 29 -3 7 1 11 -1 8 -6 -3 -5 13 -7 35 -5 27 3 43 0 49 -9 7 -11 9 -11
9 -1 0 7 4 10 10 7 5 -3 47 -9 92 -12 46 -3 86 -11 90 -17 5 -7 8 -7 8 3 0 11
3 11 17 0 15 -12 16 -12 8 1 -7 12 -6 13 6 4 8 -6 42 -10 78 -8 36 1 73 -2 84
-8 14 -7 17 -7 13 1 -4 6 -1 11 8 11 10 0 13 -7 10 -24 -2 -14 -1 -27 4 -30 4
-2 8 7 8 21 -1 15 5 28 13 31 10 3 11 0 5 -9 -6 -11 -5 -12 7 -3 8 6 50 10 97
10 45 -1 82 1 82 4 0 3 14 5 30 5 17 1 30 -3 30 -7 0 -4 5 -8 11 -8 5 0 7 5 3
11 -5 8 4 10 30 7 20 -2 36 -1 36 2 0 3 18 6 41 7 22 1 50 5 62 8 17 5 19 4 7
-4 -8 -6 -10 -11 -5 -11 6 0 15 4 21 10 5 5 30 11 54 12 25 2 48 8 52 13 5 6
8 4 8 -5 0 -9 3 -11 8 -4 11 16 102 34 102 20 0 -7 3 -6 8 1 5 7 20 14 35 15
15 1 27 5 27 8 0 3 10 7 23 8 26 3 47 7 67 14 42 16 134 37 141 33 4 -3 9 0
11 5 2 6 20 12 40 13 20 1 36 6 35 12 -1 5 7 9 18 9 11 0 23 4 26 9 3 5 12 10
20 11 8 2 30 9 49 17 19 7 38 12 43 11 4 -1 7 2 7 7 0 5 20 15 45 22 25 7 45
17 45 21 0 4 3 7 8 6 12 -2 82 32 82 40 0 4 -558 564 -1239 1245 -1212 1211
-1328 1331 -1402 1462 -49 88 -119 231 -119 245 0 9 -4 20 -9 25 -14 16 -42
125 -35 137 4 6 3 8 -3 5 -10 -6 -17 16 -29 93 -2 14 -7 41 -10 60 -13 65 -13
75 -17 205 -4 126 10 320 23 320 1 0 4 11 6 25 2 14 6 34 8 45 2 11 4 30 5 43
1 15 5 21 13 16 6 -4 8 -3 4 4 -7 12 34 143 67 212 21 46 24 52 26 71 0 5 6 7
13 3 7 -4 8 -3 4 4 -7 12 18 57 44 80 8 8 9 11 3 7 -9 -4 -11 -1 -7 9 3 9 10
16 15 16 5 0 9 7 9 15 0 9 6 18 13 21 8 3 14 10 14 17 0 7 19 38 43 70 32 42
46 54 53 45 6 -9 7 -8 3 4 -3 11 9 32 34 60 22 23 40 46 40 50 0 4 4 8 10 8 5
0 7 -8 4 -17 -5 -14 -4 -15 4 -4 6 8 8 20 5 28 -3 7 2 13 12 13 10 0 13 5 9
12 -5 8 -2 9 9 5 10 -4 16 -2 14 6 -1 7 4 11 11 9 6 -1 12 5 12 14 0 10 6 14
14 11 9 -4 13 -1 10 6 -4 13 78 78 187 149 43 27 60 33 69 25 8 -9 9 -7 4 7
-5 13 -4 17 4 12 7 -4 12 -3 12 2 0 13 118 65 130 57 6 -3 10 1 10 9 0 19 16
21 23 4 3 -8 6 -6 6 5 1 9 7 18 14 18 22 2 32 5 62 18 17 7 41 15 53 17 13 3
41 11 62 18 29 10 42 10 51 2 9 -8 10 -8 5 2 -4 7 -2 12 6 13 7 0 22 2 33 4
11 3 38 6 61 8 22 2 47 8 54 12 9 6 11 4 5 -6 -7 -11 -6 -12 6 -2 8 6 47 13
86 15 58 2 73 0 77 -12 3 -13 4 -13 5 0 1 12 14 14 68 12 38 -2 71 -9 75 -15
6 -9 8 -9 8 0 0 6 8 10 18 8 9 -2 27 -4 40 -4 13 -1 21 -4 18 -9 -2 -4 14 -6
36 -4 31 3 39 1 33 -9 -6 -9 -3 -11 9 -6 19 7 157 -24 216 -50 19 -8 43 -16
54 -18 10 -3 29 -11 42 -20 13 -8 29 -15 35 -15 7 0 18 -8 26 -17 8 -10 12
-12 8 -6 -4 9 -1 11 9 7 9 -3 16 -10 16 -15 0 -5 3 -8 8 -7 16 3 63 -23 57
-32 -4 -6 -3 -10 2 -9 21 4 34 -2 27 -13 -4 -7 -3 -8 5 -4 15 9 64 -21 56 -34
-3 -6 0 -7 8 -4 8 3 21 -1 28 -8 8 -7 31 -24 51 -38 20 -13 35 -27 32 -31 -2
-4 6 -9 17 -12 14 -4 18 -10 13 -19 -4 -7 -4 -10 1 -6 11 10 126 -92 118 -105
-3 -5 -2 -7 4 -4 5 3 17 -3 26 -14 9 -10 13 -19 9 -19 -4 0 4 -6 18 -13 14 -8
24 -19 22 -25 -1 -7 4 -12 11 -12 17 0 59 -48 52 -60 -3 -5 0 -12 6 -16 8 -4
9 -3 5 4 -10 16 2 15 19 -2 8 -7 11 -16 8 -20 -4 -3 0 -6 8 -6 17 0 105 -90
101 -103 -1 -4 2 -6 7 -3 8 6 33 -16 28 -25 -1 -2 0 -3 2 -2 8 5 43 -36 37
-45 -3 -5 2 -9 11 -8 9 0 18 -5 21 -13 3 -10 0 -12 -12 -8 -11 4 -15 3 -11 -4
4 -6 13 -8 21 -5 17 6 64 -31 64 -51 0 -8 4 -12 9 -9 13 8 34 -21 25 -35 -5
-8 -3 -9 5 -4 14 8 54 -29 43 -41 -4 -4 -2 -4 4 -1 14 8 37 -17 26 -27 -4 -4
-2 -6 4 -4 14 4 96 -77 87 -86 -3 -3 0 -6 8 -6 16 0 55 -40 51 -52 -1 -5 4 -8
11 -8 20 0 57 -47 51 -64 -3 -8 -1 -17 5 -21 7 -4 8 0 4 11 -4 12 -2 15 8 12
8 -3 13 -12 13 -21 -1 -9 2 -14 8 -11 11 7 98 -78 98 -96 0 -7 3 -11 6 -7 3 3
24 -11 45 -32 29 -27 38 -43 33 -57 -5 -15 -4 -16 4 -4 9 12 14 12 31 -4 11
-10 18 -23 14 -29 -3 -5 -2 -7 3 -4 12 7 96 -78 87 -87 -4 -3 0 -6 8 -6 16 0
55 -40 51 -52 -1 -5 4 -8 11 -8 20 0 57 -47 51 -64 -3 -8 -1 -17 5 -21 7 -4 8
0 4 11 -4 12 -2 15 8 12 8 -3 13 -12 13 -21 -1 -9 2 -14 8 -11 11 7 98 -78 98
-95 0 -7 3 -10 8 -8 9 6 63 -49 55 -57 -4 -3 0 -6 8 -6 18 0 105 -90 101 -104
-2 -6 0 -8 4 -4 10 11 35 -12 27 -26 -3 -6 -3 -8 1 -4 11 9 50 -28 42 -40 -3
-5 2 -9 11 -8 9 0 18 -5 21 -13 3 -10 0 -12 -12 -8 -11 4 -15 3 -11 -4 4 -6
13 -8 21 -5 17 6 64 -31 64 -51 0 -8 4 -12 9 -9 13 8 34 -21 25 -35 -5 -8 -3
-9 5 -4 13 8 54 -28 44 -39 -4 -3 1 -6 10 -6 22 0 32 -20 16 -32 -10 -7 -8 -8
7 -4 13 4 27 -1 41 -16 11 -13 30 -30 43 -38 12 -8 28 -20 34 -26 6 -6 22 -16
34 -23 12 -7 20 -16 17 -21 -3 -6 0 -7 7 -5 8 3 23 -4 35 -15 12 -11 29 -20
36 -20 8 0 20 -7 27 -15 7 -8 19 -15 28 -15 8 0 23 -6 31 -14 9 -7 59 -28 111
-46 52 -18 100 -40 107 -49 12 -14 12 -14 6 4 -6 18 -5 18 10 6 9 -7 17 -11
17 -8 0 3 17 1 38 -5 20 -5 75 -12 122 -15 90 -5 111 -14 105 -42 -2 -10 3
-18 11 -18 10 0 11 4 3 14 -6 7 -8 13 -4 13 4 0 2 6 -4 14 -9 11 1 14 61 15
40 1 74 4 77 6 2 3 11 -1 19 -8 10 -7 13 -8 9 -1 -9 16 28 25 44 10 9 -8 10
-8 5 2 -7 12 -3 13 49 17 11 1 26 -3 33 -8 9 -7 11 -6 7 5 -4 11 2 18 20 22
14 4 30 4 35 1 4 -3 10 0 12 6 6 17 76 39 82 25 2 -6 5 -3 5 7 1 15 12 22 34
18 4 -1 17 8 29 19 12 11 26 20 31 20 5 0 22 9 37 20 21 15 30 17 33 8 3 -8 6
-6 6 4 1 10 11 23 23 29 13 7 33 23 46 36 12 13 27 21 34 17 7 -4 8 -3 4 5 -4
7 2 15 16 20 13 6 19 10 13 10 -5 1 8 18 30 39 23 20 51 52 64 70 12 18 27 29
33 26 7 -4 8 -2 4 4 -4 6 2 20 14 32 11 11 20 22 20 25 0 3 0 8 0 13 0 4 5 0
11 -8 8 -12 9 -10 4 7 -4 15 0 25 12 32 10 6 14 11 10 11 -4 0 -3 9 3 21 10
17 14 18 28 7 15 -12 16 -11 4 4 -15 19 -7 62 10 52 6 -4 8 -2 5 3 -4 6 1 28
10 49 9 22 16 42 15 47 -1 4 2 7 8 7 6 0 9 3 9 8 -5 27 2 52 13 46 7 -4 8 -3
4 4 -4 6 -2 29 3 49 5 21 13 54 17 73 9 44 13 351 5 365 -3 6 -7 21 -9 35 -2
21 -12 61 -36 155 -2 6 -8 23 -14 38 -7 16 -12 32 -12 36 0 4 -17 43 -39 87
-32 66 -63 116 -156 251 -10 15 -2015 2018 -2086 2084 -49 46 -85 77 -144 124
-27 22 -52 43 -55 46 -10 13 -228 167 -310 220 -259 167 -553 307 -857 409
-137 45 -339 101 -423 115 -19 3 -55 11 -80 16 -25 6 -54 12 -65 14 -57 8
-268 35 -320 40 -63 7 -511 16 -517 10z"/>
<path d="M290 11089 c0 -5 5 -7 10 -4 6 3 10 8 10 11 0 2 -4 4 -10 4 -5 0 -10
-5 -10 -11z"/>
<path d="M3395 11079 c-4 -6 -5 -12 -2 -15 2 -3 7 2 10 11 7 17 1 20 -8 4z"/>
<path d="M3306 11052 c-2 -4 4 -8 14 -8 10 0 16 4 14 8 -3 4 -9 8 -14 8 -5 0
-11 -4 -14 -8z"/>
<path d="M3395 11039 c-4 -6 -5 -12 -2 -15 2 -3 7 2 10 11 7 17 1 20 -8 4z"/>
<path d="M3255 11031 c-3 -5 -2 -12 3 -15 5 -3 9 1 9 9 0 17 -3 19 -12 6z"/>
<path d="M365 10990 c-3 -6 1 -7 9 -4 18 7 21 14 7 14 -6 0 -13 -4 -16 -10z"/>
<path d="M3099 10943 c-12 -16 -12 -17 2 -6 9 7 20 9 24 5 5 -4 5 -1 1 6 -9
16 -11 15 -27 -5z"/>
<path d="M3210 10950 c0 -5 5 -10 11 -10 5 0 7 5 4 10 -3 6 -8 10 -11 10 -2 0
-4 -4 -4 -10z"/>
<path d="M435 10919 c-4 -6 -5 -12 -2 -15 2 -3 7 2 10 11 7 17 1 20 -8 4z"/>
<path d="M370 10910 c0 -5 5 -10 11 -10 5 0 7 5 4 10 -3 6 -8 10 -11 10 -2 0
-4 -4 -4 -10z"/>
<path d="M3050 10889 c0 -5 5 -7 10 -4 6 3 10 8 10 11 0 2 -4 4 -10 4 -5 0
-10 -5 -10 -11z"/>
<path d="M3086 10888 c3 -5 10 -6 15 -3 13 9 11 12 -6 12 -8 0 -12 -4 -9 -9z"/>
<path d="M3150 10891 c0 -6 4 -13 10 -16 6 -3 7 1 4 9 -7 18 -14 21 -14 7z"/>
<path d="M3015 10850 c3 -5 8 -10 11 -10 2 0 4 5 4 10 0 6 -5 10 -11 10 -5 0
-7 -4 -4 -10z"/>
<path d="M2990 10813 c0 -6 8 -17 18 -24 16 -13 16 -13 2 6 -8 11 -16 22 -17
24 -2 2 -3 0 -3 -6z"/>
<path d="M2905 10790 c-3 -6 1 -7 9 -4 18 7 21 14 7 14 -6 0 -13 -4 -16 -10z"/>
<path d="M8056 10652 c-3 -5 1 -9 9 -9 8 0 12 4 9 9 -3 4 -7 8 -9 8 -2 0 -6
-4 -9 -8z"/>
<path d="M740 10636 c0 -2 8 -10 18 -17 15 -13 16 -12 3 4 -13 16 -21 21 -21
13z"/>
<path d="M2546 10592 c-3 -5 1 -9 9 -9 8 0 12 4 9 9 -3 4 -7 8 -9 8 -2 0 -6
-4 -9 -8z"/>
<path d="M2533 10555 c0 -8 4 -15 9 -15 4 0 8 4 8 9 0 6 -4 12 -8 15 -5 3 -9
-1 -9 -9z"/>
<path d="M2470 10542 c0 -15 28 -23 36 -9 4 7 4 9 -1 5 -4 -4 -14 -3 -22 3 -8
7 -13 8 -13 1z"/>
<path d="M8180 10530 c8 -5 20 -10 25 -10 6 0 3 5 -5 10 -8 5 -19 10 -25 10
-5 0 -3 -5 5 -10z"/>
<path d="M825 10470 c-3 -6 1 -7 9 -4 18 7 21 14 7 14 -6 0 -13 -4 -16 -10z"/>
<path d="M2475 10460 c-4 -6 -11 -7 -17 -4 -7 4 -8 2 -4 -5 6 -9 11 -9 22 0
14 11 18 19 10 19 -3 0 -8 -5 -11 -10z"/>
<path d="M919 10423 c-13 -16 -12 -17 4 -4 16 13 21 21 13 21 -2 0 -10 -8 -17
-17z"/>
<path d="M2286 10348 c3 -5 10 -6 15 -3 13 9 11 12 -6 12 -8 0 -12 -4 -9 -9z"/>
<path d="M8386 10352 c-2 -4 4 -8 14 -8 10 0 16 4 14 8 -3 4 -9 8 -14 8 -5 0
-11 -4 -14 -8z"/>
<path d="M1015 10330 c3 -5 8 -10 11 -10 2 0 4 5 4 10 0 6 -5 10 -11 10 -5 0
-7 -4 -4 -10z"/>
<path d="M8416 10308 c3 -5 10 -6 15 -3 13 9 11 12 -6 12 -8 0 -12 -4 -9 -9z"/>
<path d="M2250 10289 c0 -5 5 -7 10 -4 6 3 10 8 10 11 0 2 -4 4 -10 4 -5 0
-10 -5 -10 -11z"/>
<path d="M2210 10249 c0 -5 5 -7 10 -4 6 3 10 8 10 11 0 2 -4 4 -10 4 -5 0
-10 -5 -10 -11z"/>
<path d="M2213 10205 c0 -8 4 -12 9 -9 5 3 6 10 3 15 -9 13 -12 11 -12 -6z"/>
<path d="M1155 10201 c-3 -5 -2 -12 3 -15 5 -3 9 1 9 9 0 17 -3 19 -12 6z"/>
<path d="M1180 10196 c0 -2 8 -10 18 -17 15 -13 16 -12 3 4 -13 16 -21 21 -21
13z"/>
<path d="M8593 10175 c0 -8 4 -12 9 -9 5 3 6 10 3 15 -9 13 -12 11 -12 -6z"/>
<path d="M2090 10090 c0 -5 5 -10 11 -10 5 0 7 5 4 10 -3 6 -8 10 -11 10 -2 0
-4 -4 -4 -10z"/>
<path d="M8675 10080 c-4 -6 -12 -7 -18 -4 -7 4 -8 3 -4 -1 13 -15 34 -14 34
1 0 17 -4 18 -12 4z"/>
<path d="M1276 10068 c3 -5 10 -6 15 -3 13 9 11 12 -6 12 -8 0 -12 -4 -9 -9z"/>
<path d="M2050 10049 c0 -5 5 -7 10 -4 6 3 10 8 10 11 0 2 -4 4 -10 4 -5 0
-10 -5 -10 -11z"/>
<path d="M8675 10009 c-3 -4 2 -6 10 -5 21 3 28 13 10 13 -9 0 -18 -4 -20 -8z"/>
<path d="M1315 9991 c-3 -5 -2 -12 3 -15 5 -3 9 1 9 9 0 17 -3 19 -12 6z"/>
<path d="M1353 9975 c0 -8 4 -12 9 -9 5 3 6 10 3 15 -9 13 -12 11 -12 -6z"/>
<path d="M8735 9969 c-3 -4 2 -6 10 -5 21 3 28 13 10 13 -9 0 -18 -4 -20 -8z"/>
<path d="M8776 9932 c-3 -4 4 -9 15 -9 23 -2 25 3 4 10 -8 4 -16 3 -19 -1z"/>
<path d="M1493 9875 c0 -8 4 -12 9 -9 5 3 6 10 3 15 -9 13 -12 11 -12 -6z"/>
<path d="M1950 9870 c0 -5 5 -10 11 -10 5 0 7 5 4 10 -3 6 -8 10 -11 10 -2 0
-4 -4 -4 -10z"/>
<path d="M8866 9872 c-2 -4 4 -8 14 -8 10 0 16 4 14 8 -3 4 -9 8 -14 8 -5 0
-11 -4 -14 -8z"/>
<path d="M8853 9835 c0 -8 4 -12 9 -9 5 3 6 10 3 15 -9 13 -12 11 -12 -6z"/>
<path d="M8896 9828 c3 -5 10 -6 15 -3 13 9 11 12 -6 12 -8 0 -12 -4 -9 -9z"/>
<path d="M8933 9775 c0 -8 4 -12 9 -9 5 3 6 10 3 15 -9 13 -12 11 -12 -6z"/>
<path d="M1656 9717 c3 -10 9 -15 12 -12 3 3 0 11 -7 18 -10 9 -11 8 -5 -6z"/>
<path d="M9026 9712 c-2 -4 4 -8 14 -8 10 0 16 4 14 8 -3 4 -9 8 -14 8 -5 0
-11 -4 -14 -8z"/>
<path d="M9056 9668 c3 -5 10 -6 15 -3 13 9 11 12 -6 12 -8 0 -12 -4 -9 -9z"/>
<path d="M1713 9625 c0 -8 4 -12 9 -9 5 3 6 10 3 15 -9 13 -12 11 -12 -6z"/>
<path d="M9097 9625 c-4 -8 -3 -16 1 -19 4 -3 9 4 9 15 2 23 -3 25 -10 4z"/>
<path d="M1756 9617 c3 -10 9 -15 12 -12 3 3 0 11 -7 18 -10 9 -11 8 -5 -6z"/>
<path d="M9134 9592 c4 -3 14 -7 22 -8 9 -1 13 0 10 4 -4 3 -14 7 -22 8 -9 1
-13 0 -10 -4z"/>
<path d="M9176 9532 c-3 -5 1 -9 9 -9 8 0 12 4 9 9 -3 4 -7 8 -9 8 -2 0 -6 -4
-9 -8z"/>
<path d="M9235 9501 c-3 -5 -2 -12 3 -15 5 -3 9 1 9 9 0 17 -3 19 -12 6z"/>
<path d="M9276 9477 c3 -10 9 -15 12 -12 3 3 0 11 -7 18 -10 9 -11 8 -5 -6z"/>
<path d="M9235 9449 c-3 -4 2 -6 10 -5 21 3 28 13 10 13 -9 0 -18 -4 -20 -8z"/>
<path d="M9276 9432 c-3 -5 1 -9 9 -9 8 0 12 4 9 9 -3 4 -7 8 -9 8 -2 0 -6 -4
-9 -8z"/>
<path d="M9339 9383 c-13 -16 -12 -17 4 -4 9 7 17 15 17 17 0 8 -8 3 -21 -13z"/>
<path d="M9370 9391 c0 -6 4 -13 10 -16 6 -3 7 1 4 9 -7 18 -14 21 -14 7z"/>
<path d="M9373 9345 c0 -8 4 -12 9 -9 5 3 6 10 3 15 -9 13 -12 11 -12 -6z"/>
<path d="M9415 9290 c-3 -5 -1 -10 4 -10 6 0 11 5 11 10 0 6 -2 10 -4 10 -3 0
-8 -4 -11 -10z"/>
<path d="M9473 9263 c0 -9 4 -10 14 -2 7 6 13 12 13 14 0 1 -6 2 -13 2 -8 0
-14 -6 -14 -14z"/>
<path d="M9639 9103 c-13 -16 -12 -17 4 -4 9 7 17 15 17 17 0 8 -8 3 -21 -13z"/>
<path d="M9710 9026 c7 -7 13 -7 20 0 6 6 3 10 -10 10 -13 0 -16 -4 -10 -10z"/>
<path d="M9716 8968 c3 -4 11 -5 19 -1 21 7 19 12 -4 10 -11 0 -18 -5 -15 -9z"/>
<path d="M9775 8929 c-3 -4 2 -6 10 -5 21 3 28 13 10 13 -9 0 -18 -4 -20 -8z"/>
<path d="M5136 8892 c-3 -5 1 -9 9 -9 8 0 12 4 9 9 -3 4 -7 8 -9 8 -2 0 -6 -4
-9 -8z"/>
<path d="M5239 8898 c-6 -20 -6 -39 0 -42 4 -3 7 6 7 20 0 20 -4 32 -7 22z"/>
<path d="M5401 8886 c-9 -11 -9 -16 1 -22 7 -4 10 -4 6 1 -4 4 -3 14 3 22 6 7
9 13 6 13 -2 0 -10 -6 -16 -14z"/>
<path d="M5460 8896 c0 -2 8 -10 18 -17 15 -13 16 -12 3 4 -13 16 -21 21 -21
13z"/>
<path d="M5093 8877 c0 -8 6 -14 14 -14 9 0 10 4 2 14 -6 7 -12 13 -14 13 -1
0 -2 -6 -2 -13z"/>
<path d="M5295 8879 c-4 -6 -5 -12 -2 -15 2 -3 7 2 10 11 7 17 1 20 -8 4z"/>
<path d="M5576 8863 c-6 -14 -5 -15 5 -6 7 7 10 15 7 18 -3 3 -9 -2 -12 -12z"/>
<path d="M5610 8871 c0 -6 4 -12 8 -15 5 -3 9 1 9 9 0 8 -4 15 -9 15 -4 0 -8
-4 -8 -9z"/>
<path d="M5680 8876 c0 -2 8 -10 18 -17 15 -13 16 -12 3 4 -13 16 -21 21 -21
13z"/>
<path d="M4990 8846 c7 -7 13 -7 20 0 6 6 3 10 -10 10 -13 0 -16 -4 -10 -10z"/>
<path d="M5796 8837 c3 -10 9 -15 12 -12 3 3 0 11 -7 18 -10 9 -11 8 -5 -6z"/>
<path d="M9875 8839 c-4 -6 -5 -12 -2 -15 2 -3 7 2 10 11 7 17 1 20 -8 4z"/>
<path d="M4956 8832 c-3 -5 1 -9 9 -9 8 0 12 4 9 9 -3 4 -7 8 -9 8 -2 0 -6 -4
-9 -8z"/>
<path d="M5110 8830 c0 -5 5 -10 11 -10 5 0 7 5 4 10 -3 6 -8 10 -11 10 -2 0
-4 -4 -4 -10z"/>
<path d="M5235 8830 c3 -5 8 -10 11 -10 2 0 4 5 4 10 0 6 -5 10 -11 10 -5 0
-7 -4 -4 -10z"/>
<path d="M5575 8830 c-3 -5 -1 -10 4 -10 6 0 11 5 11 10 0 6 -2 10 -4 10 -3 0
-8 -4 -11 -10z"/>
<path d="M5613 8821 c0 -11 5 -18 9 -15 4 3 5 11 1 19 -7 21 -12 19 -10 -4z"/>
<path d="M5650 8809 c0 -5 5 -7 10 -4 6 3 10 8 10 11 0 2 -4 4 -10 4 -5 0 -10
-5 -10 -11z"/>
<path d="M4955 8799 c-4 -6 -5 -12 -2 -15 2 -3 7 2 10 11 7 17 1 20 -8 4z"/>
<path d="M5936 8797 c3 -8 11 -14 19 -14 20 0 19 4 -5 17 -15 8 -18 8 -14 -3z"/>
<path d="M5506 8788 c3 -5 10 -6 15 -3 13 9 11 12 -6 12 -8 0 -12 -4 -9 -9z"/>
<path d="M9939 8798 c-5 -18 -6 -38 -1 -34 7 8 12 36 6 36 -2 0 -4 -1 -5 -2z"/>
<path d="M4795 8771 c-3 -5 -2 -12 3 -15 5 -3 9 1 9 9 0 17 -3 19 -12 6z"/>
<path d="M4890 8770 c0 -5 5 -10 11 -10 5 0 7 5 4 10 -3 6 -8 10 -11 10 -2 0
-4 -4 -4 -10z"/>
<path d="M5765 8770 c-3 -6 1 -7 9 -4 18 7 21 14 7 14 -6 0 -13 -4 -16 -10z"/>
<path d="M5930 8766 c0 -2 8 -10 18 -17 15 -13 16 -12 3 4 -13 16 -21 21 -21
13z"/>
<path d="M5975 8761 c-3 -5 -2 -12 3 -15 5 -3 9 1 9 9 0 17 -3 19 -12 6z"/>
<path d="M4677 8741 c-10 -12 -9 -13 3 -6 8 5 21 10 28 11 24 4 25 13 3 11
-12 -1 -28 -8 -34 -16z"/>
<path d="M5995 8681 c-3 -5 -2 -12 3 -15 5 -3 9 1 9 9 0 17 -3 19 -12 6z"/>
<path d="M10075 8681 c-3 -5 -2 -12 3 -15 5 -3 9 1 9 9 0 17 -3 19 -12 6z"/>
<path d="M6113 8635 c0 -8 4 -12 9 -9 5 3 6 10 3 15 -9 13 -12 11 -12 -6z"/>
<path d="M6155 8639 c-4 -6 -5 -12 -2 -15 2 -3 7 2 10 11 7 17 1 20 -8 4z"/>
<path d="M10115 8639 c-4 -6 -5 -12 -2 -15 2 -3 7 2 10 11 7 17 1 20 -8 4z"/>
<path d="M4516 8623 c-6 -14 -5 -15 5 -6 7 7 10 15 7 18 -3 3 -9 -2 -12 -12z"/>
<path d="M4550 8630 c0 -5 5 -10 11 -10 5 0 7 5 4 10 -3 6 -8 10 -11 10 -2 0
-4 -4 -4 -10z"/>
<path d="M6180 8610 c8 -5 20 -10 25 -10 6 0 3 5 -5 10 -8 5 -19 10 -25 10 -5
0 -3 -5 5 -10z"/>
<path d="M6226 8608 c3 -4 9 -8 15 -8 5 0 9 4 9 8 0 5 -7 9 -15 9 -8 0 -12 -4
-9 -9z"/>
<path d="M4381 8571 c-10 -7 -7 -9 12 -8 14 1 23 5 20 10 -6 9 -15 9 -32 -2z"/>
<path d="M10190 8546 c7 -7 13 -7 20 0 6 6 3 10 -10 10 -13 0 -16 -4 -10 -10z"/>
<path d="M6389 8507 c6 -8 7 -18 3 -22 -4 -5 -1 -5 6 -1 10 6 10 11 1 22 -6 8
-14 14 -16 14 -3 0 0 -6 6 -13z"/>
<path d="M10236 8508 c3 -5 10 -6 15 -3 13 9 11 12 -6 12 -8 0 -12 -4 -9 -9z"/>
<path d="M10273 8485 c0 -8 4 -12 9 -9 5 3 6 10 3 15 -9 13 -12 11 -12 -6z"/>
<path d="M4246 8412 c-3 -5 1 -9 9 -9 8 0 12 4 9 9 -3 4 -7 8 -9 8 -2 0 -6 -4
-9 -8z"/>
<path d="M10310 8366 c0 -2 8 -10 18 -17 15 -13 16 -12 3 4 -13 16 -21 21 -21
13z"/>
<path d="M10356 8357 c3 -10 9 -15 12 -12 3 3 0 11 -7 18 -10 9 -11 8 -5 -6z"/>
<path d="M4173 8335 c0 -8 4 -12 9 -9 5 3 6 10 3 15 -9 13 -12 11 -12 -6z"/>
<path d="M6534 8328 c-4 -7 -3 -10 1 -5 5 4 18 -1 29 -10 21 -18 21 -18 2 5
-22 26 -23 26 -32 10z"/>
<path d="M4156 8243 c-6 -14 -5 -15 5 -6 7 7 10 15 7 18 -3 3 -9 -2 -12 -12z"/>
<path d="M4090 8216 c0 -2 7 -7 16 -10 8 -3 12 -2 9 4 -6 10 -25 14 -25 6z"/>
<path d="M6695 8170 c-3 -5 -1 -10 4 -10 6 0 11 5 11 10 0 6 -2 10 -4 10 -3 0
-8 -4 -11 -10z"/>
<path d="M10485 8170 c-3 -6 1 -7 9 -4 18 7 21 14 7 14 -6 0 -13 -4 -16 -10z"/>
<path d="M3979 8078 c-5 -18 -6 -38 -1 -34 7 8 12 36 6 36 -2 0 -4 -1 -5 -2z"/>
<path d="M10560 8070 c-9 -6 -10 -10 -3 -10 6 0 15 5 18 10 8 12 4 12 -15 0z"/>
<path d="M6870 7989 c0 -5 5 -7 10 -4 6 3 10 8 10 11 0 2 -4 4 -10 4 -5 0 -10
-5 -10 -11z"/>
<path d="M6913 7955 c0 -8 4 -15 9 -15 4 0 8 4 8 9 0 6 -4 12 -8 15 -5 3 -9
-1 -9 -9z"/>
<path d="M7175 7690 c-3 -5 -1 -10 4 -10 6 0 11 5 11 10 0 6 -2 10 -4 10 -3 0
-8 -4 -11 -10z"/>
<path d="M7233 7665 c0 -8 4 -12 9 -9 5 3 6 10 3 15 -9 13 -12 11 -12 -6z"/>
<path d="M7235 7630 c-3 -5 -1 -10 4 -10 6 0 11 5 11 10 0 6 -2 10 -4 10 -3 0
-8 -4 -11 -10z"/>
<path d="M7655 7210 c-3 -5 -1 -10 4 -10 6 0 11 5 11 10 0 6 -2 10 -4 10 -3 0
-8 -4 -11 -10z"/>
<path d="M7714 7186 c1 -8 5 -18 8 -22 4 -3 5 1 4 10 -1 8 -5 18 -8 22 -4 3
-5 -1 -4 -10z"/>
<path d="M7975 6890 c-3 -5 -1 -10 4 -10 6 0 11 5 11 10 0 6 -2 10 -4 10 -3 0
-8 -4 -11 -10z"/>
<path d="M10176 6752 c-3 -5 1 -9 9 -9 8 0 12 4 9 9 -3 4 -7 8 -9 8 -2 0 -6
-4 -9 -8z"/>
<path d="M8174 6712 c4 -3 14 -7 22 -8 9 -1 13 0 10 4 -4 3 -14 7 -22 8 -9 1
-13 0 -10 -4z"/>
<path d="M10135 6690 c-3 -5 -1 -10 4 -10 6 0 11 5 11 10 0 6 -2 10 -4 10 -3
0 -8 -4 -11 -10z"/>
<path d="M8193 6675 c0 -8 4 -15 9 -15 4 0 8 4 8 9 0 6 -4 12 -8 15 -5 3 -9
-1 -9 -9z"/>
<path d="M4440 6650 c-8 -5 -10 -10 -5 -10 6 0 17 5 25 10 8 5 11 10 5 10 -5
0 -17 -5 -25 -10z"/>
<path d="M4495 6610 c3 -5 8 -10 11 -10 2 0 4 5 4 10 0 6 -5 10 -11 10 -5 0
-7 -4 -4 -10z"/>
<path d="M10055 6610 c-3 -5 -1 -10 4 -10 6 0 11 5 11 10 0 6 -2 10 -4 10 -3
0 -8 -4 -11 -10z"/>
<path d="M10055 6570 c3 -5 8 -10 11 -10 2 0 4 5 4 10 0 6 -5 10 -11 10 -5 0
-7 -4 -4 -10z"/>
<path d="M8395 6490 c3 -5 8 -10 11 -10 2 0 4 5 4 10 0 6 -5 10 -11 10 -5 0
-7 -4 -4 -10z"/>
<path d="M8466 6452 c-3 -5 1 -9 9 -9 8 0 12 4 9 9 -3 4 -7 8 -9 8 -2 0 -6 -4
-9 -8z"/>
<path d="M9909 6433 c-13 -16 -12 -17 4 -4 9 7 17 15 17 17 0 8 -8 3 -21 -13z"/>
<path d="M9875 6431 c-3 -5 -2 -12 3 -15 5 -3 9 1 9 9 0 17 -3 19 -12 6z"/>
<path d="M8505 6410 c-3 -6 1 -7 9 -4 18 7 21 14 7 14 -6 0 -13 -4 -16 -10z"/>
<path d="M4660 6396 c0 -2 8 -10 18 -17 15 -13 16 -12 3 4 -13 16 -21 21 -21
13z"/>
<path d="M8495 6371 c-3 -5 -2 -12 3 -15 5 -3 9 1 9 9 0 17 -3 19 -12 6z"/>
<path d="M4715 6361 c-3 -5 -2 -12 3 -15 5 -3 9 1 9 9 0 17 -3 19 -12 6z"/>
<path d="M8570 6355 c0 -5 5 -17 10 -25 5 -8 10 -10 10 -5 0 6 -5 17 -10 25
-5 8 -10 11 -10 5z"/>
<path d="M8506 6308 c3 -5 10 -6 15 -3 13 9 11 12 -6 12 -8 0 -12 -4 -9 -9z"/>
<path d="M8705 6310 c-3 -6 1 -7 9 -4 18 7 21 14 7 14 -6 0 -13 -4 -16 -10z"/>
<path d="M4773 6295 c0 -8 4 -12 9 -9 5 3 6 10 3 15 -9 13 -12 11 -12 -6z"/>
<path d="M8749 6293 c-13 -16 -12 -17 4 -4 9 7 17 15 17 17 0 8 -8 3 -21 -13z"/>
<path d="M4733 6285 c0 -8 4 -12 9 -9 5 3 6 10 3 15 -9 13 -12 11 -12 -6z"/>
<path d="M9726 6288 c3 -5 10 -6 15 -3 13 9 11 12 -6 12 -8 0 -12 -4 -9 -9z"/>
<path d="M4800 6270 c-9 -6 -10 -10 -3 -10 6 0 15 5 18 10 8 12 4 12 -15 0z"/>
<path d="M8755 6270 c-3 -5 -1 -10 4 -10 6 0 11 5 11 10 0 6 -2 10 -4 10 -3 0
-8 -4 -11 -10z"/>
<path d="M8810 6271 c0 -6 4 -13 10 -16 6 -3 7 1 4 9 -7 18 -14 21 -14 7z"/>
<path d="M9606 6268 c3 -5 10 -6 15 -3 13 9 11 12 -6 12 -8 0 -12 -4 -9 -9z"/>
<path d="M9436 6252 c-3 -5 1 -9 9 -9 8 0 12 4 9 9 -3 4 -7 8 -9 8 -2 0 -6 -4
-9 -8z"/>
<path d="M8766 6228 c3 -5 10 -6 15 -3 13 9 11 12 -6 12 -8 0 -12 -4 -9 -9z"/>
<path d="M8810 6235 c0 -5 5 -17 10 -25 5 -8 10 -10 10 -5 0 6 -5 17 -10 25
-5 8 -10 11 -10 5z"/>
<path d="M9479 6223 c-13 -16 -12 -17 4 -4 9 7 17 15 17 17 0 8 -8 3 -21 -13z"/>
<path d="M8855 6210 c3 -5 8 -10 11 -10 2 0 4 5 4 10 0 6 -5 10 -11 10 -5 0
-7 -4 -4 -10z"/>
<path d="M8986 6208 c3 -4 9 -8 15 -8 5 0 9 4 9 8 0 5 -7 9 -15 9 -8 0 -12 -4
-9 -9z"/>
<path d="M9115 6200 c10 -11 20 -20 23 -20 3 0 -3 9 -13 20 -10 11 -20 20 -23
20 -3 0 3 -9 13 -20z"/>
<path d="M9239 6203 c-13 -16 -12 -17 4 -4 16 13 21 21 13 21 -2 0 -10 -8 -17
-17z"/>
<path d="M9575 6211 c-3 -5 -2 -12 3 -15 5 -3 9 1 9 9 0 17 -3 19 -12 6z"/>
<path d="M9075 6201 c-3 -5 -2 -12 3 -15 5 -3 9 1 9 9 0 17 -3 19 -12 6z"/>
<path d="M9335 6201 c-3 -5 -2 -12 3 -15 5 -3 9 1 9 9 0 17 -3 19 -12 6z"/>
<path d="M4850 6195 c0 -5 5 -17 10 -25 5 -8 10 -10 10 -5 0 6 -5 17 -10 25
-5 8 -10 11 -10 5z"/>
<path d="M9036 6188 c3 -5 10 -6 15 -3 13 9 11 12 -6 12 -8 0 -12 -4 -9 -9z"/>
<path d="M9390 6175 c0 -7 30 -13 34 -7 3 4 -4 9 -15 9 -10 1 -19 0 -19 -2z"/>
<path d="M4893 6145 c0 -8 4 -12 9 -9 5 3 6 10 3 15 -9 13 -12 11 -12 -6z"/>
<path d="M8940 6136 c0 -2 8 -10 18 -17 15 -13 16 -12 3 4 -13 16 -21 21 -21
13z"/>
<path d="M4933 6079 c-2 -23 3 -25 10 -4 4 8 3 16 -1 19 -4 3 -9 -4 -9 -15z"/>
<path d="M5193 5885 c0 -8 4 -12 9 -9 5 3 6 10 3 15 -9 13 -12 11 -12 -6z"/>
<path d="M1746 5848 c3 -5 10 -6 15 -3 13 9 11 12 -6 12 -8 0 -12 -4 -9 -9z"/>
<path d="M5240 5770 c-8 -5 -10 -10 -5 -10 6 0 17 5 25 10 8 5 11 10 5 10 -5
0 -17 -5 -25 -10z"/>
<path d="M5276 5743 c-6 -14 -5 -15 5 -6 7 7 10 15 7 18 -3 3 -9 -2 -12 -12z"/>
<path d="M5436 5623 c-6 -14 -5 -15 5 -6 7 7 10 15 7 18 -3 3 -9 -2 -12 -12z"/>
<path d="M5436 5592 c-3 -5 1 -9 9 -9 8 0 12 4 9 9 -3 4 -7 8 -9 8 -2 0 -6 -4
-9 -8z"/>
<path d="M5530 5510 c0 -5 5 -10 11 -10 5 0 7 5 4 10 -3 6 -8 10 -11 10 -2 0
-4 -4 -4 -10z"/>
<path d="M12590 5506 c0 -2 8 -10 18 -17 15 -13 16 -12 3 4 -13 16 -21 21 -21
13z"/>
<path d="M1936 5483 c-6 -14 -5 -15 5 -6 7 7 10 15 7 18 -3 3 -9 -2 -12 -12z"/>
<path d="M5573 5439 c-2 -23 3 -25 10 -4 4 8 3 16 -1 19 -4 3 -9 -4 -9 -15z"/>
<path d="M1994 5390 c0 -13 4 -16 10 -10 7 7 7 13 0 20 -6 6 -10 3 -10 -10z"/>
<path d="M5655 5381 c-3 -5 -2 -12 3 -15 5 -3 9 1 9 9 0 17 -3 19 -12 6z"/>
<path d="M2055 5301 c-3 -5 -2 -12 3 -15 5 -3 9 1 9 9 0 17 -3 19 -12 6z"/>
<path d="M12826 5149 c-32 -66 -86 -164 -118 -217 -32 -53 -64 -106 -71 -117
-7 -11 -14 -22 -17 -25 -3 -3 -21 -27 -39 -55 -98 -141 -306 -373 -441 -490
-236 -205 -525 -385 -805 -500 -49 -21 -92 -39 -94 -41 -2 -2 12 -19 32 -38
21 -19 37 -40 37 -46 0 -6 3 -9 8 -7 4 2 15 -4 25 -15 9 -10 14 -18 10 -18 -5
0 0 -5 10 -11 9 -6 14 -15 11 -21 -4 -6 -3 -8 4 -4 14 9 44 -23 38 -41 -3 -8
-2 -11 4 -8 12 8 50 -16 50 -32 0 -7 4 -13 8 -13 15 0 52 -37 45 -44 -3 -3 1
-6 10 -6 15 0 22 -11 18 -33 0 -4 3 -6 7 -5 5 2 27 -13 50 -33 28 -25 38 -39
31 -46 -8 -8 -7 -13 2 -18 8 -5 10 -4 5 3 -4 7 -1 12 9 12 11 0 15 -5 11 -16
-3 -8 -2 -13 3 -10 12 8 52 -34 45 -46 -4 -7 -2 -8 4 -4 15 9 64 -42 55 -57
-3 -5 -2 -7 3 -4 6 3 16 1 24 -4 12 -8 12 -12 3 -16 -7 -2 -13 -10 -13 -16 0
-8 4 -7 12 1 19 19 30 14 23 -10 -5 -18 -4 -20 4 -8 9 13 12 12 25 -5 8 -11
12 -24 9 -30 -4 -5 -3 -7 2 -3 11 10 37 -11 29 -23 -3 -5 -2 -9 3 -8 21 4 33
-2 33 -18 0 -9 3 -13 6 -10 10 10 45 -35 40 -49 -3 -8 0 -11 8 -8 8 3 23 -6
33 -20 11 -14 23 -22 27 -19 6 6 10 -12 7 -30 -1 -5 3 -6 8 -2 6 3 18 -4 28
-16 25 -30 38 -42 61 -58 12 -8 19 -18 16 -23 -3 -4 2 -8 10 -8 15 0 21 -13
16 -35 -1 -5 2 -7 6 -3 10 11 35 -12 27 -25 -3 -5 -2 -7 4 -4 5 3 22 -5 37
-18 16 -14 23 -26 17 -30 -6 -3 -11 -12 -10 -18 0 -9 2 -9 6 1 2 6 12 12 20
12 10 0 13 -6 9 -16 -3 -8 -2 -13 3 -10 11 7 53 -33 45 -45 -3 -5 -2 -9 3 -8
17 3 36 -1 31 -7 -3 -3 10 -20 29 -37 54 -49 88 -89 86 -98 -2 -4 4 -6 12 -3
9 4 15 0 15 -9 0 -8 -6 -18 -12 -20 -10 -4 -10 -6 -1 -6 6 -1 15 4 18 9 8 14
45 -27 45 -49 0 -14 2 -14 10 -1 8 13 10 12 10 -3 0 -10 4 -16 9 -12 6 3 13 0
18 -8 4 -7 20 -20 36 -30 15 -10 27 -25 28 -35 0 -9 3 -12 5 -5 4 8 11 7 24
-4 10 -9 17 -19 15 -23 -2 -3 6 -7 18 -7 12 -1 27 -9 33 -18 7 -9 16 -16 21
-16 4 1 8 -3 8 -8 0 -5 4 -13 9 -18 5 -5 6 -3 2 5 -11 19 4 14 74 -23 35 -19
70 -35 77 -35 7 0 13 -4 13 -8 0 -4 9 -8 21 -9 11 -1 41 -9 67 -17 26 -9 51
-16 55 -15 5 0 15 -8 24 -18 8 -10 12 -12 8 -5 -9 18 16 14 32 -5 8 -10 11
-12 7 -4 -6 11 2 12 42 6 27 -4 57 -8 67 -7 15 1 21 -9 19 -29 -1 -3 6 -6 13
-6 10 0 12 4 5 12 -13 16 24 27 39 12 7 -7 14 -7 24 1 10 9 19 7 37 -5 15 -11
20 -12 15 -3 -6 10 -3 12 13 8 12 -4 20 -2 16 3 -10 16 8 9 23 -8 7 -10 12
-13 11 -8 -4 14 4 17 64 26 29 4 67 11 83 14 17 4 41 8 55 10 14 2 27 4 30 5
3 2 8 2 13 1 4 0 7 3 7 9 0 6 3 9 8 9 4 -1 23 4 42 12 19 7 38 12 43 11 4 -1
7 2 7 8 0 5 6 10 13 10 6 0 25 7 41 15 15 8 33 12 39 8 5 -3 7 -1 3 5 -6 11
30 28 49 23 5 -1 7 1 3 5 -4 3 25 29 65 57 40 28 80 61 90 74 10 13 25 23 33
23 8 0 13 6 12 13 -2 6 5 11 14 11 9 -1 15 4 12 10 -2 6 14 31 36 56 58 65 60
69 60 75 0 16 48 74 55 67 5 -4 5 -2 2 5 -8 13 46 127 55 117 4 -3 4 3 1 15
-3 13 -1 21 6 21 7 0 9 4 6 10 -3 6 -2 10 2 10 5 0 9 8 10 18 1 30 27 122 34
122 4 0 5 10 1 22 -4 16 -2 19 9 13 11 -6 11 -5 2 5 -7 8 -8 22 -3 41 5 16 6
29 2 29 -4 0 0 5 8 10 9 6 10 10 3 10 -8 0 -9 9 -4 28 7 29 6 122 -2 212 -13
133 -84 360 -145 460 -12 19 -30 51 -41 70 -48 86 -190 236 -804 848 -360 358
-656 652 -658 652 -2 -1 -31 -55 -63 -121z"/>
<path d="M2135 5170 c-3 -5 -1 -10 4 -10 6 0 11 5 11 10 0 6 -2 10 -4 10 -3 0
-8 -4 -11 -10z"/>
<path d="M2187 5109 c7 -7 15 -10 18 -7 3 3 -2 9 -12 12 -14 6 -15 5 -6 -5z"/>
<path d="M2185 5070 c-3 -6 1 -7 9 -4 18 7 21 14 7 14 -6 0 -13 -4 -16 -10z"/>
<path d="M5976 5063 c-6 -14 -5 -15 5 -6 7 7 10 15 7 18 -3 3 -9 -2 -12 -12z"/>
<path d="M12250 5009 c0 -5 5 -7 10 -4 6 3 10 8 10 11 0 2 -4 4 -10 4 -5 0
-10 -5 -10 -11z"/>
<path d="M2295 4941 c-3 -5 -2 -12 3 -15 5 -3 9 1 9 9 0 17 -3 19 -12 6z"/>
<path d="M12175 4890 c3 -5 8 -10 11 -10 2 0 4 5 4 10 0 6 -5 10 -11 10 -5 0
-7 -4 -4 -10z"/>
<path d="M2375 4850 c3 -5 8 -10 11 -10 2 0 4 5 4 10 0 6 -5 10 -11 10 -5 0
-7 -4 -4 -10z"/>
<path d="M12130 4849 c0 -5 5 -7 10 -4 6 3 10 8 10 11 0 2 -4 4 -10 4 -5 0
-10 -5 -10 -11z"/>
<path d="M2405 4770 c-3 -6 1 -7 9 -4 18 7 21 14 7 14 -6 0 -13 -4 -16 -10z"/>
<path d="M2465 4730 c-3 -6 1 -7 9 -4 18 7 21 14 7 14 -6 0 -13 -4 -16 -10z"/>
<path d="M2495 4691 c-3 -5 -2 -12 3 -15 5 -3 9 1 9 9 0 17 -3 19 -12 6z"/>
<path d="M11900 4636 c0 -2 8 -10 18 -17 15 -13 16 -12 3 4 -13 16 -21 21 -21
13z"/>
<path d="M11870 4590 c0 -5 5 -10 10 -10 6 0 10 5 10 10 0 6 -4 10 -10 10 -5
0 -10 -4 -10 -10z"/>
<path d="M11910 4591 c0 -6 4 -13 10 -16 6 -3 7 1 4 9 -7 18 -14 21 -14 7z"/>
<path d="M6469 4553 c-13 -16 -12 -17 4 -4 9 7 17 15 17 17 0 8 -8 3 -21 -13z"/>
<path d="M11810 4529 c0 -5 5 -7 10 -4 6 3 10 8 10 11 0 2 -4 4 -10 4 -5 0
-10 -5 -10 -11z"/>
<path d="M2815 4381 c-3 -5 -2 -12 3 -15 5 -3 9 1 9 9 0 17 -3 19 -12 6z"/>
<path d="M2899 4318 c-5 -18 -6 -38 -1 -34 7 8 12 36 6 36 -2 0 -4 -1 -5 -2z"/>
<path d="M6780 4316 c0 -2 8 -10 18 -17 15 -13 16 -12 3 4 -13 16 -21 21 -21
13z"/>
<path d="M2999 4248 c-5 -18 -6 -38 -1 -34 7 8 12 36 6 36 -2 0 -4 -1 -5 -2z"/>
<path d="M11460 4236 c0 -2 8 -10 18 -17 15 -13 16 -12 3 4 -13 16 -21 21 -21
13z"/>
<path d="M6949 4193 c-13 -16 -12 -17 4 -4 9 7 17 15 17 17 0 8 -8 3 -21 -13z"/>
<path d="M3078 4188 c-9 -5 -6 -7 9 -5 12 2 25 6 28 8 8 9 -23 6 -37 -3z"/>
<path d="M7029 4153 c-13 -16 -12 -17 4 -4 9 7 17 15 17 17 0 8 -8 3 -21 -13z"/>
<path d="M7036 4131 c-3 -5 2 -15 12 -22 15 -12 16 -12 5 2 -7 9 -10 19 -6 22
3 4 4 7 0 7 -3 0 -8 -4 -11 -9z"/>
<path d="M11190 4086 c0 -2 8 -10 18 -17 15 -13 16 -12 3 4 -13 16 -21 21 -21
13z"/>
<path d="M3270 4070 c0 -5 5 -10 11 -10 5 0 7 5 4 10 -3 6 -8 10 -11 10 -2 0
-4 -4 -4 -10z"/>
<path d="M7070 4076 c0 -2 7 -7 16 -10 8 -3 12 -2 9 4 -6 10 -25 14 -25 6z"/>
<path d="M7140 4076 c0 -2 8 -10 18 -17 15 -13 16 -12 3 4 -13 16 -21 21 -21
13z"/>
<path d="M11156 4063 c-6 -14 -5 -15 5 -6 7 7 10 15 7 18 -3 3 -9 -2 -12 -12z"/>
<path d="M7185 4049 c-3 -4 2 -6 10 -5 21 3 28 13 10 13 -9 0 -18 -4 -20 -8z"/>
<path d="M11234 4052 c4 -3 14 -7 22 -8 9 -1 13 0 10 4 -4 3 -14 7 -22 8 -9 1
-13 0 -10 -4z"/>
<path d="M7116 4037 c3 -10 9 -15 12 -12 3 3 0 11 -7 18 -10 9 -11 8 -5 -6z"/>
<path d="M11126 4028 c3 -5 10 -6 15 -3 13 9 11 12 -6 12 -8 0 -12 -4 -9 -9z"/>
<path d="M3335 3990 c3 -5 8 -10 11 -10 2 0 4 5 4 10 0 6 -5 10 -11 10 -5 0
-7 -4 -4 -10z"/>
<path d="M7320 3990 c8 -5 20 -10 25 -10 6 0 3 5 -5 10 -8 5 -19 10 -25 10 -5
0 -3 -5 5 -10z"/>
<path d="M3430 3986 c0 -2 8 -10 18 -17 15 -13 16 -12 3 4 -13 16 -21 21 -21
13z"/>
<path d="M7255 3970 c3 -5 8 -10 11 -10 2 0 4 5 4 10 0 6 -5 10 -11 10 -5 0
-7 -4 -4 -10z"/>
<path d="M11090 3969 c0 -5 5 -7 10 -4 6 3 10 8 10 11 0 2 -4 4 -10 4 -5 0
-10 -5 -10 -11z"/>
<path d="M7320 3950 c-9 -6 -10 -10 -3 -10 6 0 15 5 18 10 8 12 4 12 -15 0z"/>
<path d="M7350 3951 c0 -6 4 -13 10 -16 6 -3 7 1 4 9 -7 18 -14 21 -14 7z"/>
<path d="M11055 3930 c3 -5 8 -10 11 -10 2 0 4 5 4 10 0 6 -5 10 -11 10 -5 0
-7 -4 -4 -10z"/>
<path d="M10993 3915 c0 -8 4 -12 9 -9 5 3 6 10 3 15 -9 13 -12 11 -12 -6z"/>
<path d="M3495 3910 c3 -5 8 -10 11 -10 2 0 4 5 4 10 0 6 -5 10 -11 10 -5 0
-7 -4 -4 -10z"/>
<path d="M7396 3908 c3 -5 10 -6 15 -3 13 9 11 12 -6 12 -8 0 -12 -4 -9 -9z"/>
<path d="M10956 3908 c3 -5 10 -6 15 -3 13 9 11 12 -6 12 -8 0 -12 -4 -9 -9z"/>
<path d="M3445 3890 c-3 -6 1 -7 9 -4 18 7 21 14 7 14 -6 0 -13 -4 -16 -10z"/>
<path d="M10816 3877 c3 -10 9 -15 12 -12 3 3 0 11 -7 18 -10 9 -11 8 -5 -6z"/>
<path d="M3550 3866 c7 -7 13 -7 20 0 6 6 3 10 -10 10 -13 0 -16 -4 -10 -10z"/>
<path d="M3690 3846 c0 -2 8 -10 18 -17 15 -13 16 -12 3 4 -13 16 -21 21 -21
13z"/>
<path d="M10785 3830 c10 -11 20 -20 23 -20 3 0 -3 9 -13 20 -10 11 -20 20
-23 20 -3 0 3 -9 13 -20z"/>
<path d="M7516 3828 c3 -5 10 -6 15 -3 13 9 11 12 -6 12 -8 0 -12 -4 -9 -9z"/>
<path d="M3720 3810 c-9 -6 -10 -10 -3 -10 6 0 15 5 18 10 8 12 4 12 -15 0z"/>
<path d="M7667 3789 c7 -7 15 -10 18 -7 3 3 -2 9 -12 12 -14 6 -15 5 -6 -5z"/>
<path d="M3673 3765 c0 -8 4 -12 9 -9 5 3 6 10 3 15 -9 13 -12 11 -12 -6z"/>
<path d="M7791 3763 c7 -12 15 -20 18 -17 3 2 -3 12 -13 22 -17 16 -18 16 -5
-5z"/>
<path d="M3876 3757 c3 -10 9 -15 12 -12 3 3 0 11 -7 18 -10 9 -11 8 -5 -6z"/>
<path d="M3759 3743 c-13 -16 -12 -17 4 -4 16 13 21 21 13 21 -2 0 -10 -8 -17
-17z"/>
<path d="M7707 3749 c7 -7 15 -10 18 -7 3 3 -2 9 -12 12 -14 6 -15 5 -6 -5z"/>
<path d="M10636 3737 c3 -10 9 -15 12 -12 3 3 0 11 -7 18 -10 9 -11 8 -5 -6z"/>
<path d="M7830 3731 c0 -6 4 -13 10 -16 6 -3 7 1 4 9 -7 18 -14 21 -14 7z"/>
<path d="M3973 3717 c0 -7 9 -14 20 -14 11 -1 18 -1 16 0 -2 2 -11 8 -20 15
-12 9 -16 9 -16 -1z"/>
<path d="M7793 3715 c0 -8 4 -12 9 -9 5 3 6 10 3 15 -9 13 -12 11 -12 -6z"/>
<path d="M10533 3715 c0 -8 4 -15 9 -15 4 0 8 4 8 9 0 6 -4 12 -8 15 -5 3 -9
-1 -9 -9z"/>
<path d="M7866 3708 c3 -5 10 -6 15 -3 13 9 11 12 -6 12 -8 0 -12 -4 -9 -9z"/>
<path d="M10433 3705 c0 -8 4 -12 9 -9 4 3 8 9 8 15 0 5 -4 9 -8 9 -5 0 -9 -7
-9 -15z"/>
<path d="M4041 3666 c-8 -10 -9 -16 -1 -21 6 -4 9 -1 8 7 -2 7 3 12 10 10 8
-1 11 2 7 8 -8 13 -10 13 -24 -4z"/>
<path d="M6496 3672 c-3 -5 1 -9 9 -9 8 0 12 4 9 9 -3 4 -7 8 -9 8 -2 0 -6 -4
-9 -8z"/>
<path d="M10286 3672 c-3 -5 1 -9 9 -9 8 0 12 4 9 9 -3 4 -7 8 -9 8 -2 0 -6
-4 -9 -8z"/>
<path d="M8075 3661 c-3 -5 -2 -12 3 -15 5 -3 9 1 9 9 0 17 -3 19 -12 6z"/>
<path d="M4114 3644 c1 -8 4 -15 7 -16 2 -2 3 -1 2 1 -2 2 2 9 7 16 7 8 5 12
-4 12 -8 0 -13 -6 -12 -13z"/>
<path d="M6316 3652 c-2 -4 -1 -14 4 -22 7 -11 9 -9 7 8 -1 24 -3 26 -11 14z"/>
<path d="M6353 3639 c-2 -23 3 -25 10 -4 4 8 3 16 -1 19 -4 3 -9 -4 -9 -15z"/>
<path d="M10203 3648 c-11 -19 -12 -37 -3 -43 5 -3 7 3 5 12 -1 10 2 24 8 31
5 6 7 12 4 12 -3 0 -9 -6 -14 -12z"/>
<path d="M10239 3658 c-5 -18 -6 -38 -1 -34 7 8 12 36 6 36 -2 0 -4 -1 -5 -2z"/>
<path d="M4070 3646 c0 -2 8 -10 18 -17 15 -13 16 -12 3 4 -13 16 -21 21 -21
13z"/>
<path d="M8193 3635 c0 -8 4 -12 9 -9 5 3 6 10 3 15 -9 13 -12 11 -12 -6z"/>
<path d="M6255 3630 c3 -5 8 -10 11 -10 2 0 4 5 4 10 0 6 -5 10 -11 10 -5 0
-7 -4 -4 -10z"/>
<path d="M8016 3628 c3 -5 10 -6 15 -3 13 9 11 12 -6 12 -8 0 -12 -4 -9 -9z"/>
<path d="M10098 3622 c-11 -15 -11 -15 2 -6 8 6 23 10 33 8 11 -1 16 0 13 4
-13 12 -36 10 -48 -6z"/>
<path d="M10446 3632 c-3 -5 1 -9 9 -9 8 0 12 4 9 9 -3 4 -7 8 -9 8 -2 0 -6
-4 -9 -8z"/>
<path d="M8273 3615 c0 -8 4 -12 9 -9 5 3 6 10 3 15 -9 13 -12 11 -12 -6z"/>
<path d="M6150 3616 c0 -2 7 -7 16 -10 8 -3 12 -2 9 4 -6 10 -25 14 -25 6z"/>
<path d="M6376 3612 c-3 -5 1 -9 9 -9 8 0 12 4 9 9 -3 4 -7 8 -9 8 -2 0 -6 -4
-9 -8z"/>
<path d="M8050 3616 c0 -2 7 -7 16 -10 8 -3 12 -2 9 4 -6 10 -25 14 -25 6z"/>
<path d="M8095 3610 c3 -5 8 -10 11 -10 2 0 4 5 4 10 0 6 -5 10 -11 10 -5 0
-7 -4 -4 -10z"/>
<path d="M10037 3606 c-3 -8 -14 -13 -25 -11 -11 2 -19 -2 -19 -11 0 -9 4 -11
12 -4 7 5 14 8 17 5 3 -3 11 1 18 10 7 9 11 18 8 21 -3 3 -8 -2 -11 -10z"/>
<path d="M10295 3610 c3 -5 8 -10 11 -10 2 0 4 5 4 10 0 6 -5 10 -11 10 -5 0
-7 -4 -4 -10z"/>
<path d="M6130 3606 c0 -2 8 -10 18 -17 15 -13 16 -12 3 4 -13 16 -21 21 -21
13z"/>
<path d="M4175 3590 c-3 -5 -1 -10 4 -10 6 0 11 5 11 10 0 6 -2 10 -4 10 -3 0
-8 -4 -11 -10z"/>
<path d="M4366 3591 c-3 -4 6 -7 19 -7 14 0 22 2 19 5 -8 8 -34 10 -38 2z"/>
<path d="M6113 3585 c0 -8 4 -12 9 -9 5 3 6 10 3 15 -9 13 -12 11 -12 -6z"/>
<path d="M9935 3590 c-3 -5 -1 -10 4 -10 6 0 11 5 11 10 0 6 -2 10 -4 10 -3 0
-8 -4 -11 -10z"/>
<path d="M10107 3589 c7 -7 15 -10 18 -7 3 3 -2 9 -12 12 -14 6 -15 5 -6 -5z"/>
<path d="M10147 3589 c7 -7 15 -10 18 -7 3 3 -2 9 -12 12 -14 6 -15 5 -6 -5z"/>
<path d="M6210 3569 c0 -5 5 -7 10 -4 6 3 10 8 10 11 0 2 -4 4 -10 4 -5 0 -10
-5 -10 -11z"/>
<path d="M6250 3576 c0 -2 7 -7 16 -10 8 -3 12 -2 9 4 -6 10 -25 14 -25 6z"/>
<path d="M8255 3570 c3 -5 8 -10 11 -10 2 0 4 5 4 10 0 6 -5 10 -11 10 -5 0
-7 -4 -4 -10z"/>
<path d="M8346 3568 c3 -4 9 -8 15 -8 5 0 9 4 9 8 0 5 -7 9 -15 9 -8 0 -12 -4
-9 -9z"/>
<path d="M8555 3559 c-4 -6 -5 -12 -2 -15 2 -3 7 2 10 11 7 17 1 20 -8 4z"/>
<path d="M4370 3545 c5 -7 6 -16 2 -21 -4 -5 -3 -5 2 -1 15 12 15 34 0 34 -9
0 -11 -4 -4 -12z"/>
<path d="M4546 3552 c-3 -5 1 -9 9 -9 8 0 15 4 15 9 0 4 -4 8 -9 8 -6 0 -12
-4 -15 -8z"/>
<path d="M5876 3543 c-6 -14 -5 -15 5 -6 7 7 10 15 7 18 -3 3 -9 -2 -12 -12z"/>
<path d="M6035 3550 c-3 -5 -1 -10 4 -10 6 0 11 5 11 10 0 6 -2 10 -4 10 -3 0
-8 -4 -11 -10z"/>
<path d="M6150 3551 c0 -6 4 -13 10 -16 6 -3 7 1 4 9 -7 18 -14 21 -14 7z"/>
<path d="M8466 3552 c-2 -4 4 -8 14 -8 10 0 16 4 14 8 -3 4 -9 8 -14 8 -5 0
-11 -4 -14 -8z"/>
<path d="M8616 3548 c3 -5 10 -6 15 -3 13 9 11 12 -6 12 -8 0 -12 -4 -9 -9z"/>
<path d="M11337 3545 c-4 -8 -3 -16 1 -19 4 -3 9 4 9 15 2 23 -3 25 -10 4z"/>
<path d="M5830 3546 c0 -2 8 -10 18 -17 15 -13 16 -12 3 4 -13 16 -21 21 -21
13z"/>
<path d="M9793 3535 c0 -8 4 -12 9 -9 5 3 6 10 3 15 -9 13 -12 11 -12 -6z"/>
<path d="M4630 3530 c0 -5 5 -10 10 -10 6 0 10 5 10 10 0 6 -4 10 -10 10 -5 0
-10 -4 -10 -10z"/>
<path d="M8326 3528 c3 -5 10 -6 15 -3 13 9 11 12 -6 12 -8 0 -12 -4 -9 -9z"/>
<path d="M8376 3528 c3 -5 10 -6 15 -3 13 9 11 12 -6 12 -8 0 -12 -4 -9 -9z"/>
<path d="M8799 3523 c-13 -16 -12 -17 4 -4 9 7 17 15 17 17 0 8 -8 3 -21 -13z"/>
<path d="M9634 3514 c1 -13 5 -26 8 -29 4 -4 5 1 4 12 -2 10 0 23 5 29 5 6 4
11 -5 11 -7 0 -12 -10 -12 -23z"/>
<path d="M4535 3510 c2 -27 10 -33 12 -10 1 11 -2 22 -6 24 -4 3 -7 -4 -6 -14z"/>
<path d="M8616 3517 c3 -10 9 -15 12 -12 3 3 0 11 -7 18 -10 9 -11 8 -5 -6z"/>
<path d="M8931 3517 c-8 -10 -7 -14 2 -14 8 0 14 6 14 14 0 7 -1 13 -2 13 -2
0 -8 -6 -14 -13z"/>
<path d="M9333 3517 c0 -8 12 -13 28 -13 15 0 26 3 23 8 -3 5 -10 6 -15 2 -5
-3 -16 -1 -23 5 -9 8 -13 7 -13 -2z"/>
<path d="M9496 3517 c3 -10 9 -15 12 -12 3 3 0 11 -7 18 -10 9 -11 8 -5 -6z"/>
<path d="M11373 3515 c0 -8 4 -12 9 -9 5 3 6 10 3 15 -9 13 -12 11 -12 -6z"/>
<path d="M5626 3508 c3 -5 10 -6 15 -3 13 9 11 12 -6 12 -8 0 -12 -4 -9 -9z"/>
<path d="M6030 3511 c0 -6 4 -13 10 -16 6 -3 7 1 4 9 -7 18 -14 21 -14 7z"/>
<path d="M8680 3510 c-9 -6 -10 -10 -3 -10 6 0 15 5 18 10 8 12 4 12 -15 0z"/>
<path d="M8820 3516 c0 -2 8 -10 18 -17 15 -13 16 -12 3 4 -13 16 -21 21 -21
13z"/>
<path d="M9050 3511 c0 -6 4 -13 10 -16 6 -3 7 1 4 9 -7 18 -14 21 -14 7z"/>
<path d="M9473 3505 c0 -8 4 -12 9 -9 5 3 6 10 3 15 -9 13 -12 11 -12 -6z"/>
<path d="M9575 3510 c-4 -6 -1 -9 7 -8 7 2 12 -3 10 -10 -1 -8 2 -11 8 -7 8 5
7 11 -1 21 -14 17 -16 17 -24 4z"/>
<path d="M9675 3510 c-3 -5 -1 -10 4 -10 6 0 11 5 11 10 0 6 -2 10 -4 10 -3 0
-8 -4 -11 -10z"/>
<path d="M9706 3512 c-3 -5 1 -9 9 -9 8 0 12 4 9 9 -3 4 -7 8 -9 8 -2 0 -6 -4
-9 -8z"/>
<path d="M4475 3499 c-4 -6 -5 -12 -2 -15 2 -3 7 2 10 11 7 17 1 20 -8 4z"/>
<path d="M4713 3495 c0 -8 4 -12 9 -9 5 3 6 10 3 15 -9 13 -12 11 -12 -6z"/>
<path d="M8575 3501 c-3 -5 -2 -12 3 -15 5 -3 9 1 9 9 0 17 -3 19 -12 6z"/>
<path d="M8735 3501 c-3 -5 -2 -12 3 -15 5 -3 9 1 9 9 0 17 -3 19 -12 6z"/>
<path d="M4575 3490 c3 -5 8 -10 11 -10 2 0 4 5 4 10 0 6 -5 10 -11 10 -5 0
-7 -4 -4 -10z"/>
<path d="M5890 3489 c0 -5 5 -7 10 -4 6 3 10 8 10 11 0 2 -4 4 -10 4 -5 0 -10
-5 -10 -11z"/>
<path d="M9267 3489 c7 -7 15 -10 18 -7 3 3 -2 9 -12 12 -14 6 -15 5 -6 -5z"/>
<path d="M9436 3492 c-3 -5 1 -9 9 -9 8 0 12 4 9 9 -3 4 -7 8 -9 8 -2 0 -6 -4
-9 -8z"/>
<path d="M5373 3477 c0 -8 6 -14 14 -14 9 0 10 4 2 14 -6 7 -12 13 -14 13 -1
0 -2 -6 -2 -13z"/>
<path d="M5415 3481 c-3 -5 -2 -12 3 -15 5 -3 9 1 9 9 0 17 -3 19 -12 6z"/>
<path d="M4790 3469 c0 -5 5 -7 10 -4 6 3 10 8 10 11 0 2 -4 4 -10 4 -5 0 -10
-5 -10 -11z"/>
<path d="M4930 3469 c0 -5 5 -7 10 -4 6 3 10 8 10 11 0 2 -4 4 -10 4 -5 0 -10
-5 -10 -11z"/>
<path d="M5055 3470 c3 -5 8 -10 11 -10 2 0 4 5 4 10 0 6 -5 10 -11 10 -5 0
-7 -4 -4 -10z"/>
<path d="M5165 3469 c-3 -4 2 -6 10 -5 21 3 28 13 10 13 -9 0 -18 -4 -20 -8z"/>
<path d="M5775 3470 c-3 -5 -1 -10 4 -10 6 0 11 5 11 10 0 6 -2 10 -4 10 -3 0
-8 -4 -11 -10z"/>
<path d="M8830 3476 c0 -2 7 -7 16 -10 8 -3 12 -2 9 4 -6 10 -25 14 -25 6z"/>
<path d="M9021 3466 c-9 -11 -9 -16 1 -22 7 -4 10 -4 6 1 -4 4 -3 14 3 22 6 7
9 13 6 13 -2 0 -10 -6 -16 -14z"/>
<path d="M9196 3463 c-6 -14 -5 -15 5 -6 7 7 10 15 7 18 -3 3 -9 -2 -12 -12z"/>
<path d="M9616 3472 c-3 -5 1 -9 9 -9 8 0 12 4 9 9 -3 4 -7 8 -9 8 -2 0 -6 -4
-9 -8z"/>
<path d="M5273 3455 c0 -8 4 -12 9 -9 5 3 6 10 3 15 -9 13 -12 11 -12 -6z"/>
<path d="M8893 3455 c0 -8 4 -12 9 -9 5 3 6 10 3 15 -9 13 -12 11 -12 -6z"/>
<path d="M5655 3450 c-3 -5 -1 -10 4 -10 6 0 11 5 11 10 0 6 -2 10 -4 10 -3 0
-8 -4 -11 -10z"/>
<path d="M5735 3451 c-3 -5 -2 -12 3 -15 5 -3 9 1 9 9 0 17 -3 19 -12 6z"/>
<path d="M8925 3450 c-3 -6 1 -7 9 -4 18 7 21 14 7 14 -6 0 -13 -4 -16 -10z"/>
<path d="M8975 3450 c3 -5 8 -10 11 -10 2 0 4 5 4 10 0 6 -5 10 -11 10 -5 0
-7 -4 -4 -10z"/>
<path d="M9495 3451 c-3 -5 -2 -12 3 -15 5 -3 9 1 9 9 0 17 -3 19 -12 6z"/>
<path d="M11430 3456 c0 -2 7 -7 16 -10 8 -3 12 -2 9 4 -6 10 -25 14 -25 6z"/>
<path d="M4989 3433 c-13 -16 -12 -17 4 -4 9 7 17 15 17 17 0 8 -8 3 -21 -13z"/>
<path d="M5071 3423 c7 -12 15 -20 18 -17 3 2 -3 12 -13 22 -17 16 -18 16 -5
-5z"/>
<path d="M5156 3425 c-9 -26 -7 -32 5 -12 6 10 9 21 6 23 -2 3 -7 -2 -11 -11z"/>
<path d="M5513 3415 c0 -8 4 -12 9 -9 5 3 6 10 3 15 -9 13 -12 11 -12 -6z"/>
<path d="M5395 3391 c-3 -5 -2 -12 3 -15 5 -3 9 1 9 9 0 17 -3 19 -12 6z"/>
<path d="M11560 3330 c-9 -6 -10 -10 -3 -10 6 0 15 5 18 10 8 12 4 12 -15 0z"/>
<path d="M11795 3081 c-3 -5 -2 -12 3 -15 5 -3 9 1 9 9 0 17 -3 19 -12 6z"/>
<path d="M11930 2971 c0 -6 4 -13 10 -16 6 -3 7 1 4 9 -7 18 -14 21 -14 7z"/>
<path d="M12176 2692 c-3 -4 4 -9 15 -9 23 -2 25 3 4 10 -8 4 -16 3 -19 -1z"/>
<path d="M14366 2492 c-3 -5 1 -9 9 -9 8 0 12 4 9 9 -3 4 -7 8 -9 8 -2 0 -6
-4 -9 -8z"/>
<path d="M14335 2410 c3 -5 8 -10 11 -10 2 0 4 5 4 10 0 6 -5 10 -11 10 -5 0
-7 -4 -4 -10z"/>
<path d="M12476 2357 c3 -10 9 -15 12 -12 3 3 0 11 -7 18 -10 9 -11 8 -5 -6z"/>
<path d="M12573 2301 c0 -11 5 -18 9 -15 4 3 5 11 1 19 -7 21 -12 19 -10 -4z"/>
<path d="M12646 2272 c-3 -5 1 -9 9 -9 8 0 12 4 9 9 -3 4 -7 8 -9 8 -2 0 -6
-4 -9 -8z"/>
<path d="M12670 2231 c0 -6 4 -13 10 -16 6 -3 7 1 4 9 -7 18 -14 21 -14 7z"/>
<path d="M14133 2225 c0 -8 4 -12 9 -9 4 3 8 9 8 15 0 5 -4 9 -8 9 -5 0 -9 -7
-9 -15z"/>
<path d="M14173 2205 c0 -8 4 -12 9 -9 5 3 6 10 3 15 -9 13 -12 11 -12 -6z"/>
<path d="M12636 2152 c-3 -5 1 -9 9 -9 8 0 12 4 9 9 -3 4 -7 8 -9 8 -2 0 -6
-4 -9 -8z"/>
<path d="M12770 2129 c0 -5 5 -7 10 -4 6 3 10 8 10 11 0 2 -4 4 -10 4 -5 0
-10 -5 -10 -11z"/>
<path d="M12916 2068 c3 -5 10 -6 15 -3 13 9 11 12 -6 12 -8 0 -12 -4 -9 -9z"/>
<path d="M13856 2068 c3 -5 10 -6 15 -3 13 9 11 12 -6 12 -8 0 -12 -4 -9 -9z"/>
<path d="M13089 2033 c-13 -16 -12 -17 4 -4 16 13 21 21 13 21 -2 0 -10 -8
-17 -17z"/>
<path d="M13850 2046 c0 -2 8 -10 18 -17 15 -13 16 -12 3 4 -13 16 -21 21 -21
13z"/>
<path d="M13228 2013 c7 -3 16 -2 19 1 4 3 -2 6 -13 5 -11 0 -14 -3 -6 -6z"/>
<path d="M13636 2012 c-2 -4 -1 -14 4 -22 7 -11 9 -9 7 8 -1 24 -3 26 -11 14z"/>
<path d="M13667 2009 c7 -7 15 -10 18 -7 3 3 -2 9 -12 12 -14 6 -15 5 -6 -5z"/>
<path d="M13709 2007 c6 -8 7 -18 3 -22 -4 -5 -1 -5 6 -1 10 6 10 11 1 22 -6
8 -14 14 -16 14 -3 0 0 -6 6 -13z"/>
<path d="M13573 1997 c0 -7 9 -14 20 -14 11 -1 18 -1 16 0 -2 2 -11 8 -20 15
-12 9 -16 9 -16 -1z"/>
<path d="M13226 1992 c-3 -5 1 -9 9 -9 8 0 12 4 9 9 -3 4 -7 8 -9 8 -2 0 -6
-4 -9 -8z"/>
<path d="M13273 1965 c0 -8 4 -12 9 -9 5 3 6 10 3 15 -9 13 -12 11 -12 -6z"/>
<path d="M13735 1970 c3 -5 8 -10 11 -10 2 0 4 5 4 10 0 6 -5 10 -11 10 -5 0
-7 -4 -4 -10z"/>
<path d="M13233 1955 c0 -8 4 -12 9 -9 5 3 6 10 3 15 -9 13 -12 11 -12 -6z"/>
<path d="M13295 1930 c-3 -5 -1 -10 4 -10 6 0 11 5 11 10 0 6 -2 10 -4 10 -3
0 -8 -4 -11 -10z"/>
<path d="M13375 1930 c3 -5 8 -10 11 -10 2 0 4 5 4 10 0 6 -5 10 -11 10 -5 0
-7 -4 -4 -10z"/>
<path d="M13410 1929 c0 -5 5 -7 10 -4 6 3 10 8 10 11 0 2 -4 4 -10 4 -5 0
-10 -5 -10 -11z"/>
<path d="M13635 1931 c-3 -5 -2 -12 3 -15 5 -3 9 1 9 9 0 17 -3 19 -12 6z"/>
<path d="M13546 1868 c3 -5 10 -6 15 -3 13 9 11 12 -6 12 -8 0 -12 -4 -9 -9z"/>
</g>
</svg>
